<svg xmlns="http://www.w3.org/2000/svg" width="91.919" height="91.926"><g data-name="鉛筆アイコン　3"><path data-name="パス 1155" d="M89.266 15.871L76.047 2.656a9.061 9.061 0 00-12.815 0l-8.57 8.57L12.78 53.112a16.65 16.65 0 00-3.9 6.139L.398 82.877a6.763 6.763 0 008.655 8.649l23.622-8.49a16.674 16.674 0 006.141-3.895L78.459 39.5l2.241-2.244 8.564-8.569a9.068 9.068 0 00.002-12.816zm-58.736 61.2l-15.05 5.41-6.033-6.034L14.854 61.4c.04-.108.093-.214.136-.322l15.86 15.857c-.108.045-.21.096-.32.136zm3.8-2.411c-.214.214-.441.41-.672.6l-17-17c.192-.229.388-.458.6-.672L58.83 16.019 75.9 33.09zM84.78 24.2l-6.326 6.328-.317.317L61.07 13.779l6.644-6.644a2.729 2.729 0 013.852 0L84.78 20.354a2.723 2.723 0 010 3.855z" fill="#e60011"/></g></svg>