<svg xmlns="http://www.w3.org/2000/svg" width="75.648" height="96.786"><g data-name="鉄壁のセキュリティアイコン (1)"><path data-name="パス 1154" d="M71.701 18.277l-3.71-.2c-10.062-.559-18.784-4.422-23.934-10.6L37.824 0l-6.235 7.469c-5.149 6.183-13.873 10.046-23.934 10.6L0 18.492v35.372a28.864 28.864 0 003.947 14.11C12.313 83.067 31.353 93.4 34.062 94.821l3.762 1.965 3.76-1.965c3.488-1.829 34.064-18.462 34.064-40.957V18.5zM8.096 49.358V26.169c12.161-.677 22.97-5.4 29.728-13.516v36.705h29.725v4.506c0 18.242-29.725 33.775-29.725 33.775V49.358z" fill="#e60011"/></g></svg>