<svg xmlns="http://www.w3.org/2000/svg" width="89.696" height="89.696"><g data-name="グループ 3709" fill="#e91313"><path data-name="パス 1719" d="M75.553 88.2h-61.41A12.657 12.657 0 011.5 75.553v-61.41A12.657 12.657 0 0114.143 1.5h61.41A12.657 12.657 0 0188.2 14.143v61.409A12.657 12.657 0 0175.553 88.2zM14.143 5.117a9.04 9.04 0 00-9.031 9.031v61.409a9.04 9.04 0 009.031 9.031h61.41a9.04 9.04 0 009.031-9.031V14.143a9.04 9.04 0 00-9.031-9.031z"/><path data-name="パス 1719 - アウトライン" d="M75.553 89.7h-61.41A14.159 14.159 0 010 75.553v-61.41A14.159 14.159 0 0114.143 0h61.41A14.159 14.159 0 0189.7 14.143v61.409A14.159 14.159 0 0175.553 89.7zM14.143 3A11.156 11.156 0 003 14.143v61.409A11.156 11.156 0 0014.143 86.7h61.41A11.156 11.156 0 0086.7 75.553v-61.41A11.156 11.156 0 0075.553 3zm61.41 83.083h-61.41A10.543 10.543 0 013.612 75.552V14.143A10.543 10.543 0 0114.143 3.612h61.41a10.543 10.543 0 0110.531 10.531v61.409a10.543 10.543 0 01-10.531 10.531zM14.143 6.612a7.539 7.539 0 00-7.531 7.531v61.409a7.539 7.539 0 007.531 7.531h61.41a7.539 7.539 0 007.531-7.531V14.143a7.539 7.539 0 00-7.531-7.531z"/><path data-name="パス 1720" d="M69.353 78.045H20.239a8.309 8.309 0 01-8.3-8.3v-49.8a8.309 8.309 0 018.3-8.3h49.8a8.309 8.309 0 018.3 8.3v39.154a3.3 3.3 0 01-.971 2.349l-8.989 8.989a3.3 3.3 0 01-2.349.971H23.559a4.984 4.984 0 01-4.98-4.98V23.266a4.984 4.984 0 014.98-4.98h43.162a4.984 4.984 0 014.981 4.98v32.513a3.3 3.3 0 01-.972 2.349l-4.98 4.98a3.322 3.322 0 01-4.694 0l-5.934-5.931a1.661 1.661 0 112.349-2.349l5.935 5.931 4.98-4.98V23.266a1.681 1.681 0 00-1.66-1.66H23.559a1.66 1.66 0 00-1.66 1.66v43.163a1.66 1.66 0 001.66 1.66h42.474l8.99-8.989V19.945a4.984 4.984 0 00-4.981-4.98H20.239a4.984 4.984 0 00-4.98 4.98v49.8a4.984 4.984 0 004.98 4.98h49.114l12.8-12.8a1.661 1.661 0 112.349 2.349l-12.8 12.8a3.3 3.3 0 01-2.349.971z"/><path data-name="パス 1721" d="M55.101 58.129H35.179a3.325 3.325 0 01-3.321-3.32V34.887a3.325 3.325 0 013.321-3.32H55.1a3.325 3.325 0 013.32 3.32v19.921a3.325 3.325 0 01-3.319 3.321zM35.179 34.887v19.921H55.1V34.887z"/><path data-name="パス 1721 - アウトライン" d="M55.101 58.629H35.179a3.825 3.825 0 01-3.821-3.82V34.887a3.825 3.825 0 013.821-3.82H55.1a3.825 3.825 0 013.82 3.82v19.921a3.825 3.825 0 01-3.819 3.821zM35.179 32.067a2.824 2.824 0 00-2.821 2.82v19.921a2.824 2.824 0 002.821 2.82H55.1a2.823 2.823 0 002.82-2.82V34.887a2.823 2.823 0 00-2.82-2.82zM55.6 55.308H34.679V34.387H55.6zm-19.921-1H54.6V35.387H35.679z"/></g></svg>