<svg xmlns="http://www.w3.org/2000/svg" width="83.382" height="90.557"><g data-name="グループ 3752"><path data-name="パス 1117" d="M26.696 0H15.717v17.857H8.246l12.961 12.075 12.96-12.075h-7.471z" fill="#e91313"/><path data-name="パス 1104" d="M21.572 37.556C9.657 37.556 0 42.256 0 48.063v5.611c0 5.8 9.657 10.507 21.572 10.507s21.569-4.7 21.569-10.507v-5.611c0-5.807-9.657-10.507-21.569-10.507zm0 4.363c10.5 0 17.2 4.033 17.2 6.144s-6.7 6.144-17.2 6.144-17.206-4.033-17.206-6.144 6.699-6.144 17.206-6.144z" fill="#f3b2b2"/><path data-name="パス 1107" d="M29.496 79.783a41.252 41.252 0 01-7.927.733C9.66 80.516 0 75.816 0 70.007v-6.6a.2.2 0 01.188-.2.159.159 0 01.185.107c-.053-.066-.119-.132.106.386 2.088 4.749 10.735 8.3 21.09 8.3 1.022 0 2.047-.041 3.031-.107a30.2 30.2 0 004.896 7.89z" fill="#f3b2b2"/><path data-name="パス 1116" d="M52.77 33.338A26.609 26.609 0 1079.382 59.95 26.607 26.607 0 0052.77 33.338z" fill="#f8f8f8"/><path data-name="パス 1116 - アウトライン" d="M52.77 33.338A26.609 26.609 0 1079.382 59.95 26.607 26.607 0 0052.77 33.341m0-4a30.522 30.522 0 11-11.916 2.407 30.424 30.424 0 0111.916-2.41z" fill="#f8f8f8"/><path data-name="パス 1108" d="M61.103 58.234H55.36l-.614.956v2.3h6.357v3.262h-6.357v4.926h-3.949v-4.926H44.44V61.49h6.357v-2.293l-.616-.961h-5.74v-2.788h3.949l-3.356-5.22h3.346l4.393 6.834 4.393-6.834h3.348l-3.356 5.22h3.947z" fill="#f3b2b2"/><path data-name="パス 1109" d="M52.77 39.989A19.958 19.958 0 1132.814 59.95 19.982 19.982 0 0152.77 39.992m0-6.651A26.609 26.609 0 1079.382 59.95 26.607 26.607 0 0052.77 33.338z" fill="#f3b2b2"/><path data-name="パス 1109 - アウトライン" d="M52.77 33.338A26.609 26.609 0 1079.382 59.95 26.607 26.607 0 0052.77 33.341m0 46.568A19.958 19.958 0 1172.728 59.95 19.982 19.982 0 0152.77 79.908m0-50.568a30.522 30.522 0 11-11.916 2.407 30.424 30.424 0 0111.916-2.409zm0 46.568A15.958 15.958 0 1036.814 59.95 15.976 15.976 0 0052.77 75.906z" fill="#f8f8f8"/></g></svg>