<svg xmlns="http://www.w3.org/2000/svg" width="79.382" height="83.121"><g data-name="グループ 3047" fill="#aaa"><path data-name="パス 1115" d="M21.572 0C9.657 0 0 4.7 0 10.507v5.611c0 5.8 9.657 10.507 21.572 10.507s21.569-4.7 21.569-10.507v-5.611C43.141 4.7 33.484 0 21.572 0zm0 4.363c10.5 0 17.2 4.033 17.2 6.144s-6.7 6.144-17.2 6.144-17.206-4.033-17.206-6.144 6.699-6.144 17.206-6.144z"/><path data-name="パス 1112" d="M21.569 35.067a40.115 40.115 0 0010.933-1.451 30.427 30.427 0 00-7.394 9.832 43.333 43.333 0 01-3.539.147C9.66 43.595 0 38.884 0 33.083v-6.6a.214.214 0 01.188-.213.133.133 0 01.145.066c-.025 0 0 .076.147.436 2.087 4.743 10.734 8.295 21.089 8.295z"/><path data-name="パス 1114" d="M22.165 56.512a28.112 28.112 0 00.251 3.805c-.276.015-.558.015-.847.015C9.66 60.332 0 55.632 0 49.832v-6.605a.215.215 0 01.188-.2.188.188 0 01.183.1c-.051-.066-.1-.1.109.406 2.088 4.733 10.735 8.29 21.09 8.29.32 0 .652 0 .969-.03a29.05 29.05 0 00-.374 4.719z"/><path data-name="パス 1113" d="M29.496 76.348a41.252 41.252 0 01-7.927.733C9.66 77.081 0 72.381 0 66.572v-6.6a.2.2 0 01.188-.2.159.159 0 01.185.107c-.053-.066-.119-.132.106.386 2.088 4.749 10.735 8.3 21.09 8.3 1.022 0 2.047-.041 3.031-.107a30.2 30.2 0 004.896 7.89z"/><path data-name="パス 1111" d="M61.103 54.799H55.36l-.614.956v2.3h6.357v3.262h-6.357v4.926h-3.949v-4.926H44.44v-3.262h6.357v-2.293l-.616-.961h-5.74v-2.788h3.949l-3.356-5.22h3.346l4.393 6.834 4.393-6.834h3.348l-3.356 5.22h3.947z"/><path data-name="パス 1110" d="M52.77 36.554a19.958 19.958 0 11-19.956 19.961A19.982 19.982 0 0152.77 36.557m0-6.651a26.609 26.609 0 1026.612 26.609A26.607 26.607 0 0052.77 29.903z"/></g></svg>