<svg xmlns="http://www.w3.org/2000/svg" width="112.008" height="81.128"><g data-name="グループ 4026"><g data-name="グループ 3762"><g fill="#e91313"><path data-name="パス 1148" d="M104.989 7.017a23.958 23.958 0 107.019 16.943 23.891 23.891 0 00-7.019-16.943zm-3.13 30.752a19.53 19.53 0 115.72-13.81 19.463 19.463 0 01-5.72 13.81z"/><path data-name="パス 1149" d="M87.645 18.188a3.624 3.624 0 10-3.624-3.624 3.626 3.626 0 003.624 3.624z"/><path data-name="パス 1150" d="M92.089 33.955h-.492a.913.913 0 01-.914-.912V20.284a.478.478 0 00-.7-.423l-6.228 3.462c-1.812.906-.942 1.988-.268 1.96s2.684-.226 2.684-.226v7.987a.913.913 0 01-.914.912h-.967a.458.458 0 00-.457.457v1.992a.458.458 0 00.457.457h7.8a.457.457 0 00.457-.457v-1.992a.457.457 0 00-.458-.458z"/></g><path data-name="パス 1151" d="M70.105 31.878l-.985 10.76 10.76-.985" fill="#f7f7f7"/><path data-name="パス 1151 - アウトライン" d="M66.913 44.848l1.2-13.152 3.983.368-.765 8.363 8.366-.763.365 3.983z" fill="#e91313"/></g><g data-name="グループ 3913" fill="#f2b1b1"><path data-name="パス 1719" d="M45.322 79.625H8.982A7.49 7.49 0 011.5 72.147v-36.34a7.49 7.49 0 017.482-7.482h36.34a7.49 7.49 0 017.482 7.482v36.34a7.49 7.49 0 01-7.482 7.478zM8.982 30.459a5.349 5.349 0 00-5.344 5.344v36.34a5.349 5.349 0 005.344 5.344h36.34a5.349 5.349 0 005.344-5.344v-36.34a5.349 5.349 0 00-5.344-5.344z"/><path data-name="パス 1719 - アウトライン" d="M45.322 81.125H8.982A8.992 8.992 0 010 72.143v-36.34a8.992 8.992 0 018.982-8.982h36.34a8.992 8.992 0 018.982 8.982v36.34a8.992 8.992 0 01-8.982 8.982zM8.982 31.959a3.848 3.848 0 00-3.844 3.844v36.34a3.848 3.848 0 003.844 3.844h36.34a3.848 3.848 0 003.844-3.844v-36.34a3.849 3.849 0 00-3.844-3.844z"/><path data-name="パス 1720" d="M41.653 73.629H12.589a4.917 4.917 0 01-4.912-4.916V39.241a4.917 4.917 0 014.912-4.912H42.06a4.917 4.917 0 014.912 4.912v23.17a1.952 1.952 0 01-.575 1.39l-5.32 5.32a1.952 1.952 0 01-1.39.575H14.554a2.949 2.949 0 01-2.947-2.947V41.206a2.949 2.949 0 012.947-2.947h25.542a2.95 2.95 0 012.947 2.947v19.24a1.952 1.952 0 01-.575 1.39l-2.947 2.947a1.966 1.966 0 01-2.778 0l-3.512-3.51a.983.983 0 111.39-1.39l3.512 3.51 2.947-2.947v-19.24a1 1 0 00-.982-.982H14.554a.982.982 0 00-.982.982v25.542a.982.982 0 00.982.982h25.135l5.32-5.32V39.24a2.95 2.95 0 00-2.947-2.947H12.589a2.949 2.949 0 00-2.947 2.947v29.472a2.949 2.949 0 002.947 2.947h29.064l7.572-7.572a.983.983 0 011.39 1.39l-7.572 7.572a1.953 1.953 0 01-1.39.58z"/><path data-name="パス 1721" d="M33.219 61.835H21.431a1.968 1.968 0 01-1.965-1.964V48.082a1.968 1.968 0 011.965-1.965H33.22a1.968 1.968 0 011.965 1.965v11.789a1.968 1.968 0 01-1.966 1.964zM21.43 48.081V59.87h11.789V48.082z"/><path data-name="パス 1721 - アウトライン" d="M33.219 62.335H21.431a2.468 2.468 0 01-2.465-2.465V48.082a2.468 2.468 0 012.465-2.465H33.22a2.468 2.468 0 012.465 2.465v11.789a2.468 2.468 0 01-2.466 2.464zM21.431 46.617a1.467 1.467 0 00-1.465 1.465v11.789a1.467 1.467 0 001.465 1.465H33.22a1.466 1.466 0 001.465-1.465V48.082a1.466 1.466 0 00-1.465-1.465zM33.72 60.371H20.931V47.582H33.72zm-11.789-1H32.72V48.582H21.931z"/></g></g></svg>