<svg xmlns="http://www.w3.org/2000/svg" width="63.846" height="83"><g data-name="グループ 4023"><path data-name="パス 1088" d="M58.422 0H5.428A5.43 5.43 0 000 5.431v72.138A5.43 5.43 0 005.428 83h52.994a5.429 5.429 0 005.428-5.431V5.431A5.429 5.429 0 0058.422 0zM32.561 79.593a2.342 2.342 0 112.341-2.343 2.34 2.34 0 01-2.341 2.343zm24.9-8.085H6.386V6.383h51.075v65.125z" fill="#f3b2b2"/><path data-name="パス 1125" d="M32 23.387a10.847 10.847 0 00-10.848 10.848C21.152 40.35 32 55.612 32 55.612S42.848 40.35 42.848 34.235A10.847 10.847 0 0032 23.387zm0 14.6a3.749 3.749 0 113.749-3.749A3.749 3.749 0 0132 37.987z" fill="#e91313"/></g></svg>