<svg xmlns="http://www.w3.org/2000/svg" width="116.805" height="105.794"><g data-name="グループ 3740"><g data-name="グループ 3738"><path data-name="パス 1088" d="M100.07 45.597H83.137a1.735 1.735 0 00-1.735 1.735v23.053a1.735 1.735 0 001.735 1.735h16.933a1.735 1.735 0 001.735-1.735V47.332a1.735 1.735 0 00-1.735-1.735zm-.306 22.851H83.443V47.637h16.321v20.811z" fill="#f3b2b2"/><g data-name="タブレットのアイコン素材4"><path data-name="パス 1088" d="M85.07 77.018H68.137a1.735 1.735 0 00-1.735 1.735v23.053a1.735 1.735 0 001.735 1.735H85.07a1.735 1.735 0 001.735-1.735V78.753a1.735 1.735 0 00-1.735-1.735zm-.306 22.851H68.443V79.058h16.321v20.811z" fill="#f3b2b2"/></g><g data-name="タブレットのアイコン素材4"><path data-name="パス 1088" d="M115.07 77.018H98.137a1.735 1.735 0 00-1.735 1.735v23.053a1.735 1.735 0 001.735 1.735h16.933a1.735 1.735 0 001.735-1.735V78.753a1.735 1.735 0 00-1.735-1.735zm-.306 22.851H98.443V79.058h16.321v20.811z" fill="#f3b2b2"/></g></g><g data-name="グループ 3739"><g data-name="タブレットのアイコン素材4"><path data-name="パス 1088" d="M42.368 45.597H3.937A3.939 3.939 0 000 49.536v52.319a3.938 3.938 0 003.937 3.942h38.431a3.937 3.937 0 003.937-3.939V49.536a3.937 3.937 0 00-3.937-3.939zm-18.753 57.726a1.7 1.7 0 111.7-1.7 1.7 1.7 0 01-1.7 1.7zm18.058-5.864H4.631V50.226h37.042v47.233z" fill="#f3b2b2"/></g><g fill="#e91313"><path data-name="パス 1127" d="M16.239 32.091l1.153 2.85a13.96 13.96 0 0110.817.166l1.234-2.818a17.041 17.041 0 00-13.204-.198z"/><path data-name="パス 1127 - アウトライン" d="M15.588 31.815l.466-.184a17.541 17.541 0 0113.594.205l.458.201-1.639 3.736-.458-.201a13.488 13.488 0 00-10.429-.16l-.464.187zm13.194.74a16.623 16.623 0 00-11.89-.181l.78 1.924a14.51 14.51 0 0110.277.157z"/><path data-name="パス 1128" d="M10.573 25.262l1.449 2.711a22.575 22.575 0 0121.55.203l1.498-2.681a25.647 25.647 0 00-24.497-.233z"/><path data-name="パス 1128 - アウトライン" d="M9.896 25.056l.442-.236a26.148 26.148 0 0124.974.235l.437.243-1.984 3.56-.437-.244a22.2 22.2 0 00-21.074-.197l-.442.237zm24.49.634a24.985 24.985 0 00-23.132-.22l.98 1.827a23.082 23.082 0 0121.146.2z"/><path data-name="パス 1129" d="M5.06 18.49l1.58 2.637a31.208 31.208 0 0132.314.212l1.614-2.615A34.283 34.283 0 005.06 18.49z"/><path data-name="パス 1129 - アウトライン" d="M4.374 18.317l.429-.257a34.783 34.783 0 0136.027.24l.426.264-2.14 3.467-.423-.264a30.883 30.883 0 00-31.797-.21l-.43.256zm35.5.572a33.575 33.575 0 00-34.125-.226l1.07 1.777a31.716 31.716 0 0131.974.213z"/></g></g></g></svg>