<svg xmlns="http://www.w3.org/2000/svg" width="117.228" height="80"><g data-name="グループ 4022" fill="#aaa"><text data-name="？" transform="translate(27 63)" font-size="54" font-family="NotoSansCJKjp-Bold, Noto Sans CJK JP" font-weight="700"><tspan x="-27" y="0">？</tspan></text><path data-name="パス 2397" d="M98.625 28.876a1.84 1.84 0 001.837-1.837V17.013a1.84 1.84 0 00-1.837-1.837H70.853a1.84 1.84 0 00-1.837 1.837v10.01a1.84 1.84 0 001.837 1.837h27.772zM70.884 17.044h27.709v9.963H70.884z"/><path data-name="パス 2397 - アウトライン" d="M98.625 29.125h-.25v-.016H70.853a2.089 2.089 0 01-2.087-2.087V17.013a2.089 2.089 0 012.087-2.087h27.772a2.089 2.089 0 012.087 2.087v10.025a2.089 2.089 0 01-2.087 2.087zm-27.772-13.7a1.589 1.589 0 00-1.587 1.587v10.01a1.589 1.589 0 001.587 1.587h27.994a1.589 1.589 0 001.369-1.571V17.013a1.589 1.589 0 00-1.587-1.587zm27.991 11.831h-28.21V16.794h28.209zm-27.709-.5h27.209v-9.462h-27.21z"/><path data-name="パス 2398" d="M115.499 38.527h-.934v-7.083a.934.934 0 10-1.868 0v7.083h-.934a1.478 1.478 0 00-1.479 1.479v24.611a1.478 1.478 0 001.479 1.479h.936v3.985a3.614 3.614 0 01-3.612 3.612H97.239a1.316 1.316 0 01-1.308-1.308v-1.883h5.9a3.262 3.262 0 003.254-3.254V12.717a3.262 3.262 0 00-3.254-3.254H67.646a3.262 3.262 0 00-3.254 3.254v54.5a3.262 3.262 0 003.254 3.254h5.9v1.884a1.316 1.316 0 01-1.308 1.308H60.392a3.614 3.614 0 01-3.612-3.612v-3.988h.934a1.478 1.478 0 001.479-1.479V40.006a1.478 1.478 0 00-1.479-1.479h-.934v-7.083a.934.934 0 10-1.868 0v7.083h-.934a1.478 1.478 0 00-1.479 1.479v24.611a1.478 1.478 0 001.479 1.479h.934v3.985a5.488 5.488 0 005.48 5.48h11.846a3.179 3.179 0 003.176-3.176v-1.883h18.649v1.884a3.179 3.179 0 003.176 3.177h11.846a5.488 5.488 0 005.48-5.48v-3.987h.934a1.478 1.478 0 001.479-1.479V40.006a1.488 1.488 0 00-1.479-1.479zm-58.174 1.868v2.693h-2.958v-2.693zm-2.958 4.561h2.958v19.256h-2.958zm21.047 23.662v-2.646a3.425 3.425 0 10-1.868 0v2.646h-5.9a1.389 1.389 0 01-1.385-1.385V12.717a1.389 1.389 0 011.385-1.385h34.185a1.389 1.389 0 011.385 1.385v54.5a1.389 1.389 0 01-1.385 1.385h-5.9v-2.646a3.425 3.425 0 10-1.868 0v2.646H75.414zm-.934-4.39a1.557 1.557 0 111.557-1.557 1.561 1.561 0 01-1.557 1.557zm20.517 0a1.557 1.557 0 111.557-1.557 1.561 1.561 0 01-1.555 1.557zm20.113-23.833v2.693h-2.958v-2.693zm-2.958 23.817V44.956h2.958v19.256z"/><path data-name="パス 2398 - アウトライン" d="M67.646 9.213h34.185a3.507 3.507 0 013.5 3.5v54.535a3.507 3.507 0 01-3.5 3.5h-5.65v1.634a1.072 1.072 0 001.058 1.061h11.846a3.365 3.365 0 003.362-3.362v-3.735h-.684a1.731 1.731 0 01-1.729-1.729V40.006a1.731 1.731 0 011.729-1.729h.684v-6.833a1.184 1.184 0 112.368 0v6.833h.684a1.731 1.731 0 011.729 1.729v24.611a1.731 1.731 0 01-1.729 1.729h-.684v3.735a5.736 5.736 0 01-5.73 5.73H97.239a3.43 3.43 0 01-3.426-3.426v-1.633H75.664v1.634a3.43 3.43 0 01-3.426 3.426H60.392a5.736 5.736 0 01-5.73-5.73v-3.736h-.684a1.731 1.731 0 01-1.729-1.729V40.006a1.731 1.731 0 011.729-1.729h.684v-6.833a1.184 1.184 0 112.368 0v6.833h.684a1.731 1.731 0 011.729 1.729v24.58a1.731 1.731 0 01-1.729 1.729h-.684v3.735a3.365 3.365 0 003.362 3.362h11.846a1.072 1.072 0 001.061-1.058V70.72h-5.65a3.507 3.507 0 01-3.5-3.5v-54.5a3.507 3.507 0 013.497-3.507zm34.185 61.039a3.007 3.007 0 003-3V12.717a3.007 3.007 0 00-3-3H67.646a3.007 3.007 0 00-3 3v54.5a3.007 3.007 0 003 3h6.153v2.134a1.559 1.559 0 01-1.558 1.558H60.392a3.866 3.866 0 01-3.862-3.862v-4.232h1.184a1.23 1.23 0 001.229-1.229v-24.58a1.23 1.23 0 00-1.229-1.229H56.53v-7.333a.684.684 0 10-1.368 0v7.333h-1.184a1.23 1.23 0 00-1.229 1.229v24.611a1.23 1.23 0 001.229 1.229h1.184v4.235a5.236 5.236 0 005.23 5.23h11.846a2.929 2.929 0 002.926-2.926v-2.133h19.149v2.134a2.929 2.929 0 002.926 2.926h11.846a5.236 5.236 0 005.23-5.23v-4.236h1.184a1.23 1.23 0 001.229-1.229V40.006a1.245 1.245 0 00-1.229-1.229h-1.184v-7.333a.684.684 0 10-1.368 0v7.333h-1.184a1.23 1.23 0 00-1.229 1.229v24.611a1.23 1.23 0 001.229 1.229h1.184v4.235a3.866 3.866 0 01-3.862 3.862H97.239a1.559 1.559 0 01-1.558-1.558v-2.133zM67.646 11.081h34.185a1.637 1.637 0 011.635 1.635v54.5a1.637 1.637 0 01-1.635 1.635h-6.15v-3.088l.182-.051a3.175 3.175 0 10-1.73 0l.18.053v3.084h-18.9v-.234h-.25v-2.833l.182-.051a3.175 3.175 0 10-1.73 0l.18.053v3.079h-6.15a1.637 1.637 0 01-1.635-1.635V12.717a1.637 1.637 0 011.636-1.636zm34.185 57.271a1.137 1.137 0 001.135-1.135v-54.5a1.137 1.137 0 00-1.135-1.135H67.646a1.137 1.137 0 00-1.135 1.135v54.515a1.137 1.137 0 001.135 1.131h5.653v-2.209a3.769 3.769 0 01-1.73-1.248 3.631 3.631 0 01-.76-2.235 3.675 3.675 0 114.859 3.484v2.2h18.145v-2.217a3.769 3.769 0 01-1.73-1.248 3.631 3.631 0 01-.76-2.235 3.675 3.675 0 114.859 3.484v2.212zM54.117 40.145h3.458v3.193h-3.458zm2.958.5h-2.458v2.193h2.458zm54.827-.5h3.458v3.193h-3.461zm2.958.5h-2.461v2.193h2.458zm-60.743 4.061h3.458v19.757h-3.458zm2.958.5h-2.458v18.757h2.458zm54.827-.5h3.458v19.757h-3.461zm2.958.5h-2.461v18.757h2.458zM74.48 60.863a1.807 1.807 0 11-1.807 1.807 1.809 1.809 0 011.807-1.807zm0 3.113a1.307 1.307 0 10-1.307-1.307 1.308 1.308 0 001.307 1.309zm20.519-3.113a1.807 1.807 0 11-1.807 1.807 1.809 1.809 0 011.807-1.807zm0 3.113a1.307 1.307 0 10-1.307-1.307 1.308 1.308 0 001.307 1.309z"/><path data-name="パス 2399" d="M95.37 56.522a.922.922 0 00.654.28.9.9 0 00.654-.28.949.949 0 000-1.323l-1.152-1.152a14.385 14.385 0 10-1.308 1.308zm-18.369-3.331a11.554 11.554 0 007.114 2.958v1.526a13.151 13.151 0 01-8.2-3.409zm7.737 1.105a9.751 9.751 0 117.5-3.549l-6.846-6.849a.936.936 0 10-1.323 1.323l6.85 6.85a9.683 9.683 0 01-6.181 2.227zm7.737-18.354a11.554 11.554 0 00-7.114-2.958v-1.526a13.151 13.151 0 018.2 3.409zm-8.36-2.958a11.517 11.517 0 00-7.114 2.958l-1.074-1.09a13.151 13.151 0 018.2-3.409v1.541zm9.449 19.085a11.535 11.535 0 002.755-6.881h1.526a13.1 13.1 0 01-3.191 7.97zm4.281-8.126H96.32a11.517 11.517 0 00-2.958-7.114l1.074-1.09a13.065 13.065 0 013.41 8.205zm-22.821-8.2l1.074 1.09a11.554 11.554 0 00-2.958 7.114h-1.526a13.151 13.151 0 013.411-8.207zm-3.394 9.449h1.526a11.517 11.517 0 002.958 7.114l-1.09 1.09a13.05 13.05 0 01-3.393-8.207zm13.73 12.485v-1.529a11.5 11.5 0 006.881-2.755l1.09 1.09a13.1 13.1 0 01-7.97 3.191z"/><path data-name="パス 2399 - アウトライン" d="M84.738 59.185a14.635 14.635 0 1111.132-5.151l.991.992a1.2 1.2 0 010 1.669 1.153 1.153 0 01-.834.357 1.172 1.172 0 01-.831-.353l-.989-1a14.622 14.622 0 01-9.469 3.486zm0-28.737a14.118 14.118 0 109.315 24.718l.177-.155 1.318 1.335a.675.675 0 00.476.206.644.644 0 00.47-.2l.007-.008a.7.7 0 000-.971l-1.316-1.316.154-.176a14.111 14.111 0 00-10.6-23.434zm-.373 27.489l-.262-.013a13.461 13.461 0 01-8.36-3.474l-.2-.178 1.445-1.424.175.156a11.368 11.368 0 006.96 2.894l.237.012zm-8.088-3.681a12.963 12.963 0 007.593 3.153v-1.025a11.875 11.875 0 01-6.854-2.852zm8.834 3.68v-2.024l.237-.013a11.316 11.316 0 006.731-2.7l.176-.151 1.444 1.444-.2.176a13.469 13.469 0 01-3.727 2.286 13.24 13.24 0 01-4.395.966zm.5-1.553v1.027a12.946 12.946 0 007.351-2.942l-.735-.735a11.827 11.827 0 01-6.616 2.65zm-.873-1.837a10 10 0 117.7-3.64l-.175.212-7.044-7.044a.672.672 0 00-.479-.2.711.711 0 00-.493.2.7.7 0 000 .97l7.042 7.042-.212.175a10 10 0 01-6.339 2.285zm0-19.459a9.479 9.479 0 105.806 16.962l-6.656-6.656a1.2 1.2 0 010-1.673 1.209 1.209 0 01.84-.338 1.168 1.168 0 01.833.342l6.652 6.652a9.469 9.469 0 00-7.483-15.285zm-9.723 18.668l-.176-.194a13.356 13.356 0 01-3.458-8.361l-.012-.261h2.024l.012.237a11.3 11.3 0 002.894 6.96l.159.176zm-3.121-8.316a12.859 12.859 0 003.14 7.59l.736-.736a11.8 11.8 0 01-2.85-6.854zm22.773 8.087l-1.443-1.443.15-.176a11.236 11.236 0 002.7-6.732l.013-.237h2.024l-.012.262a13.24 13.24 0 01-.966 4.395 13.468 13.468 0 01-2.286 3.727zm-.765-1.472l.736.736a12.946 12.946 0 002.942-7.351h-1.026a11.721 11.721 0 01-2.651 6.616zm4.2-7.861h-2.024l-.012-.237a11.3 11.3 0 00-2.894-6.96l-.158-.175 1.425-1.446.178.2a13.365 13.365 0 013.474 8.361zm-1.552-.5h1.026a12.869 12.869 0 00-3.154-7.588l-.723.733a11.8 11.8 0 012.856 6.86zm-23.177.5h-2.026l.013-.262a13.461 13.461 0 013.474-8.36l.178-.2 1.424 1.445-.156.175a11.368 11.368 0 00-2.894 6.96zm-1.5-.5h1.025a11.875 11.875 0 012.852-6.854l-.724-.734a12.963 12.963 0 00-3.145 7.593zm5.111-7.406l-1.425-1.446.193-.175a13.461 13.461 0 018.36-3.474l.262-.013v2.054h-.259a11.3 11.3 0 00-6.953 2.893zm-.7-1.424l.723.734a11.8 11.8 0 016.868-2.85v-1.04a12.963 12.963 0 00-7.585 3.157zm16.193 1.421l-.175-.156a11.368 11.368 0 00-6.96-2.894l-.237-.012v-2.024l.262.013a13.461 13.461 0 018.36 3.474l.2.178zm-6.872-3.536a11.875 11.875 0 016.865 2.85l.734-.724a12.963 12.963 0 00-7.588-3.153z"/></g></svg>