<svg xmlns="http://www.w3.org/2000/svg" width="164.432" height="72.874"><g data-name="グループ 3737"><g data-name="グループ 3736" fill="#e91313"><g opacity=".301"><path data-name="パス 1094" d="M13.449 64.549h83.759a5.139 5.139 0 005.124-5.12V5.12A5.137 5.137 0 0097.208 0H13.449a5.135 5.135 0 00-5.124 5.12v54.308a5.137 5.137 0 005.124 5.121zm1.539-57.893h80.685v51.231H14.987z"/><path data-name="パス 1095" d="M0 67.493v1.282a4.111 4.111 0 004.1 4.1h101.18a4.111 4.111 0 004.1-4.1v-1.282z"/></g><path data-name="パス 1118" d="M65.447 36.518a13.148 13.148 0 10-4.115 4.115l8.751 8.748 4.112-4.113zm-5.144-1.029a8.454 8.454 0 110-11.957 8.463 8.463 0 010 11.957z"/></g><g data-name="グループ 3735"><path data-name="パス 1088" d="M160.347 4.202h-39.883a4.087 4.087 0 00-4.086 4.087v54.3a4.087 4.087 0 004.085 4.087h39.883a4.086 4.086 0 004.085-4.087v-54.3a4.086 4.086 0 00-4.084-4.087zm-19.461 59.906a1.763 1.763 0 111.762-1.763 1.762 1.762 0 01-1.762 1.763zm18.74-6.085h-38.442V9.002h38.442v49.021z" fill="#e91313" opacity=".301"/><g data-name="虫眼鏡アイコン11"><path data-name="パス 1118" d="M145.963 35.486a9.419 9.419 0 10-2.948 2.948l6.266 6.266 2.949-2.95zm-3.682-.736a6.056 6.056 0 110-8.565 6.062 6.062 0 010 8.565z" fill="#e91313"/></g></g></g></svg>