<svg xmlns="http://www.w3.org/2000/svg" width="124.41" height="82.889"><g data-name="グループ 4025" fill="#e91313"><g opacity=".301"><path data-name="パス 1094" d="M15.3 73.42h95.27a5.845 5.845 0 005.828-5.824V5.824A5.843 5.843 0 00110.57 0H15.3a5.84 5.84 0 00-5.828 5.824v61.772A5.843 5.843 0 0015.3 73.42zm1.75-65.85h91.773v58.272H17.047z"/><path data-name="パス 1095" d="M0 76.769v1.458a4.676 4.676 0 004.662 4.667h115.085a4.676 4.676 0 004.662-4.662v-1.458z"/></g><path data-name="パス 1125" d="M62.516 19.392a11.964 11.964 0 00-11.965 11.965c0 6.745 11.965 23.579 11.965 23.579s11.965-16.834 11.965-23.579a11.964 11.964 0 00-11.965-11.965zm0 16.1a4.135 4.135 0 114.135-4.135 4.135 4.135 0 01-4.135 4.135z"/></g></svg>