<svg xmlns="http://www.w3.org/2000/svg" width="16" height="16"><defs><clipPath id="a"><path transform="translate(48 2109)" fill="#fff" stroke="#707070" d="M0 0h16v16H0z"/></clipPath></defs><g transform="translate(-48 -2109)" clip-path="url(#a)"><path fill="#f2f2f2" d="M48 2109h16v16H48z"/><path fill="none" stroke="#fff" opacity=".8" d="M48 2109.5h1200m-1200 16h1200"/><path fill="none" stroke="#fff" d="M26.5 2083.527l-880 879m896-879l-880 879m896-879l-880 879m896-879l-880 879m896-879l-880 879m896-879l-880 879m896-879l-880 879m896-879l-880 879m896-879l-880 879m896-879l-880 879m896-879l-880 879m896-879l-880 879m896-879l-880 879m896-879l-880 879m896-879l-880 879m896-879l-880 879m896-879l-880 879m896-879l-880 879m896-879l-880 879m896-879l-880 879m896-879l-880 879m896-879l-880 879m896-879l-880 879m896-879l-880 879m896-879l-880 879m896-879l-880 879m896-879l-880 879m896-879l-880 879"/></g></svg>