<svg xmlns="http://www.w3.org/2000/svg" width="37.129" height="24.446"><path data-name="パス 1212" d="M14.749 12.17a33.071 33.071 0 00.578-3.791 10.442 10.442 0 00-.17-3.309 4.389 4.389 0 00-1.326-2.35 4.2 4.2 0 00-2.89-.884 5.431 5.431 0 00-3.128.9 8.3 8.3 0 00-2.3 2.4 15.761 15.761 0 00-1.632 3.4 30.67 30.67 0 00-1.071 3.876 30.547 30.547 0 00-.6 4.2 9.063 9.063 0 00.289 3.213 3.9 3.9 0 001.394 2.057 4.482 4.482 0 002.72.731 5.606 5.606 0 003.3-.952 8.541 8.541 0 002.32-2.451 14.329 14.329 0 001.547-3.366 36.745 36.745 0 00.969-3.674zM11.417 0a7.187 7.187 0 012.941.527 4.862 4.862 0 011.887 1.443 5.5 5.5 0 011 2.142 11.937 11.937 0 01.306 2.6 18.852 18.852 0 01-.182 2.842q-.2 1.462-.51 2.856a33.666 33.666 0 01-1.311 4.56 15.1 15.1 0 01-2.04 3.842 9.414 9.414 0 01-3.026 2.648 8.7 8.7 0 01-4.267.986 6.542 6.542 0 01-3.859-.986 5.126 5.126 0 01-1.921-2.669 10.6 10.6 0 01-.408-3.91 30.823 30.823 0 01.68-4.709 35 35 0 011.241-4.454 15.213 15.213 0 012.006-3.893 9.8 9.8 0 013.06-2.771A8.644 8.644 0 0111.417 0zm10.132 7.854a10.625 10.625 0 011.22-3.213 9.442 9.442 0 012.1-2.482 9.158 9.158 0 012.8-1.6 9.794 9.794 0 013.332-.561 8.048 8.048 0 013.077.527 5.035 5.035 0 012.006 1.411 4.5 4.5 0 01.952 2.108 6.459 6.459 0 01-.085 2.584 8.462 8.462 0 01-1.122 2.822 10.622 10.622 0 01-1.836 2.176 14.124 14.124 0 01-2.329 1.7q-1.275.748-2.567 1.411t-2.55 1.275a19.423 19.423 0 00-2.278 1.294q-.68.442-1.343.935a9.149 9.149 0 00-1.207 1.071 7.71 7.71 0 00-.969 1.275 6.128 6.128 0 00-.663 1.547h13.362l-.374 1.836H17.401a14.27 14.27 0 011.037-3.128 9.132 9.132 0 012.091-2.72 24.567 24.567 0 013.128-2.452q1.564-1.02 3.009-1.819t2.754-1.462a15.575 15.575 0 002.349-1.441 8.711 8.711 0 001.768-1.768 6.167 6.167 0 001.032-2.41 4.748 4.748 0 00.017-2.074 3.545 3.545 0 00-.8-1.564 3.563 3.563 0 00-1.462-.969 5.819 5.819 0 00-2.006-.323 5.344 5.344 0 00-2.261.493 7.209 7.209 0 00-1.938 1.309 7.6 7.6 0 00-1.462 1.9 7.279 7.279 0 00-.8 2.312z" fill="#e60011"/></svg>