<svg xmlns="http://www.w3.org/2000/svg" width="36.713" height="24.446"><path data-name="パス 1169" d="M14.749 12.17a33.071 33.071 0 00.578-3.791 10.442 10.442 0 00-.17-3.309 4.389 4.389 0 00-1.326-2.35 4.2 4.2 0 00-2.89-.884 5.431 5.431 0 00-3.128.9 8.3 8.3 0 00-2.3 2.4 15.761 15.761 0 00-1.632 3.4 30.67 30.67 0 00-1.071 3.876 30.547 30.547 0 00-.6 4.2 9.063 9.063 0 00.289 3.213 3.9 3.9 0 001.394 2.057 4.482 4.482 0 002.72.731 5.606 5.606 0 003.3-.952 8.541 8.541 0 002.32-2.451 14.329 14.329 0 001.547-3.366 36.745 36.745 0 00.969-3.674zM11.417 0a7.187 7.187 0 012.941.527 4.862 4.862 0 011.887 1.443 5.5 5.5 0 011 2.142 11.937 11.937 0 01.306 2.6 18.852 18.852 0 01-.182 2.842q-.2 1.462-.51 2.856a33.666 33.666 0 01-1.311 4.56 15.1 15.1 0 01-2.04 3.842 9.414 9.414 0 01-3.026 2.648 8.7 8.7 0 01-4.267.986 6.542 6.542 0 01-3.859-.986 5.126 5.126 0 01-1.921-2.669 10.6 10.6 0 01-.408-3.91 30.823 30.823 0 01.68-4.709 35 35 0 011.241-4.454 15.213 15.213 0 012.006-3.893 9.8 9.8 0 013.06-2.771A8.644 8.644 0 0111.417 0zm9.044 17.748a4.217 4.217 0 001.19 3.655 5.384 5.384 0 003.706 1.207 6.582 6.582 0 002.5-.476 7 7 0 002.091-1.309 7.822 7.822 0 001.547-1.938 8.247 8.247 0 00.9-2.4 6.97 6.97 0 00.1-2.448 4.227 4.227 0 00-.782-1.938 3.98 3.98 0 00-1.615-1.258 5.823 5.823 0 00-2.363-.442 7.751 7.751 0 00-3.043.595 8.557 8.557 0 00-2.7 1.887l-1.734-.238L24.814.235h11.9l-.375 1.835H26.275l-3.2 8.058q.782-.442 1.445-.748a9.293 9.293 0 011.309-.493 7.41 7.41 0 011.326-.255q.68-.068 1.5-.068a7.472 7.472 0 012.924.544 4.993 4.993 0 012.074 1.564 5.745 5.745 0 011.054 2.5 8.335 8.335 0 01-.138 3.318 10.1 10.1 0 01-1.358 3.38 10.5 10.5 0 01-2.21 2.5 9.2 9.2 0 01-2.754 1.549 8.861 8.861 0 01-2.958.527 13.066 13.066 0 01-3.094-.34 5.68 5.68 0 01-2.346-1.136 4.617 4.617 0 01-1.394-2.077 6.7 6.7 0 01-.17-3.145z" fill="#e60011"/></svg>