<svg xmlns="http://www.w3.org/2000/svg" width="36.327" height="24.446"><path data-name="パス 1219" d="M14.749 12.17a33.071 33.071 0 00.578-3.791 10.442 10.442 0 00-.17-3.309 4.389 4.389 0 00-1.326-2.35 4.2 4.2 0 00-2.89-.884 5.431 5.431 0 00-3.128.9 8.3 8.3 0 00-2.3 2.4 15.761 15.761 0 00-1.632 3.4 30.67 30.67 0 00-1.071 3.876 30.547 30.547 0 00-.6 4.2 9.063 9.063 0 00.289 3.213 3.9 3.9 0 001.394 2.057 4.482 4.482 0 002.72.731 5.606 5.606 0 003.3-.952 8.541 8.541 0 002.32-2.451 14.329 14.329 0 001.547-3.366 36.745 36.745 0 00.969-3.674zM11.417 0a7.187 7.187 0 012.941.527 4.862 4.862 0 011.887 1.443 5.5 5.5 0 011 2.142 11.937 11.937 0 01.306 2.6 18.852 18.852 0 01-.182 2.842q-.2 1.462-.51 2.856a33.666 33.666 0 01-1.311 4.56 15.1 15.1 0 01-2.04 3.842 9.414 9.414 0 01-3.026 2.648 8.7 8.7 0 01-4.267.986 6.542 6.542 0 01-3.859-.986 5.126 5.126 0 01-1.921-2.669 10.6 10.6 0 01-.408-3.91 30.823 30.823 0 01.68-4.709 35 35 0 011.241-4.454 15.213 15.213 0 012.006-3.893 9.8 9.8 0 013.06-2.771A8.644 8.644 0 0111.417 0zm14.688 10.642a19.761 19.761 0 002.822-.187 7.269 7.269 0 002.312-.714 5.2 5.2 0 001.717-1.411 5.548 5.548 0 001-2.278 3.909 3.909 0 000-1.921 2.694 2.694 0 00-.833-1.309 3.721 3.721 0 00-1.479-.748 7.3 7.3 0 00-1.9-.238 6.271 6.271 0 00-2.176.374 5.964 5.964 0 00-1.836 1.071 6.906 6.906 0 00-1.394 1.632 6.407 6.407 0 00-.817 2.057h-2.176a9.3 9.3 0 011.207-2.941 9.842 9.842 0 012.261-2.431A6.675 6.675 0 0127.618.289 15.478 15.478 0 0130.593 0a8.738 8.738 0 012.584.357 4.909 4.909 0 011.938 1.088 3.755 3.755 0 011.071 1.853 5.828 5.828 0 01-.017 2.618 7.607 7.607 0 01-1.513 3.23 7.118 7.118 0 01-3.043 2.108 4.911 4.911 0 011.9 1.071 4.072 4.072 0 01.986 1.462 4.665 4.665 0 01.31 1.683 8.316 8.316 0 01-.17 1.7 8.5 8.5 0 01-1.105 2.788 9.285 9.285 0 01-1.989 2.278 9.66 9.66 0 01-2.754 1.581 10.108 10.108 0 01-3.434.629 14.241 14.241 0 01-3.519-.376 4.825 4.825 0 01-2.295-1.239 4.335 4.335 0 01-1.122-2.278 11.934 11.934 0 01-.034-3.519h2.176a6.19 6.19 0 00-.068 2.4 3.582 3.582 0 00.85 1.751 3.962 3.962 0 001.666 1.068 7.088 7.088 0 002.346.357 7.211 7.211 0 002.5-.442 8.084 8.084 0 002.176-1.19 6.81 6.81 0 001.6-1.734 5.361 5.361 0 00.8-2.04 4.249 4.249 0 00-.14-2.434 3.222 3.222 0 00-1.326-1.53 5.867 5.867 0 00-2.278-.748 14.821 14.821 0 00-2.958-.085z" fill="#e60011"/></svg>