<svg xmlns="http://www.w3.org/2000/svg" width="27.131" height="35.384"><path data-name="パス 1192" d="M2.426 1.501C-.006 3.077-.483 8.001.435 12.022a36.284 36.284 0 004.8 11.276 37.682 37.682 0 008.339 8.979c3.294 2.476 7.989 4.05 10.42 2.474a12.312 12.312 0 003.139-3.367l-1.308-2.013-3.592-5.538c-.267-.412-1.941-.035-2.791.446a8.1 8.1 0 00-2.2 2.394c-.786.454-1.445 0-2.822-.632-1.692-.778-3.593-3.2-5.107-5.387-1.383-2.275-2.815-5-2.836-6.86-.017-1.515-.162-2.3.574-2.834a8.1 8.1 0 003.084-1.036c.787-.58 1.813-1.955 1.546-2.366L8.088 2.02 6.78.006a12.314 12.314 0 00-4.354 1.495z"/></svg>