<svg xmlns="http://www.w3.org/2000/svg" xmlns:xlink="http://www.w3.org/1999/xlink" width="60" height="60" viewBox="0 0 60 60"><defs><clipPath id="a"><rect width="60" height="60" transform="translate(0 1)" fill="none"/></clipPath><clipPath id="b"><rect width="281.714" height="87.7" fill="none"/></clipPath></defs><g transform="translate(0 -1)" clip-path="url(#a)"><g transform="translate(-8567.694 2845)"><rect width="200" height="77" transform="translate(8567.694 -2845)" fill="#89000b"/><g transform="translate(8626 -2845)"><g transform="translate(-58.305 0)" opacity="0.3" clip-path="url(#b)"><g transform="translate(42.857 -0.15)"><line x1="92" y2="92" transform="translate(-288.857 0.15)" fill="none" stroke="#e60011" stroke-width="1"/></g><g transform="translate(47.857 -0.15)"><line x1="92" y2="92" transform="translate(-288.857 0.15)" fill="none" stroke="#e60011" stroke-width="1"/></g><g transform="translate(52.857 -0.15)"><line x1="92" y2="92" transform="translate(-288.857 0.15)" fill="none" stroke="#e60011" stroke-width="1"/></g><g transform="translate(57.857 -0.15)"><line x1="92" y2="92" transform="translate(-288.857 0.15)" fill="none" stroke="#e60011" stroke-width="1"/></g><g transform="translate(62.857 -0.15)"><line x1="92" y2="92" transform="translate(-288.857 0.15)" fill="none" stroke="#e60011" stroke-width="1"/></g><g transform="translate(67.857 -0.15)"><line x1="92" y2="92" transform="translate(-288.857 0.15)" fill="none" stroke="#e60011" stroke-width="1"/></g><g transform="translate(72.857 -0.15)"><line x1="92" y2="92" transform="translate(-288.857 0.15)" fill="none" stroke="#e60011" stroke-width="1"/></g><g transform="translate(77.857 -0.15)"><line x1="92" y2="92" transform="translate(-288.857 0.15)" fill="none" stroke="#e60011" stroke-width="1"/></g><g transform="translate(82.857 -0.15)"><line x1="92" y2="92" transform="translate(-288.857 0.15)" fill="none" stroke="#e60011" stroke-width="1"/></g><g transform="translate(87.857 -0.15)"><line x1="92" y2="92" transform="translate(-288.857 0.15)" fill="none" stroke="#e60011" stroke-width="1"/></g><g transform="translate(92.857 -0.15)"><line x1="92" y2="92" transform="translate(-288.857 0.15)" fill="none" stroke="#e60011" stroke-width="1"/></g><g transform="translate(97.857 -0.15)"><line x1="92" y2="92" transform="translate(-288.857 0.15)" fill="none" stroke="#e60011" stroke-width="1"/></g><g transform="translate(102.857 -0.15)"><line x1="92" y2="92" transform="translate(-288.857 0.15)" fill="none" stroke="#e60011" stroke-width="1"/></g><g transform="translate(107.857 -0.15)"><line x1="92" y2="92" transform="translate(-288.857 0.15)" fill="none" stroke="#e60011" stroke-width="1"/></g><g transform="translate(112.857 -0.15)"><line x1="92" y2="92" transform="translate(-288.857 0.15)" fill="none" stroke="#e60011" stroke-width="1"/></g><g transform="translate(117.857 -0.15)"><line x1="92" y2="92" transform="translate(-288.857 0.15)" fill="none" stroke="#e60011" stroke-width="1"/></g><g transform="translate(122.857 -0.15)"><line x1="92" y2="92" transform="translate(-288.857 0.15)" fill="none" stroke="#e60011" stroke-width="1"/></g><g transform="translate(127.857 -0.15)"><line x1="92" y2="92" transform="translate(-288.857 0.15)" fill="none" stroke="#e60011" stroke-width="1"/></g><g transform="translate(132.857 -0.15)"><line x1="92" y2="92" transform="translate(-288.857 0.15)" fill="none" stroke="#e60011" stroke-width="1"/></g><g transform="translate(137.857 -0.15)"><line x1="92" y2="92" transform="translate(-288.857 0.15)" fill="none" stroke="#e60011" stroke-width="1"/></g><g transform="translate(142.857 -0.15)"><line x1="92" y2="92" transform="translate(-288.857 0.15)" fill="none" stroke="#e60011" stroke-width="1"/></g><g transform="translate(147.857 -0.15)"><line x1="92" y2="92" transform="translate(-288.857 0.15)" fill="none" stroke="#e60011" stroke-width="1"/></g><g transform="translate(152.857 -0.15)"><line x1="92" y2="92" transform="translate(-288.857 0.15)" fill="none" stroke="#e60011" stroke-width="1"/></g><g transform="translate(157.857 -0.15)"><line x1="92" y2="92" transform="translate(-288.857 0.15)" fill="none" stroke="#e60011" stroke-width="1"/></g><g transform="translate(162.857 -0.15)"><line x1="92" y2="92" transform="translate(-288.857 0.15)" fill="none" stroke="#e60011" stroke-width="1"/></g><g transform="translate(167.857 -0.15)"><line x1="92" y2="92" transform="translate(-288.857 0.15)" fill="none" stroke="#e60011" stroke-width="1"/></g><g transform="translate(172.857 -0.15)"><line x1="92" y2="92" transform="translate(-288.857 0.15)" fill="none" stroke="#e60011" stroke-width="1"/></g><g transform="translate(177.857 -0.15)"><line x1="92" y2="92" transform="translate(-288.857 0.15)" fill="none" stroke="#e60011" stroke-width="1"/></g><g transform="translate(182.857 -0.15)"><line x1="92" y2="92" transform="translate(-288.857 0.15)" fill="none" stroke="#e60011" stroke-width="1"/></g><g transform="translate(187.857 -0.15)"><line x1="92" y2="92" transform="translate(-288.857 0.15)" fill="none" stroke="#e60011" stroke-width="1"/></g><g transform="translate(192.857 -0.15)"><line x1="92" y2="92" transform="translate(-288.857 0.15)" fill="none" stroke="#e60011" stroke-width="1"/></g><g transform="translate(197.857 -0.15)"><line x1="92" y2="92" transform="translate(-288.857 0.15)" fill="none" stroke="#e60011" stroke-width="1"/></g><g transform="translate(202.857 -0.15)"><line x1="92" y2="92" transform="translate(-288.857 0.15)" fill="none" stroke="#e60011" stroke-width="1"/></g><g transform="translate(207.857 -0.15)"><line x1="92" y2="92" transform="translate(-288.857 0.15)" fill="none" stroke="#e60011" stroke-width="1"/></g><g transform="translate(212.857 -0.15)"><line x1="92" y2="92" transform="translate(-288.857 0.15)" fill="none" stroke="#e60011" stroke-width="1"/></g><g transform="translate(217.857 -0.15)"><line x1="92" y2="92" transform="translate(-288.857 0.15)" fill="none" stroke="#e60011" stroke-width="1"/></g><g transform="translate(222.857 -0.15)"><line x1="92" y2="92" transform="translate(-288.857 0.15)" fill="none" stroke="#e60011" stroke-width="1"/></g><g transform="translate(227.857 -0.15)"><line x1="92" y2="92" transform="translate(-288.857 0.15)" fill="none" stroke="#e60011" stroke-width="1"/></g><g transform="translate(232.857 -0.15)"><line x1="92" y2="92" transform="translate(-288.857 0.15)" fill="none" stroke="#e60011" stroke-width="1"/></g><g transform="translate(237.857 -0.15)"><line x1="92" y2="92" transform="translate(-288.857 0.15)" fill="none" stroke="#e60011" stroke-width="1"/></g><g transform="translate(242.857 -0.15)"><line x1="92" y2="92" transform="translate(-288.857 0.15)" fill="none" stroke="#e60011" stroke-width="1"/></g><g transform="translate(247.857 -0.15)"><line x1="92" y2="92" transform="translate(-288.857 0.15)" fill="none" stroke="#e60011" stroke-width="1"/></g><g transform="translate(252.857 -0.15)"><line x1="92" y2="92" transform="translate(-288.857 0.15)" fill="none" stroke="#e60011" stroke-width="1"/></g><g transform="translate(257.857 -0.15)"><line x1="92" y2="92" transform="translate(-288.857 0.15)" fill="none" stroke="#e60011" stroke-width="1"/></g><g transform="translate(262.857 -0.15)"><line x1="92" y2="92" transform="translate(-288.857 0.15)" fill="none" stroke="#e60011" stroke-width="1"/></g><g transform="translate(267.857 -0.15)"><line x1="92" y2="92" transform="translate(-288.857 0.15)" fill="none" stroke="#e60011" stroke-width="1"/></g><g transform="translate(272.857 -0.15)"><line x1="92" y2="92" transform="translate(-288.857 0.15)" fill="none" stroke="#e60011" stroke-width="1"/></g><g transform="translate(277.857 -0.15)"><line x1="92" y2="92" transform="translate(-288.857 0.15)" fill="none" stroke="#e60011" stroke-width="1"/></g><g transform="translate(282.857 -0.15)"><line x1="92" y2="92" transform="translate(-288.857 0.15)" fill="none" stroke="#e60011" stroke-width="1"/></g><g transform="translate(287.857 -0.15)"><line x1="92" y2="92" transform="translate(-288.857 0.15)" fill="none" stroke="#e60011" stroke-width="1"/></g><g transform="translate(292.857 -0.15)"><line x1="92" y2="92" transform="translate(-288.857 0.15)" fill="none" stroke="#e60011" stroke-width="1"/></g><g transform="translate(297.857 -0.15)"><line x1="92" y2="92" transform="translate(-288.857 0.15)" fill="none" stroke="#e60011" stroke-width="1"/></g><g transform="translate(302.857 -0.15)"><line x1="92" y2="92" transform="translate(-288.857 0.15)" fill="none" stroke="#e60011" stroke-width="1"/></g><g transform="translate(307.857 -0.15)"><line x1="92" y2="92" transform="translate(-288.857 0.15)" fill="none" stroke="#e60011" stroke-width="1"/></g><g transform="translate(312.857 -0.15)"><line x1="92" y2="92" transform="translate(-288.857 0.15)" fill="none" stroke="#e60011" stroke-width="1"/></g><g transform="translate(317.857 -0.15)"><line x1="92" y2="92" transform="translate(-288.857 0.15)" fill="none" stroke="#e60011" stroke-width="1"/></g><g transform="translate(322.857 -0.15)"><line x1="92" y2="92" transform="translate(-288.857 0.15)" fill="none" stroke="#e60011" stroke-width="1"/></g><g transform="translate(42.857 70.85)"><line x1="92" y2="92" transform="translate(-288.857 0.15)" fill="none" stroke="#e60011" stroke-width="1"/></g><g transform="translate(47.857 70.85)"><line x1="92" y2="92" transform="translate(-288.857 0.15)" fill="none" stroke="#e60011" stroke-width="1"/></g><g transform="translate(52.857 70.85)"><line x1="92" y2="92" transform="translate(-288.857 0.15)" fill="none" stroke="#e60011" stroke-width="1"/></g><g transform="translate(57.857 70.85)"><line x1="92" y2="92" transform="translate(-288.857 0.15)" fill="none" stroke="#e60011" stroke-width="1"/></g><g transform="translate(62.857 70.85)"><line x1="92" y2="92" transform="translate(-288.857 0.15)" fill="none" stroke="#e60011" stroke-width="1"/></g><g transform="translate(67.857 70.85)"><line x1="92" y2="92" transform="translate(-288.857 0.15)" fill="none" stroke="#e60011" stroke-width="1"/></g><g transform="translate(72.857 70.85)"><line x1="92" y2="92" transform="translate(-288.857 0.15)" fill="none" stroke="#e60011" stroke-width="1"/></g><g transform="translate(77.857 70.85)"><line x1="92" y2="92" transform="translate(-288.857 0.15)" fill="none" stroke="#e60011" stroke-width="1"/></g><g transform="translate(82.857 70.85)"><line x1="92" y2="92" transform="translate(-288.857 0.15)" fill="none" stroke="#e60011" stroke-width="1"/></g><g transform="translate(87.857 70.85)"><line x1="92" y2="92" transform="translate(-288.857 0.15)" fill="none" stroke="#e60011" stroke-width="1"/></g><g transform="translate(92.857 70.85)"><line x1="92" y2="92" transform="translate(-288.857 0.15)" fill="none" stroke="#e60011" stroke-width="1"/></g><g transform="translate(97.857 70.85)"><line x1="92" y2="92" transform="translate(-288.857 0.15)" fill="none" stroke="#e60011" stroke-width="1"/></g><g transform="translate(102.857 70.85)"><line x1="92" y2="92" transform="translate(-288.857 0.15)" fill="none" stroke="#e60011" stroke-width="1"/></g><g transform="translate(107.857 70.85)"><line x1="92" y2="92" transform="translate(-288.857 0.15)" fill="none" stroke="#e60011" stroke-width="1"/></g><g transform="translate(112.857 70.85)"><line x1="92" y2="92" transform="translate(-288.857 0.15)" fill="none" stroke="#e60011" stroke-width="1"/></g><g transform="translate(117.857 70.85)"><line x1="92" y2="92" transform="translate(-288.857 0.15)" fill="none" stroke="#e60011" stroke-width="1"/></g><g transform="translate(122.857 70.85)"><line x1="92" y2="92" transform="translate(-288.857 0.15)" fill="none" stroke="#e60011" stroke-width="1"/></g><g transform="translate(127.857 70.85)"><line x1="92" y2="92" transform="translate(-288.857 0.15)" fill="none" stroke="#e60011" stroke-width="1"/></g><g transform="translate(132.857 70.85)"><line x1="92" y2="92" transform="translate(-288.857 0.15)" fill="none" stroke="#e60011" stroke-width="1"/></g><g transform="translate(137.857 70.85)"><line x1="92" y2="92" transform="translate(-288.857 0.15)" fill="none" stroke="#e60011" stroke-width="1"/></g><g transform="translate(142.857 70.85)"><line x1="92" y2="92" transform="translate(-288.857 0.15)" fill="none" stroke="#e60011" stroke-width="1"/></g><g transform="translate(147.857 70.85)"><line x1="92" y2="92" transform="translate(-288.857 0.15)" fill="none" stroke="#e60011" stroke-width="1"/></g><g transform="translate(152.857 70.85)"><line x1="92" y2="92" transform="translate(-288.857 0.15)" fill="none" stroke="#e60011" stroke-width="1"/></g><g transform="translate(157.857 70.85)"><line x1="92" y2="92" transform="translate(-288.857 0.15)" fill="none" stroke="#e60011" stroke-width="1"/></g><g transform="translate(162.857 70.85)"><line x1="92" y2="92" transform="translate(-288.857 0.15)" fill="none" stroke="#e60011" stroke-width="1"/></g><g transform="translate(167.857 70.85)"><line x1="92" y2="92" transform="translate(-288.857 0.15)" fill="none" stroke="#e60011" stroke-width="1"/></g><g transform="translate(172.857 70.85)"><line x1="92" y2="92" transform="translate(-288.857 0.15)" fill="none" stroke="#e60011" stroke-width="1"/></g><g transform="translate(177.857 70.85)"><line x1="92" y2="92" transform="translate(-288.857 0.15)" fill="none" stroke="#e60011" stroke-width="1"/></g><g transform="translate(182.857 70.85)"><line x1="92" y2="92" transform="translate(-288.857 0.15)" fill="none" stroke="#e60011" stroke-width="1"/></g><g transform="translate(187.857 70.85)"><line x1="92" y2="92" transform="translate(-288.857 0.15)" fill="none" stroke="#e60011" stroke-width="1"/></g><g transform="translate(192.857 70.85)"><line x1="92" y2="92" transform="translate(-288.857 0.15)" fill="none" stroke="#e60011" stroke-width="1"/></g><g transform="translate(197.857 70.85)"><line x1="92" y2="92" transform="translate(-288.857 0.15)" fill="none" stroke="#e60011" stroke-width="1"/></g><g transform="translate(202.857 70.85)"><line x1="92" y2="92" transform="translate(-288.857 0.15)" fill="none" stroke="#e60011" stroke-width="1"/></g><g transform="translate(207.857 70.85)"><line x1="92" y2="92" transform="translate(-288.857 0.15)" fill="none" stroke="#e60011" stroke-width="1"/></g><g transform="translate(212.857 70.85)"><line x1="92" y2="92" transform="translate(-288.857 0.15)" fill="none" stroke="#e60011" stroke-width="1"/></g><g transform="translate(217.857 70.85)"><line x1="92" y2="92" transform="translate(-288.857 0.15)" fill="none" stroke="#e60011" stroke-width="1"/></g><g transform="translate(222.857 70.85)"><line x1="92" y2="92" transform="translate(-288.857 0.15)" fill="none" stroke="#e60011" stroke-width="1"/></g><g transform="translate(227.857 70.85)"><line x1="92" y2="92" transform="translate(-288.857 0.15)" fill="none" stroke="#e60011" stroke-width="1"/></g><g transform="translate(232.857 70.85)"><line x1="92" y2="92" transform="translate(-288.857 0.15)" fill="none" stroke="#e60011" stroke-width="1"/></g><g transform="translate(237.857 70.85)"><line x1="92" y2="92" transform="translate(-288.857 0.15)" fill="none" stroke="#e60011" stroke-width="1"/></g><g transform="translate(242.857 70.85)"><line x1="92" y2="92" transform="translate(-288.857 0.15)" fill="none" stroke="#e60011" stroke-width="1"/></g><g transform="translate(247.857 70.85)"><line x1="92" y2="92" transform="translate(-288.857 0.15)" fill="none" stroke="#e60011" stroke-width="1"/></g><g transform="translate(252.857 70.85)"><line x1="92" y2="92" transform="translate(-288.857 0.15)" fill="none" stroke="#e60011" stroke-width="1"/></g><g transform="translate(257.857 70.85)"><line x1="92" y2="92" transform="translate(-288.857 0.15)" fill="none" stroke="#e60011" stroke-width="1"/></g><g transform="translate(262.857 70.85)"><line x1="92" y2="92" transform="translate(-288.857 0.15)" fill="none" stroke="#e60011" stroke-width="1"/></g><g transform="translate(267.857 70.85)"><line x1="92" y2="92" transform="translate(-288.857 0.15)" fill="none" stroke="#e60011" stroke-width="1"/></g><g transform="translate(272.857 70.85)"><line x1="92" y2="92" transform="translate(-288.857 0.15)" fill="none" stroke="#e60011" stroke-width="1"/></g><g transform="translate(277.857 70.85)"><line x1="92" y2="92" transform="translate(-288.857 0.15)" fill="none" stroke="#e60011" stroke-width="1"/></g><g transform="translate(282.857 70.85)"><line x1="92" y2="92" transform="translate(-288.857 0.15)" fill="none" stroke="#e60011" stroke-width="1"/></g><g transform="translate(287.857 70.85)"><line x1="92" y2="92" transform="translate(-288.857 0.15)" fill="none" stroke="#e60011" stroke-width="1"/></g><g transform="translate(292.857 70.85)"><line x1="92" y2="92" transform="translate(-288.857 0.15)" fill="none" stroke="#e60011" stroke-width="1"/></g><g transform="translate(297.857 70.85)"><line x1="92" y2="92" transform="translate(-288.857 0.15)" fill="none" stroke="#e60011" stroke-width="1"/></g><g transform="translate(302.857 70.85)"><line x1="92" y2="92" transform="translate(-288.857 0.15)" fill="none" stroke="#e60011" stroke-width="1"/></g><g transform="translate(307.857 70.85)"><line x1="92" y2="92" transform="translate(-288.857 0.15)" fill="none" stroke="#e60011" stroke-width="1"/></g><g transform="translate(312.857 70.85)"><line x1="92" y2="92" transform="translate(-288.857 0.15)" fill="none" stroke="#e60011" stroke-width="1"/></g><g transform="translate(317.857 70.85)"><line x1="92" y2="92" transform="translate(-288.857 0.15)" fill="none" stroke="#e60011" stroke-width="1"/></g><g transform="translate(322.857 70.85)"><line x1="92" y2="92" transform="translate(-288.857 0.15)" fill="none" stroke="#e60011" stroke-width="1"/></g></g></g></g></g></svg>