<svg xmlns="http://www.w3.org/2000/svg" xmlns:xlink="http://www.w3.org/1999/xlink" width="16" height="16" viewBox="0 0 16 16"><defs><clipPath id="a"><rect width="16" height="16" transform="translate(48 2109)" fill="#fff" stroke="#707070" stroke-width="1"/></clipPath></defs><g transform="translate(-48 -2109)" clip-path="url(#a)"><g transform="translate(-183 -2040.806)"><rect width="16" height="16" transform="translate(231 4149.806)" fill="#f2f2f2"/><line x2="1200" transform="translate(231 4150.306)" fill="none" stroke="#fff" stroke-width="1" opacity="0.8"/><line x2="1200" transform="translate(231 4166.306)" fill="none" stroke="#fff" stroke-width="1" opacity="0.8"/><line x1="880" y2="879" transform="translate(-670.5 4124.333)" fill="none" stroke="#fff" stroke-width="1"/><line x1="880" y2="879" transform="translate(-654.5 4124.333)" fill="none" stroke="#fff" stroke-width="1"/><line x1="880" y2="879" transform="translate(-638.5 4124.333)" fill="none" stroke="#fff" stroke-width="1"/><line x1="880" y2="879" transform="translate(-622.5 4124.333)" fill="none" stroke="#fff" stroke-width="1"/><line x1="880" y2="879" transform="translate(-606.5 4124.333)" fill="none" stroke="#fff" stroke-width="1"/><line x1="880" y2="879" transform="translate(-590.5 4124.333)" fill="none" stroke="#fff" stroke-width="1"/><line x1="880" y2="879" transform="translate(-574.5 4124.333)" fill="none" stroke="#fff" stroke-width="1"/><line x1="880" y2="879" transform="translate(-558.5 4124.333)" fill="none" stroke="#fff" stroke-width="1"/><line x1="880" y2="879" transform="translate(-542.5 4124.333)" fill="none" stroke="#fff" stroke-width="1"/><line x1="880" y2="879" transform="translate(-526.5 4124.333)" fill="none" stroke="#fff" stroke-width="1"/><line x1="880" y2="879" transform="translate(-510.5 4124.333)" fill="none" stroke="#fff" stroke-width="1"/><line x1="880" y2="879" transform="translate(-494.5 4124.333)" fill="none" stroke="#fff" stroke-width="1"/><line x1="880" y2="879" transform="translate(-478.5 4124.333)" fill="none" stroke="#fff" stroke-width="1"/><line x1="880" y2="879" transform="translate(-462.5 4124.333)" fill="none" stroke="#fff" stroke-width="1"/><line x1="880" y2="879" transform="translate(-446.5 4124.333)" fill="none" stroke="#fff" stroke-width="1"/><line x1="880" y2="879" transform="translate(-430.5 4124.333)" fill="none" stroke="#fff" stroke-width="1"/><line x1="880" y2="879" transform="translate(-414.5 4124.333)" fill="none" stroke="#fff" stroke-width="1"/><line x1="880" y2="879" transform="translate(-398.5 4124.333)" fill="none" stroke="#fff" stroke-width="1"/><line x1="880" y2="879" transform="translate(-382.5 4124.333)" fill="none" stroke="#fff" stroke-width="1"/><line x1="880" y2="879" transform="translate(-366.5 4124.333)" fill="none" stroke="#fff" stroke-width="1"/><line x1="880" y2="879" transform="translate(-350.5 4124.333)" fill="none" stroke="#fff" stroke-width="1"/><line x1="880" y2="879" transform="translate(-334.5 4124.333)" fill="none" stroke="#fff" stroke-width="1"/><line x1="880" y2="879" transform="translate(-318.5 4124.333)" fill="none" stroke="#fff" stroke-width="1"/><line x1="880" y2="879" transform="translate(-302.5 4124.333)" fill="none" stroke="#fff" stroke-width="1"/><line x1="880" y2="879" transform="translate(-286.5 4124.333)" fill="none" stroke="#fff" stroke-width="1"/><line x1="880" y2="879" transform="translate(-270.5 4124.333)" fill="none" stroke="#fff" stroke-width="1"/><line x1="880" y2="879" transform="translate(-254.5 4124.333)" fill="none" stroke="#fff" stroke-width="1"/><line x1="880" y2="879" transform="translate(-238.5 4124.333)" fill="none" stroke="#fff" stroke-width="1"/></g></g></svg>