<svg id="レイヤー_1" data-name="レイヤー 1" xmlns="http://www.w3.org/2000/svg" viewBox="0 0 24 24"><path d="M13.718,10.528a6.314,6.314,0,0,1-.684,2.642c-1.009,1.98-3.063,1.967-3.063-.14a5.949,5.949,0,0,1,.687-2.58C11.679,8.525,13.718,8.826,13.718,10.528ZM24,12A12,12,0,1,1,12,0,12,12,0,0,1,24,12Zm-5-1.194c0-3.246-2.631-5.6-6.256-5.6C7.777,5.205,5,8.354,5,12.278,5,15.95,7.467,18.8,12.024,18.8a9.966,9.966,0,0,0,5.122-1.288l-.687-.991A7.843,7.843,0,0,1,12.2,17.652c-3.429,0-5.733-2.2-5.733-5.473,0-5.714,6.4-6.758,9.214-5.071a4.553,4.553,0,0,1,.582,7.083c-1.034.826-2.2.8-1.821-.756,0,0,1.212-4.489,1.354-4.975H14.435l-.271.952a1.905,1.905,0,0,0-1.911-1.295c-2.018,0-3.722,2.19-3.722,4.783,0,1.73.913,2.8,2.38,2.8a2.659,2.659,0,0,0,2.364-1.373C12.975,17.229,19,15.888,19,10.806Z" fill="#e60011"/></svg>