<svg xmlns="http://www.w3.org/2000/svg" width="14.374" height="18.769" viewBox="0 0 14.374 18.769">
  <g id="グループ_7" data-name="グループ 7" transform="translate(-1145.754 -450.139)">
    <g id="白紙のドキュメントアイコン" transform="translate(1145.754 450.139)">
      <path id="パス_5" data-name="パス 5" d="M71.418,11.139V6.865L66.5,11.781h4.273C71.238,11.781,71.418,11.6,71.418,11.139Z" transform="translate(-66.263 -6.613)" fill="#fff"/>
      <path id="パス_6" data-name="パス 6" d="M73.489,0H66.054V5.1a1.021,1.021,0,0,1-1.02,1.02H59.948V17.937a.833.833,0,0,0,.832.832H73.489a.833.833,0,0,0,.832-.832V.832A.833.833,0,0,0,73.489,0Z" transform="translate(-59.948)" fill="#fff"/>
    </g>
    <path id="線_5" data-name="線 5" d="M8.979.5H0v-1H8.979Z" transform="translate(1148.56 462.89)" fill="#d32d25"/>
    <path id="線_6" data-name="線 6" d="M8.979.5H0v-1H8.979Z" transform="translate(1148.56 465.135)" fill="#d32d25"/>
  </g>
</svg>
