<svg xmlns="http://www.w3.org/2000/svg" width="30" height="20" viewBox="0 0 30 20"><rect width="30" height="20" fill="#fff" opacity="0"/><path d="M17.668,74.535H2.332A2.318,2.318,0,0,0,0,76.838v9.394a2.318,2.318,0,0,0,2.332,2.3H17.668A2.318,2.318,0,0,0,20,86.232V76.838A2.318,2.318,0,0,0,17.668,74.535Zm1.219,12.318-.444.519-6.217-5.011-.963.9a1.883,1.883,0,0,1-2.524,0l-.963-.9L1.558,87.372l-.444-.519,5.837-5.266L1.075,76.133l.347-.455L10,82.1l8.577-6.418.347.455-5.875,5.453Z" transform="translate(5 -71.535)" fill="#fff"/></svg>