<svg xmlns="http://www.w3.org/2000/svg" width="30" height="20" viewBox="0 0 30 20"><rect width="30" height="20" fill="#fff"/><g transform="translate(4 3)"><path d="M10.441,77.953a11.143,11.143,0,0,0-5.153-1.246,12.934,12.934,0,0,0-4.228.95A1.654,1.654,0,0,0,0,79.079V90.484a.929.929,0,0,0,.4.758.984.984,0,0,0,.863.132,11.806,11.806,0,0,1,4.028-.886,11.483,11.483,0,0,1,5.037,1.21.194.194,0,0,0,.171-.027.184.184,0,0,0,.079-.151V78.131A.187.187,0,0,0,10.441,77.953Z" transform="translate(0 -76.707)" fill="#e60011"/><path d="M275.407,77.657a12.929,12.929,0,0,0-4.228-.95,11.138,11.138,0,0,0-5.152,1.246.187.187,0,0,0-.135.178V91.52a.184.184,0,0,0,.079.151.194.194,0,0,0,.171.027,11.483,11.483,0,0,1,5.037-1.21,11.8,11.8,0,0,1,4.028.886.984.984,0,0,0,.863-.132.929.929,0,0,0,.4-.758V79.079A1.654,1.654,0,0,0,275.407,77.657Z" transform="translate(-254.466 -76.707)" fill="#e60011"/></g></svg>