<?xml version="1.0" encoding="UTF-8"?>
<svg id="_レイヤー_2" data-name="レイヤー 2" xmlns="http://www.w3.org/2000/svg" viewBox="0 0 251.34569 41.75476">
  <g id="_レイヤー_1-2" data-name="レイヤー 1">
    <g>
      <path d="m87.98829,19.61677s6.30371-2.84771,6.30371-9.9492c0-3.6817-2.97851-8.752-9.38971-8.752h-14.123s.44771,7.3564.42971,17.7832h-5.37111c-.1162-1.4463-.3355-2.7412-.6387-3.7539,0,0-3.3857-14.6777-19.1601-14.6777,0,0-17.1094-1.1778-20.4913,15.8486,0,0-1.121,6.78029.6065,12.0439,1.3682,4.1807,5.5098,13.5049,19.8848,13.5049,0,0,10.4472.6924,16.5507-7.8886,2.3516-3.3057,3.2847-8.17491,3.3379-12.4083h5.2666c-.0556,5.9502-.2715,12.7041-.7978,19.5782h14.6601s10.1455.23919,10.6221-11.211c.1631-3.9599-1.9023-8.7724-7.6904-10.1181Zm-42.4258,20.4277c-16.1709.2969-14.127-19.7471-14.127-19.7471,1.2198-18.2646,13.8233-17.9736,13.8233-17.9736,14.9433,0,14.9971,17.9736,14.9971,17.9736,0,20.3662-14.6934,19.7471-14.6934,19.7471ZM80.958,3.05427c5.92289,0,7.126,5.0713,7.07319,8.3242-.08,4.831-3.6738,7.3691-6.5341,7.3691h-4.7305V3.46637l.04641-.4121h4.145Zm1.10449,35.3535h-5.3027l.0068-17.6836h4.7305c2.9902,0,7.5205,2.2344,7.5205,9.1934,0,5.8642-4.0127,8.4902-6.9551,8.4902Z" fill="#fff"/>
      <path d="m12.58689,18.97217s2.61911-3.1289,6.8164-8.038C23.97169,5.59137,28.40719.93317,28.40719.93317h-6.6758C14.501,10.39017,6.94579,18.93317,6.65329,19.26327c.0308-7.1524.2725-18.4307.2725-18.4307H.20509c.9394,26.3701-.20509,40.2187-.20509,40.2187h6.92579s-.2705-4.4755-.2754-20.0078c.0112.0127.019.0235.0303.0362,7.4794,8.3349,14.6562,19.8691,14.6562,19.8691h8.4375s-5.4805-6.418-9.625-11.9043c-4.10739-5.4199-7.5625-10.0723-7.5625-10.0723Z" fill="#fff"/>
      <path d="m141.208,25.32277c.21389-1.13771,7.94039-15.1709,11.41109-21.4385,1.0088-1.82421,1.795-3.07421,1.795-3.07421h-4.96c.5215,1.96881-9.7119,19.90431-9.7119,19.90431,0,0-7.2676-14.2754-8.374-16.4629-1.1026-2.1855-1.377-3.44141-1.377-3.44141h-7.41019s.836,1.30961,1.90039,3.26271c1.0625,1.9502,9.0674,17.0108,9.0674,17.0108,1.03521,2.0761,1.1494,2.68749,1.1494,2.68749,0,0-.0146,11.97851-.0146,13.31441,0,1.334-.1709,3.9121-.1709,3.9121h6.8711s-.1699-1.7636-.1699-3.9121c0-2.0371-.00589-11.7627-.00589-11.7627Z" fill="#fff"/>
      <path d="m108.51069.81006c-.1728,1.60061-10.9189,33.90431-12.96869,38.08991-.61521,1.2578-.91211,2.0976-.91211,2.0976h4.1689c1.541-5.0146,3.32521-10.5254,5.0283-15.6718h14.6348c2.8652,8.10929,5.53811,15.6718,5.53811,15.6718h7.43159C121.62209,14.41757,117.31539.81006,117.31539.81006h-8.8047Zm-3.9453,22.293c3.125-9.37889,5.7989-17.03909,5.8975-17.34379.5957-1.86321.5283-1.7138,1.1172.0811.08.2354,3.0703,8.6992,6.0957,17.26269h-13.1104Z" fill="#fff"/>
      <path d="m158.98829.81006c-.1719,1.60061-10.919,33.90431-12.9678,38.08991-.6172,1.2578-.9141,2.0976-.9141,2.0976h4.1729c1.54-5.0146,3.3242-10.5254,5.0273-15.6718h14.6328c2.8653,8.11029,5.5391,15.6718,5.5391,15.6718h7.4346C172.10059,14.41757,167.79689.81006,167.79689.81006h-8.8086Zm-3.9444,22.293c3.12411-9.37889,5.7979-17.04,5.8955-17.34379.5987-1.86321.5313-1.7138,1.1241.0811.0761.2354,3.0644,8.6992,6.0898,17.26269h-13.1094Z" fill="#fff"/>
      <path d="m201.63769,21.26127c-3.8594-2.7451-6.5713-4.11521-9.0186-5.5937-4.1298-2.4922-4.375-9.4317,1.376-11.8731,0,0,5.6563-2.27541,8.8975,3.918l1.4511-4.85841c-2.6103-2.667-9.4375-4.06059-14.05369-1.5-5.01271,2.78321-6.61721,7.45021-5.80171,11.67191.8349,4.3427,3.124,6.6689,10.67671,10.6982,0,0,7.72069,4.1875,3.23729,11.6641-1.77629,2.96479-9.5088,5.3476-14.4297-1.78321l-1.1855,5.623c4.5684,3.13671,16.6016,4.38871,21.2451-2.47659,3.8106-5.6328,2.4834-12.0185-2.3945-15.4902Z" fill="#fff"/>
      <path d="m251.34569.80427h-6.6299c.5176,21.3105-.0889,40.1621-.0889,40.1621h6.7188c-.8272-19.2539,0-40.1621,0-40.1621Z" fill="#fff"/>
      <path d="m233.98729.83257c.1973,6.501.2822,12.2363.2998,17.1924h-19.8896c-.0059-10.2256.1953-17.1924.1953-17.1924h-6.0713c.9551,22.083-.5537,40.1631-.5537,40.1631h6.8125c-.2539-7.3643-.3545-14.4424-.378-20.5528h19.8868c-.0137,13.543-.53909,20.5528-.53909,20.5528h6.69429c-.8427-22.3164,0-40.1631,0-40.1631h-6.457Z" fill="#fff"/>
    </g>
  </g>
</svg>