<svg xmlns="http://www.w3.org/2000/svg" width="161.966" height="48.26" viewBox="0 0 161.966 48.26"><rect width="161.966" height="48.16" fill="none"/><g transform="translate(23.086 14.34)"><path d="M360.121,284.649s-6.025-.4-6.614,8.471c0,0-1.049,9.615,6.761,9.467,0,0,7.058.414,7.058-9.468C367.326,293.119,367.341,284.649,360.121,284.649Z" transform="translate(-339.358 -283.806)" fill="#dc000c"/><g transform="translate(0 0.385)"><path d="M336.216,292.5s3.558-4.028,6.95-8.486h3.071s-2.04,2.153-4.141,4.622c-1.931,2.269-3.14,3.715-3.14,3.715s1.593,2.15,3.483,4.654c1.906,2.535,4.428,5.5,4.428,5.5h-3.882a77.81,77.81,0,0,0-6.742-9.183C335.535,292.54,336.216,292.5,336.216,292.5Z" transform="translate(-333.171 -283.971)"/><path d="M331.763,283.946h3.093s-.127,5.938-.127,9.158c0,7.328.127,9.428.127,9.428h-3.184A177.466,177.466,0,0,0,331.763,283.946Z" transform="translate(-331.672 -283.946)"/></g><g transform="translate(56.392 0.375)"><path d="M419.671,285.438c-.489-.9-.874-1.508-.874-1.508h3.41a7.607,7.607,0,0,0,.632,1.591l3.852,7.608s4.709-8.289,4.469-9.2h2.283s-.362.577-.827,1.421c-1.6,2.9-5.153,9.38-5.249,9.907,0,0,0,4.495,0,5.436,0,.993.079,1.808.079,1.808h-3.162s.079-1.191.079-1.808.006-6.153.006-6.153a6.328,6.328,0,0,0-.527-1.242S420.159,286.339,419.671,285.438Z" transform="translate(-418.797 -283.93)"/></g><g transform="translate(43.534 0.375)"><path d="M13.512,18.572,10.963,11.33H4.231c-.783,2.378-1.6,4.925-2.313,7.243H0A10.069,10.069,0,0,1,.418,17.6C1.361,15.667,6.306.739,6.386,0h4.05s1.981,6.288,6.495,18.572ZM10.6,10.3C9.209,6.344,7.833,2.433,7.8,2.324c-.27-.83-.239-.9-.513-.037-.046.14-1.276,3.68-2.713,8.015ZM26.819,11.33l.366-1.028h7.547V11.33Z"/></g><g transform="translate(66.757 0.375)"><path d="M0,18.572A10.323,10.323,0,0,1,.418,17.6C1.362,15.668,6.306.739,6.386,0h4.052s1.98,6.288,6.494,18.572h-3.42S7.872,2.546,7.8,2.324c-.272-.83-.241-.9-.517-.038-.072.227-3.229,9.3-5.364,16.285Z"/></g><g transform="translate(84.092 0)"><path d="M471.51,284.673a6.076,6.076,0,0,0-6.465-.694,4.958,4.958,0,0,0-2.67,5.394c.383,2.007,1.437,3.083,4.913,4.944,0,0,3.551,1.935,1.488,5.391-.816,1.371-4.373,2.471-6.636-.824l-.546,2.6c2.1,1.449,7.637,2.029,9.772-1.145a5.025,5.025,0,0,0-1.1-7.159c-1.775-1.269-3.023-1.9-4.149-2.585a3.093,3.093,0,0,1,.634-5.487,3.242,3.242,0,0,1,4.093,1.81Z" transform="translate(-461.593 -283.353)"/></g><g transform="translate(112.542 0.372)"><path d="M505.588,283.926h3.05s-.381,9.662,0,18.562h-3.091S505.827,293.774,505.588,283.926Z" transform="translate(-505.547 -283.926)"/></g><g transform="translate(95.677 0.385)"><path d="M479.746,283.946h2.794s-.253,8.734.086,18.56h-3.133A165.029,165.029,0,0,0,479.746,283.946Z" transform="translate(-479.492 -283.946)"/><path d="M497.924,283.946h2.971s-.388,8.247,0,18.56h-3.08S498.293,296.122,497.924,283.946Z" transform="translate(-485.955 -283.946)"/><path d="M483.3,296.165H493.57l.085,1.118H483.291Z" transform="translate(-480.832 -288.22)"/></g><path d="M378.464,292.481a5.231,5.231,0,0,0,2.9-4.6,4.154,4.154,0,0,0-4.319-4.045h-6.5s.206,3.4.2,8.218h-2.471a8.681,8.681,0,0,0-.293-1.734s-1.559-6.784-8.816-6.784c0,0-7.873-.544-9.429,7.326a13.868,13.868,0,0,0,.28,5.566c.629,1.931,2.535,6.241,9.149,6.241a9.205,9.205,0,0,0,7.615-3.646,10.6,10.6,0,0,0,1.535-5.733h2.423c-.025,2.75-.125,5.871-.367,9.048h6.744s4.668.109,4.887-5.182A4.46,4.46,0,0,0,378.464,292.481Zm-19.519,9.441c-7.439.137-6.5-9.126-6.5-9.126.561-8.44,6.359-8.307,6.359-8.307,6.875,0,6.9,8.307,6.9,8.307C365.706,302.208,358.945,301.922,358.945,301.922Zm16.284-17.095c2.724,0,3.279,2.343,3.254,3.847a3.241,3.241,0,0,1-3.005,3.406H373.3v-7.063l.021-.19Zm.508,16.339H373.3l0-8.174h2.177c1.377,0,3.459,1.033,3.459,4.249C378.937,299.952,377.092,301.166,375.737,301.166Z" transform="translate(-337.986 -283.415)"/></g><rect width="10" height="14.473" transform="translate(75.994 33.787)" fill="#fff" opacity="0"/><rect width="10" height="14.473" transform="translate(75.994)" fill="#fff" opacity="0"/><rect width="23.151" height="10" transform="translate(0 19.066)" fill="#fff" opacity="0"/><rect width="23.151" height="10" transform="translate(138.579 19.066)" fill="#fff" opacity="0"/></svg>