<svg id="img_logo01" xmlns="http://www.w3.org/2000/svg" width="161.966" height="48.26" viewBox="0 0 161.966 48.26">
  <rect id="長方形_23335" data-name="長方形 23335" width="161.966" height="48.16" fill="none"/>
  <g id="グループ_11792" data-name="グループ 11792" transform="translate(1 10.688)">
    <path id="パス_9050" data-name="パス 9050" d="M362.654,284.65s-8.316-.552-9.129,11.692c0,0-1.448,13.271,9.332,13.067,0,0,9.742.571,9.742-13.068C372.6,296.341,372.619,284.65,362.654,284.65Z" transform="translate(-333.996 -283.487)" fill="#dc000c"/>
    <g id="グループ_11785" data-name="グループ 11785" transform="translate(0 0.531)">
      <path id="パス_9051" data-name="パス 9051" d="M336.328,295.727s4.911-5.56,9.593-11.713h4.239s-2.816,2.972-5.716,6.379c-2.665,3.132-4.334,5.128-4.334,5.128s2.2,2.968,4.807,6.424c2.631,3.5,6.112,7.591,6.112,7.591h-5.358a107.386,107.386,0,0,0-9.305-12.675C335.388,295.782,336.328,295.727,336.328,295.727Z" transform="translate(-332.125 -283.955)" fill="#fff"/>
      <path id="パス_9052" data-name="パス 9052" d="M331.8,283.946h4.269s-.175,8.2-.175,12.64c0,10.114.175,13.013.175,13.013h-4.395A244.95,244.95,0,0,0,331.8,283.946Z" transform="translate(-331.672 -283.946)" fill="#fff"/>
    </g>
    <g id="グループ_11786" data-name="グループ 11786" transform="translate(77.834 0.516)">
      <path id="パス_9053" data-name="パス 9053" d="M420,286.012c-.675-1.242-1.206-2.081-1.206-2.081H423.5a10.5,10.5,0,0,0,.872,2.2l5.317,10.5s6.5-11.441,6.168-12.7h3.151s-.5.8-1.141,1.961c-2.208,4-7.112,12.947-7.245,13.674v7.5c0,1.371.109,2.5.109,2.5H426.37s.109-1.644.109-2.5.008-8.493.008-8.493a8.732,8.732,0,0,0-.727-1.714S420.677,287.255,420,286.012Z" transform="translate(-418.797 -283.929)" fill="#fff"/>
    </g>
    <g id="グループ_11787" data-name="グループ 11787" transform="translate(60.087 0.517)">
      <path id="パス_9054" data-name="パス 9054" d="M18.65,25.634l-3.518-10H5.84c-1.081,3.282-2.208,6.8-3.192,10H0a13.9,13.9,0,0,1,.577-1.343C1.878,21.624,8.7,1.02,8.814,0H14.4s2.734,8.679,8.965,25.634ZM14.63,14.216c-1.92-5.46-3.819-10.858-3.865-11.009-.373-1.146-.33-1.242-.708-.051C9.994,3.35,8.3,8.236,6.313,14.219Zm22.386,1.422.505-1.419H47.938v1.419Z" fill="#fff"/>
    </g>
    <g id="グループ_11788" data-name="グループ 11788" transform="translate(92.14 0.517)">
      <path id="パス_9055" data-name="パス 9055" d="M0,25.634a14.248,14.248,0,0,1,.577-1.342C1.88,21.625,8.7,1.02,8.814,0h5.593S17.14,8.679,23.37,25.634H18.65S10.865,3.514,10.766,3.208c-.375-1.146-.333-1.242-.714-.052-.1.313-4.457,12.836-7.4,22.477Z" fill="#fff"/>
    </g>
    <g id="グループ_11789" data-name="グループ 11789" transform="translate(116.068 0.001)">
      <path id="パス_9056" data-name="パス 9056" d="M475.28,285.175a8.387,8.387,0,0,0-8.923-.958,6.843,6.843,0,0,0-3.685,7.445c.529,2.77,1.983,4.255,6.781,6.824,0,0,4.9,2.671,2.054,7.441-1.126,1.892-6.036,3.411-9.159-1.137l-.754,3.589c2.9,2,10.541,2.8,13.488-1.58a6.936,6.936,0,0,0-1.518-9.881c-2.45-1.752-4.172-2.622-5.727-3.568a4.269,4.269,0,0,1,.875-7.573,4.475,4.475,0,0,1,5.649,2.5Z" transform="translate(-461.594 -283.354)" fill="#fff"/>
    </g>
    <g id="グループ_11790" data-name="グループ 11790" transform="translate(155.334 0.513)">
      <path id="パス_9057" data-name="パス 9057" d="M505.6,283.926h4.21s-.526,13.336,0,25.62h-4.266S505.933,297.518,505.6,283.926Z" transform="translate(-505.547 -283.926)" fill="#fff"/>
    </g>
    <g id="グループ_11791" data-name="グループ 11791" transform="translate(132.058 0.531)">
      <path id="パス_9058" data-name="パス 9058" d="M479.842,283.946H483.7s-.349,12.055.119,25.617h-4.324a227.765,227.765,0,0,0,.349-25.617Z" transform="translate(-479.493 -283.946)" fill="#fff"/>
      <path id="パス_9059" data-name="パス 9059" d="M497.965,283.946h4.1s-.535,11.383,0,25.617h-4.251S498.475,300.752,497.965,283.946Z" transform="translate(-481.447 -283.946)" fill="#fff"/>
      <path id="パス_9060" data-name="パス 9060" d="M483.3,296.165h14.175l.117,1.543h-14.3Z" transform="translate(-479.898 -285.199)" fill="#fff"/>
    </g>
    <path id="パス_9061" data-name="パス 9061" d="M389.448,295.885a7.22,7.22,0,0,0,4-6.349,5.734,5.734,0,0,0-5.961-5.583h-8.972s.284,4.693.276,11.343h-3.411a11.981,11.981,0,0,0-.4-2.393s-2.152-9.363-12.168-9.363c0,0-10.866-.751-13.014,10.112a19.141,19.141,0,0,0,.386,7.682c.868,2.665,3.5,8.614,12.628,8.614a12.705,12.705,0,0,0,10.51-5.032A14.631,14.631,0,0,0,375.44,297h3.344c-.034,3.8-.173,8.1-.507,12.488h9.308s6.443.15,6.745-7.152A6.156,6.156,0,0,0,389.448,295.885Zm-26.941,13.031c-10.268.189-8.971-12.6-8.971-12.6.774-11.649,8.777-11.466,8.777-11.466,9.489,0,9.524,11.466,9.524,11.466,0,12.991-9.329,12.6-9.329,12.6Zm22.476-23.6c3.76,0,4.526,3.234,4.491,5.31a4.473,4.473,0,0,1-4.148,4.7H382.32v-9.749l.029-.262Zm.7,22.552H382.32V296.59h3c1.9,0,4.774,1.426,4.774,5.865,0,3.742-2.545,5.417-4.415,5.417Z" transform="translate(-333.579 -283.372)" fill="#fff"/>
  </g>
  <rect id="長方形_23336" data-name="長方形 23336" width="10" height="14.473" transform="translate(75.994 33.787)" fill="#fff" opacity="0"/>
  <rect id="長方形_23337" data-name="長方形 23337" width="10" height="14.473" transform="translate(75.994)" fill="#fff" opacity="0"/>
  <rect id="長方形_23338" data-name="長方形 23338" width="23.151" height="10" transform="translate(0 19.066)" fill="#fff" opacity="0"/>
  <rect id="長方形_23339" data-name="長方形 23339" width="23.151" height="10" transform="translate(138.579 19.066)" fill="#fff" opacity="0"/>
</svg>
