<svg xmlns="http://www.w3.org/2000/svg" width="390" height="122"><g fill="#e60011"><path d="M99.658 90.516h-5.167a.872.872 0 01-.873-.872V32.357a.873.873 0 01.873-.873h5.165a.873.873 0 01.873.873v57.287a.872.872 0 01-.871.872zm-4.292-1.745h3.419V33.23h-3.419zM147.813 90.516h-5.165a.872.872 0 01-.873-.872V32.357a.873.873 0 01.873-.873h5.165a.872.872 0 01.872.873v57.287a.871.871 0 01-.872.872zm-4.292-1.745h3.419V33.23h-3.419zM196.713 90.516h-5.165a.872.872 0 01-.873-.872V32.357a.873.873 0 01.873-.873h5.165a.872.872 0 01.872.873v57.287a.871.871 0 01-.872.872zm-4.292-1.745h3.419V33.23h-3.419zM245.713 90.516h-5.165a.872.872 0 01-.873-.872V32.357a.873.873 0 01.873-.873h5.165a.872.872 0 01.872.873v57.287a.871.871 0 01-.872.872zm-4.292-1.745h3.419V33.23h-3.419zM294.713 90.516h-5.165a.872.872 0 01-.873-.872V32.357a.873.873 0 01.873-.873h5.165a.872.872 0 01.872.873v57.287a.871.871 0 01-.872.872zm-4.292-1.745h3.419V33.23h-3.419z"/><path d="M94.491 46.651h-3.817a.873.873 0 01-.873-.873v-6.11a.873.873 0 01.873-.873h3.817a.873.873 0 01.873.873v6.11a.873.873 0 01-.873.873zm-2.946-1.746h2.073v-4.364h-2.071zM94.491 63.619h-3.817a.873.873 0 01-.873-.873v-6.11a.873.873 0 01.873-.873h3.817a.873.873 0 01.873.873v6.11a.873.873 0 01-.873.873zm-2.946-1.746h2.073V57.51h-2.071zM94.491 80.587h-3.817a.873.873 0 01-.873-.873v-6.11a.873.873 0 01.873-.873h3.817a.873.873 0 01.873.873v6.11a.873.873 0 01-.873.873zm-2.946-1.746h2.073v-4.364h-2.071zM299.325 46.651h-3.818a.873.873 0 01-.873-.873v-6.11a.873.873 0 01.873-.873h3.818a.872.872 0 01.873.873v6.11a.872.872 0 01-.873.873zm-2.946-1.746h2.074v-4.364h-2.074zM299.325 63.619h-3.818a.873.873 0 01-.873-.873v-6.11a.873.873 0 01.873-.873h3.818a.872.872 0 01.873.873v6.11a.873.873 0 01-.873.873zm-2.946-1.746h2.074V57.51h-2.074zM299.325 80.588h-3.818a.873.873 0 01-.873-.873v-6.11a.873.873 0 01.873-.873h3.818a.873.873 0 01.873.873v6.11a.872.872 0 01-.873.873zm-2.946-1.746h2.074v-4.364h-2.074zM142.648 45.51h-42.99a.873.873 0 01-.873-.873V40.81a.872.872 0 01.873-.872h42.99a.872.872 0 01.873.872v3.819a.873.873 0 01-.873.881zm-42.117-1.75h41.244v-2.074h-41.244zM191.548 45.51h-42.99a.873.873 0 01-.873-.873V40.81a.872.872 0 01.873-.872h42.99a.872.872 0 01.873.872v3.819a.873.873 0 01-.873.881zm-42.117-1.75h41.244v-2.074h-41.244zM240.548 45.51h-42.99a.873.873 0 01-.873-.873V40.81a.872.872 0 01.873-.872h42.99a.872.872 0 01.873.872v3.819a.873.873 0 01-.873.881zm-42.117-1.75h41.244v-2.074h-41.244zM289.548 45.51h-42.99a.873.873 0 01-.873-.873V40.81a.872.872 0 01.873-.872h42.99a.872.872 0 01.873.872v3.819a.873.873 0 01-.873.881zm-42.117-1.75h41.244v-2.074h-41.244zM142.648 62.473h-42.99a.873.873 0 01-.873-.873v-3.819a.873.873 0 01.873-.873h42.99a.873.873 0 01.873.873V61.6a.873.873 0 01-.873.873zm-42.117-1.746h41.244v-2.073h-41.244zM191.548 62.473h-42.99a.873.873 0 01-.873-.873v-3.819a.873.873 0 01.873-.873h42.99a.873.873 0 01.873.873V61.6a.873.873 0 01-.873.873zm-42.117-1.746h41.244v-2.073h-41.244zM240.548 62.473h-42.99a.873.873 0 01-.873-.873v-3.819a.873.873 0 01.873-.873h42.99a.873.873 0 01.873.873V61.6a.873.873 0 01-.873.873zm-42.117-1.746h41.244v-2.073h-41.244zM289.548 62.473h-42.99a.873.873 0 01-.873-.873v-3.819a.873.873 0 01.873-.873h42.99a.873.873 0 01.873.873V61.6a.873.873 0 01-.873.873zm-42.117-1.746h41.244v-2.073h-41.244zM142.648 79.442h-42.99a.873.873 0 01-.873-.873V74.75a.873.873 0 01.873-.873h42.99a.873.873 0 01.873.873v3.819a.873.873 0 01-.873.873zm-42.117-1.746h41.244v-2.073h-41.244zM191.548 79.442h-42.99a.873.873 0 01-.873-.873V74.75a.873.873 0 01.873-.873h42.99a.873.873 0 01.873.873v3.819a.873.873 0 01-.873.873zm-42.117-1.746h41.244v-2.073h-41.244zM240.548 79.442h-42.99a.873.873 0 01-.873-.873V74.75a.873.873 0 01.873-.873h42.99a.873.873 0 01.873.873v3.819a.873.873 0 01-.873.873zm-42.117-1.746h41.244v-2.073h-41.244zM289.548 79.442h-42.99a.873.873 0 01-.873-.873V74.75a.873.873 0 01.873-.873h42.99a.873.873 0 01.873.873v3.819a.873.873 0 01-.873.873zm-42.117-1.746h41.244v-2.073h-41.244z"/><path d="M112.824 41.686h-9.233a.873.873 0 01-.873-.873v-7.8a.873.873 0 01.873-.873h9.232a.873.873 0 01.873.873v7.8a.873.873 0 01-.872.873zm-8.359-1.745h7.486v-6.056h-7.486zM161.724 41.686h-9.233a.873.873 0 01-.873-.873v-7.8a.873.873 0 01.873-.873h9.232a.873.873 0 01.873.873v7.8a.873.873 0 01-.872.873zm-8.359-1.745h7.486v-6.056h-7.486zM210.724 41.686h-9.233a.873.873 0 01-.873-.873v-7.8a.873.873 0 01.873-.873h9.232a.873.873 0 01.873.873v7.8a.873.873 0 01-.872.873zm-8.359-1.745h7.486v-6.056h-7.486zM259.724 41.686h-9.233a.873.873 0 01-.873-.873v-7.8a.873.873 0 01.873-.873h9.232a.873.873 0 01.873.873v7.8a.873.873 0 01-.872.873zm-8.359-1.745h7.486v-6.056h-7.486zM125.769 41.686h-9.232a.873.873 0 01-.873-.873v-7.8a.873.873 0 01.873-.873h9.232a.873.873 0 01.873.873v7.8a.873.873 0 01-.873.873zm-8.359-1.745h7.486v-6.056h-7.486zM174.669 41.686h-9.232a.873.873 0 01-.873-.873v-7.8a.873.873 0 01.873-.873h9.232a.873.873 0 01.873.873v7.8a.873.873 0 01-.873.873zm-8.359-1.745h7.486v-6.056h-7.486zM223.669 41.686h-9.232a.873.873 0 01-.873-.873v-7.8a.873.873 0 01.873-.873h9.232a.873.873 0 01.873.873v7.8a.873.873 0 01-.873.873zm-8.359-1.745h7.486v-6.056h-7.486zM138.714 41.686h-9.232a.873.873 0 01-.873-.873v-7.8a.873.873 0 01.873-.873h9.232a.873.873 0 01.873.873v7.8a.873.873 0 01-.873.873zm-8.359-1.745h7.486v-6.056h-7.486zM187.614 41.686h-9.232a.873.873 0 01-.873-.873v-7.8a.873.873 0 01.873-.873h9.232a.873.873 0 01.873.873v7.8a.873.873 0 01-.873.873zm-8.359-1.745h7.486v-6.056h-7.486zM285.614 41.686h-9.232a.873.873 0 01-.873-.873v-7.8a.873.873 0 01.873-.873h9.232a.873.873 0 01.873.873v7.8a.873.873 0 01-.873.873zm-8.359-1.745h7.486v-6.056h-7.486zM112.824 58.654h-9.233a.873.873 0 01-.873-.873V48.51a.873.873 0 01.873-.873h9.232a.873.873 0 01.873.873v9.275a.873.873 0 01-.872.869zm-8.359-1.744h7.486v-7.529h-7.486zM161.724 58.654h-9.233a.873.873 0 01-.873-.873V48.51a.873.873 0 01.873-.873h9.232a.873.873 0 01.873.873v9.275a.873.873 0 01-.872.869zm-8.359-1.744h7.486v-7.529h-7.486zM210.724 58.654h-9.233a.873.873 0 01-.873-.873V48.51a.873.873 0 01.873-.873h9.232a.873.873 0 01.873.873v9.275a.873.873 0 01-.872.869zm-8.359-1.744h7.486v-7.529h-7.486zM259.724 58.654h-9.233a.873.873 0 01-.873-.873V48.51a.873.873 0 01.873-.873h9.232a.873.873 0 01.873.873v9.275a.873.873 0 01-.872.869zm-8.359-1.744h7.486v-7.529h-7.486zM125.769 58.654h-9.232a.873.873 0 01-.873-.873V48.51a.873.873 0 01.873-.873h9.232a.873.873 0 01.873.873v9.275a.873.873 0 01-.873.869zm-8.359-1.744h7.486v-7.529h-7.486zM223.669 58.654h-9.232a.873.873 0 01-.873-.873V48.51a.873.873 0 01.873-.873h9.232a.873.873 0 01.873.873v9.275a.873.873 0 01-.873.869zm-8.359-1.744h7.486v-7.529h-7.486zM272.669 58.654h-9.232a.873.873 0 01-.873-.873V48.51a.873.873 0 01.873-.873h9.232a.873.873 0 01.873.873v9.275a.873.873 0 01-.873.869zm-8.359-1.744h7.486v-7.529h-7.486zM138.714 58.654h-9.232a.873.873 0 01-.873-.873V48.51a.873.873 0 01.873-.873h9.232a.873.873 0 01.873.873v9.275a.873.873 0 01-.873.869zm-8.359-1.744h7.486v-7.529h-7.486zM187.614 58.654h-9.232a.873.873 0 01-.873-.873V48.51a.873.873 0 01.873-.873h9.232a.873.873 0 01.873.873v9.275a.873.873 0 01-.873.869zm-8.359-1.744h7.486v-7.529h-7.486zM236.614 58.654h-9.232a.873.873 0 01-.873-.873V48.51a.873.873 0 01.873-.873h9.232a.873.873 0 01.873.873v9.275a.873.873 0 01-.873.869zm-8.359-1.744h7.486v-7.529h-7.486zM285.614 58.654h-9.232a.873.873 0 01-.873-.873V48.51a.873.873 0 01.873-.873h9.232a.873.873 0 01.873.873v9.275a.873.873 0 01-.873.869zm-8.359-1.744h7.486v-7.529h-7.486zM161.724 75.623h-9.233a.873.873 0 01-.873-.873v-8.132a.873.873 0 01.873-.873h9.232a.873.873 0 01.873.873v8.132a.873.873 0 01-.872.873zm-8.359-1.746h7.486v-6.386h-7.486zM210.724 75.623h-9.233a.873.873 0 01-.873-.873v-8.132a.873.873 0 01.873-.873h9.232a.873.873 0 01.873.873v8.132a.873.873 0 01-.872.873zm-8.359-1.746h7.486v-6.386h-7.486zM125.769 75.623h-9.232a.873.873 0 01-.873-.873v-8.132a.873.873 0 01.873-.873h9.232a.873.873 0 01.873.873v8.132a.873.873 0 01-.873.873zm-8.359-1.746h7.486v-6.386h-7.486zM174.669 75.623h-9.232a.873.873 0 01-.873-.873v-8.132a.873.873 0 01.873-.873h9.232a.873.873 0 01.873.873v8.132a.873.873 0 01-.873.873zm-8.359-1.746h7.486v-6.386h-7.486zM223.669 75.623h-9.232a.873.873 0 01-.873-.873v-8.132a.873.873 0 01.873-.873h9.232a.873.873 0 01.873.873v8.132a.873.873 0 01-.873.873zm-8.359-1.746h7.486v-6.386h-7.486zM138.714 75.623h-9.232a.873.873 0 01-.873-.873v-8.132a.873.873 0 01.873-.873h9.232a.873.873 0 01.873.873v8.132a.873.873 0 01-.873.873zm-8.359-1.746h7.486v-6.386h-7.486zM187.614 75.623h-9.232a.873.873 0 01-.873-.873v-8.132a.873.873 0 01.873-.873h9.232a.873.873 0 01.873.873v8.132a.873.873 0 01-.873.873zm-8.359-1.746h7.486v-6.386h-7.486zM236.614 75.623h-9.232a.873.873 0 01-.873-.873v-8.132a.873.873 0 01.873-.873h9.232a.873.873 0 01.873.873v8.132a.873.873 0 01-.873.873zm-8.359-1.746h7.486v-6.386h-7.486zM285.614 75.623h-9.232a.873.873 0 01-.873-.873v-8.132a.873.873 0 01.873-.873h9.232a.873.873 0 01.873.873v8.132a.873.873 0 01-.873.873zm-8.359-1.746h7.486v-6.386h-7.486zM295.227 90.517H94.774c-1.691 0-3.063-.39-3.063-.872s1.372-.873 3.063-.873h200.453c1.691 0 3.063.39 3.063.873s-1.372.872-3.063.872z"/></g></svg>