<svg xmlns="http://www.w3.org/2000/svg" width="390" height="122"><g fill="#e60011"><path d="M265.664 83.277h-6.553a3.792 3.792 0 01-3.21-1.759l-2.8-4.366a1.237 1.237 0 00-1.046-.574h-12.811a1.41 1.41 0 110-2.821h12.814a4.049 4.049 0 013.424 1.874l2.795 4.366a.986.986 0 00.834.457h6.553a.877.877 0 00.871-.983l-3.369-27.961a1.806 1.806 0 00-1.791-1.587h-13.222a1.8 1.8 0 00-1.8 1.8V68.34a1.411 1.411 0 01-2.822 0V51.727a4.632 4.632 0 014.626-4.625h13.223a4.63 4.63 0 014.592 4.072l3.369 27.961a3.7 3.7 0 01-3.673 4.143zM234.623 105.915a5.966 5.966 0 115.967-5.967 5.972 5.972 0 01-5.967 5.967zm0-9.109a3.143 3.143 0 103.144 3.142 3.147 3.147 0 00-3.144-3.142z"/><path d="M234.623 111.675a11.725 11.725 0 1111.726-11.726 11.739 11.739 0 01-11.726 11.726zm0-20.628a8.9 8.9 0 108.9 8.9 8.912 8.912 0 00-8.9-8.901zM276.416 105.317a6.439 6.439 0 116.439-6.439 6.446 6.446 0 01-6.439 6.439zm0-10.056a3.617 3.617 0 103.616 3.618 3.622 3.622 0 00-3.616-3.618zM312.618 96.869h-25.4a1.411 1.411 0 01-1.345-.984 9.87 9.87 0 00-1.248-2.651 1.413 1.413 0 01-.247-.8v-46a4.826 4.826 0 119.652 0v41.254h18.583a4.591 4.591 0 010 9.182zm-24.4-2.822h24.4a1.768 1.768 0 000-3.537h-19.995a1.41 1.41 0 01-1.41-1.411V46.436a2.006 2.006 0 00-4.011 0v45.576a12.075 12.075 0 011.018 2.035zM267.439 76.591a1.4 1.4 0 01-.454-.076l-8.464-2.877a3.8 3.8 0 112.46-7.185l6.288 2.168a1.411 1.411 0 11-.92 2.667l-6.288-2.168a.975.975 0 10-.63 1.846l8.462 2.877a1.412 1.412 0 01-.454 2.748z"/><path d="M258.534 97.824h-14.23a1.411 1.411 0 010-2.822h14.23a1.411 1.411 0 110 2.822zM245.598 84.92h-17.6a1.411 1.411 0 110-2.822h16.194v-6.929a1.411 1.411 0 112.822 0v8.34a1.412 1.412 0 01-1.416 1.411zM276.415 111.675a12.8 12.8 0 1112.8-12.8 12.812 12.812 0 01-12.8 12.8zm0-22.772a9.975 9.975 0 109.974 9.975 9.987 9.987 0 00-9.974-9.975z"/><path d="M265.698 104.106h-21.18a1.412 1.412 0 01-1.359-1.788 8.782 8.782 0 00.365-2.37 8.914 8.914 0 00-8.9-8.9 8.766 8.766 0 00-5.718 2.14 1.412 1.412 0 01-2.323-1.078V78.682a4.932 4.932 0 014.927-4.927h6.324V49.449a7.85 7.85 0 017.842-7.84h15.2a11.124 11.124 0 0110.934 9.426l3.417 22.924h.855a6.174 6.174 0 016.167 6.165v8.258a1.411 1.411 0 01-1.959 1.3 9.9 9.9 0 00-3.141-.739 9.618 9.618 0 00-5.48 1.164 10.2 10.2 0 00-.824.5 10.069 10.069 0 00-1.781 1.558 9.937 9.937 0 00-2.617 6.715c.011.367.021.616.045.862a9.909 9.909 0 00.543 2.481 1.41 1.41 0 01-1.329 1.885zm-19.441-2.824h17.6a12.345 12.345 0 01-.179-1.282 11.107 11.107 0 01-.05-.968l-.006-.155a12.938 12.938 0 015.64-10.611 12.109 12.109 0 011.057-.642 12.811 12.811 0 016.1-1.545 9.239 9.239 0 01.971.05 12.689 12.689 0 012.034.31v-6.315a3.349 3.349 0 00-3.345-3.345h-2.072a1.41 1.41 0 01-1.4-1.2l-3.6-24.126a8.282 8.282 0 00-8.142-7.019h-15.2a5.025 5.025 0 00-5.019 5.018v25.72a1.41 1.41 0 01-1.402 1.41h-7.735a2.107 2.107 0 00-2.1 2.106v10.794a11.39 11.39 0 015.218-1.254 11.739 11.739 0 0111.726 11.725 9.674 9.674 0 01-.096 1.329zM322.329 90.51h-23.2a1.412 1.412 0 01-1.411-1.411V67.164a1.412 1.412 0 011.411-1.411h23.2a1.412 1.412 0 011.411 1.411v21.935a1.412 1.412 0 01-1.411 1.411zm-21.787-2.82h20.371V68.575h-20.371z"/><path d="M319.855 68.576h-23.194a1.411 1.411 0 01-1.411-1.411V45.23a1.411 1.411 0 011.411-1.411h23.194a1.412 1.412 0 011.411 1.411v21.935a1.412 1.412 0 01-1.411 1.411zm-21.782-2.822h20.371V46.641h-20.372z"/><path d="M311.123 52.374h-5.732a1.412 1.412 0 01-1.411-1.411V45.23a1.412 1.412 0 011.411-1.411h5.732a1.412 1.412 0 011.411 1.411v5.732a1.412 1.412 0 01-1.411 1.412zm-4.321-2.822h2.91v-2.91h-2.91zM313.594 75.19h-5.735a1.41 1.41 0 01-1.411-1.411v-6.615a1.412 1.412 0 011.411-1.411h5.732a1.412 1.412 0 011.411 1.411v6.613a1.41 1.41 0 01-1.408 1.413zm-4.321-2.821h2.91v-3.794h-2.91zM308.258 111.675h-83.949a1.411 1.411 0 110-2.822h83.949a1.411 1.411 0 110 2.822z"/></g><path d="M234.376 42.004s-4.85-24.904-10.882-20.617 10.882 20.617 10.882 20.617z" fill="none" stroke="#e60011" stroke-linecap="round" stroke-linejoin="round" stroke-width="3.0015600000000004"/><path d="M228.6 49.812s-22.179-12.295-22.775-4.922 22.776 4.922 22.776 4.922z" fill="none" stroke="#e60011" stroke-linecap="round" stroke-linejoin="round" stroke-width="3.0000599999999995"/><g fill="#e60011"><path d="M47.243 111.675a1.582 1.582 0 01-1.581-1.581V11.581a1.581 1.581 0 013.163 0v98.513a1.582 1.582 0 01-1.582 1.581zM60.315 111.675a1.582 1.582 0 01-1.581-1.581V11.581a1.581 1.581 0 013.163 0v98.513a1.582 1.582 0 01-1.582 1.581zM56.054 106.182h-4.549a1.581 1.581 0 010-3.163h4.549a1.581 1.581 0 110 3.163zM56.054 96.457h-4.549a1.581 1.581 0 010-3.163h4.549a1.581 1.581 0 010 3.163zM56.054 86.732h-4.549a1.581 1.581 0 010-3.163h4.549a1.581 1.581 0 010 3.163zM56.054 77.007h-4.549a1.581 1.581 0 010-3.163h4.549a1.581 1.581 0 010 3.163zM56.054 67.28h-4.549a1.58 1.58 0 010-3.161h4.549a1.58 1.58 0 110 3.161zM56.054 57.557h-4.549a1.581 1.581 0 010-3.163h4.549a1.581 1.581 0 110 3.163zM56.054 47.832h-4.549a1.581 1.581 0 010-3.163h4.549a1.581 1.581 0 010 3.163zM56.054 38.107h-4.549a1.581 1.581 0 010-3.163h4.549a1.581 1.581 0 010 3.163zM56.054 28.379h-4.549a1.581 1.581 0 010-3.163h4.549a1.581 1.581 0 010 3.163zM56.054 18.657h-4.549a1.581 1.581 0 010-3.163h4.549a1.581 1.581 0 010 3.163zM142.347 111.675a1.582 1.582 0 01-1.581-1.581V11.581a1.581 1.581 0 013.163 0v98.513a1.582 1.582 0 01-1.582 1.581zM155.419 111.675a1.582 1.582 0 01-1.581-1.581V11.581a1.581 1.581 0 013.163 0v98.513a1.582 1.582 0 01-1.582 1.581zM151.156 106.182h-4.547a1.581 1.581 0 110-3.163h4.546a1.581 1.581 0 110 3.163zM151.156 96.457h-4.547a1.581 1.581 0 010-3.163h4.546a1.581 1.581 0 010 3.163zM151.156 86.732h-4.547a1.581 1.581 0 110-3.163h4.546a1.581 1.581 0 110 3.163zM151.156 77.007h-4.547a1.581 1.581 0 110-3.163h4.546a1.581 1.581 0 110 3.163zM151.156 67.28h-4.547a1.58 1.58 0 110-3.161h4.546a1.58 1.58 0 110 3.161zM151.156 57.557h-4.547a1.581 1.581 0 110-3.163h4.546a1.581 1.581 0 110 3.163zM151.156 47.832h-4.547a1.581 1.581 0 110-3.163h4.546a1.581 1.581 0 110 3.163zM151.156 38.107h-4.547a1.581 1.581 0 110-3.163h4.546a1.581 1.581 0 110 3.163zM151.156 28.379h-4.547a1.581 1.581 0 110-3.163h4.546a1.581 1.581 0 110 3.163zM151.156 18.657h-4.547a1.581 1.581 0 110-3.163h4.546a1.581 1.581 0 110 3.163z"/><path d="M142.347 98.709H60.315a1.581 1.581 0 110-3.163h82.032a1.581 1.581 0 010 3.163zM142.347 69.997H60.315a1.581 1.581 0 110-3.163h82.032a1.581 1.581 0 010 3.163zM142.347 41.286H60.315a1.581 1.581 0 110-3.163h82.032a1.581 1.581 0 010 3.163z"/><path d="M86.411 69.996H65.193a1.582 1.582 0 01-1.581-1.581v-19.05a1.582 1.582 0 011.581-1.579h21.218a1.58 1.58 0 011.581 1.581v19.05a1.58 1.58 0 01-1.581 1.579zm-19.637-3.162h18.058V50.947H66.774z"/><path d="M78.927 56.25h-6.249a1.582 1.582 0 01-1.581-1.581v-5.3a1.582 1.582 0 011.581-1.583h6.249a1.582 1.582 0 011.581 1.581v5.3a1.582 1.582 0 01-1.581 1.583zm-4.667-3.164h3.088v-2.139H74.26zM73.767 63.07h-4.453a1.58 1.58 0 110-3.161h4.452a1.58 1.58 0 110 3.161zM111.94 69.996H90.722a1.582 1.582 0 01-1.581-1.581v-19.05a1.582 1.582 0 011.581-1.579h21.218a1.582 1.582 0 011.581 1.581v19.05a1.582 1.582 0 01-1.581 1.579zm-19.636-3.162h18.055V50.947H92.304z"/><path d="M104.462 56.25h-6.257a1.58 1.58 0 01-1.579-1.581v-5.3a1.58 1.58 0 011.579-1.583h6.257a1.582 1.582 0 011.581 1.581v5.3a1.582 1.582 0 01-1.581 1.583zm-4.675-3.164h3.09v-2.139h-3.09zM99.296 63.07h-4.453a1.58 1.58 0 110-3.161h4.452a1.58 1.58 0 110 3.161zM137.469 69.996h-21.22a1.582 1.582 0 01-1.581-1.581v-19.05a1.582 1.582 0 011.581-1.579h21.22a1.582 1.582 0 011.581 1.581v19.05a1.582 1.582 0 01-1.581 1.579zm-19.638-3.162h18.057V50.947h-18.057z"/><path d="M129.985 56.25h-6.251a1.582 1.582 0 01-1.581-1.581v-5.3a1.582 1.582 0 011.581-1.583h6.251a1.582 1.582 0 011.581 1.581v5.3a1.582 1.582 0 01-1.581 1.583zm-4.669-3.164h3.088v-2.139h-3.088zM124.823 63.07h-4.45a1.58 1.58 0 110-3.161h4.45a1.58 1.58 0 110 3.161zM86.411 41.285H65.193a1.582 1.582 0 01-1.581-1.581V20.652a1.582 1.582 0 011.581-1.581h21.218a1.58 1.58 0 011.581 1.581v19.052a1.58 1.58 0 01-1.581 1.581zm-19.637-3.16h18.058V22.234H66.774z"/><path d="M78.927 27.539h-6.249a1.582 1.582 0 01-1.581-1.581v-5.306a1.582 1.582 0 011.581-1.581h6.249a1.582 1.582 0 011.581 1.581v5.305a1.582 1.582 0 01-1.581 1.582zm-4.67-3.163h3.088v-2.142H74.26zM73.767 34.356h-4.453a1.581 1.581 0 110-3.163h4.452a1.581 1.581 0 010 3.163zM111.94 41.285H90.722a1.582 1.582 0 01-1.581-1.581V20.652a1.582 1.582 0 011.581-1.581h21.218a1.582 1.582 0 011.581 1.581v19.052a1.582 1.582 0 01-1.581 1.581zm-19.636-3.16h18.055V22.234H92.304z"/><path d="M104.462 27.539h-6.257a1.58 1.58 0 01-1.579-1.581v-5.306a1.58 1.58 0 011.579-1.581h6.257a1.582 1.582 0 011.581 1.581v5.305a1.582 1.582 0 01-1.581 1.582zm-4.671-3.163h3.09v-2.142h-3.09zM99.296 34.356h-4.453a1.581 1.581 0 110-3.163h4.452a1.581 1.581 0 010 3.163zM137.469 41.285h-21.22a1.582 1.582 0 01-1.581-1.581V20.652a1.582 1.582 0 011.581-1.581h21.22a1.582 1.582 0 011.581 1.581v19.052a1.582 1.582 0 01-1.581 1.581zm-19.638-3.16h18.057V22.234h-18.057z"/><path d="M129.985 27.539h-6.251a1.582 1.582 0 01-1.581-1.581v-5.306a1.582 1.582 0 011.581-1.581h6.251a1.582 1.582 0 011.581 1.581v5.305a1.582 1.582 0 01-1.581 1.582zm-4.67-3.163h3.088v-2.142h-3.087zM124.823 34.356h-4.45a1.581 1.581 0 110-3.163h4.45a1.581 1.581 0 010 3.163zM86.411 98.708H65.193a1.582 1.582 0 01-1.581-1.581v-19.05a1.582 1.582 0 011.581-1.581h21.218a1.58 1.58 0 011.581 1.581v19.05a1.58 1.58 0 01-1.581 1.581zm-19.637-3.161h18.058V79.659H66.774z"/><path d="M78.927 84.964h-6.249a1.582 1.582 0 01-1.581-1.581v-5.306a1.582 1.582 0 011.581-1.581h6.249a1.582 1.582 0 011.581 1.581v5.305a1.582 1.582 0 01-1.581 1.582zm-4.67-3.163h3.088v-2.142H74.26zM73.767 91.784h-4.453a1.581 1.581 0 010-3.163h4.452a1.581 1.581 0 010 3.163zM111.94 98.708H90.722a1.582 1.582 0 01-1.581-1.581v-19.05a1.582 1.582 0 011.581-1.581h21.218a1.582 1.582 0 011.581 1.581v19.05a1.582 1.582 0 01-1.581 1.581zm-19.636-3.161h18.055V79.659H92.304z"/><path d="M104.462 84.964h-6.257a1.58 1.58 0 01-1.579-1.581v-5.306a1.58 1.58 0 011.579-1.581h6.257a1.582 1.582 0 011.581 1.581v5.305a1.582 1.582 0 01-1.581 1.582zm-4.671-3.163h3.09v-2.142h-3.09zM99.296 91.784h-4.453a1.581 1.581 0 110-3.163h4.452a1.581 1.581 0 010 3.163zM137.469 98.708h-21.22a1.582 1.582 0 01-1.581-1.581v-19.05a1.582 1.582 0 011.581-1.581h21.22a1.582 1.582 0 011.581 1.581v19.05a1.582 1.582 0 01-1.581 1.581zm-19.638-3.161h18.057V79.659h-18.057z"/><path d="M129.985 84.964h-6.251a1.582 1.582 0 01-1.581-1.581v-5.306a1.582 1.582 0 011.581-1.581h6.251a1.582 1.582 0 011.581 1.581v5.305a1.582 1.582 0 01-1.581 1.582zm-4.67-3.163h3.088v-2.142h-3.087zM124.823 91.784h-4.45a1.581 1.581 0 010-3.163h4.45a1.581 1.581 0 010 3.163z"/></g></svg>