<svg xmlns="http://www.w3.org/2000/svg" width="390" height="122"><g fill="#e60011"><path d="M125.835 67.635h-6.553a3.792 3.792 0 01-3.21-1.759l-2.8-4.366a1.237 1.237 0 00-1.046-.574H99.415a1.41 1.41 0 110-2.821h12.814a4.049 4.049 0 013.424 1.874l2.795 4.366a.986.986 0 00.834.457h6.553a.877.877 0 00.871-.983l-3.369-27.961a1.806 1.806 0 00-1.791-1.587h-13.222a1.8 1.8 0 00-1.8 1.8v16.617a1.411 1.411 0 01-2.822 0V36.085a4.632 4.632 0 014.626-4.625h13.223a4.63 4.63 0 014.592 4.072l3.369 27.961a3.7 3.7 0 01-3.673 4.143zM94.794 90.273a5.966 5.966 0 115.967-5.967 5.972 5.972 0 01-5.967 5.967zm0-9.109a3.143 3.143 0 103.144 3.142 3.147 3.147 0 00-3.144-3.142z"/><path d="M94.794 96.033a11.725 11.725 0 1111.726-11.726 11.739 11.739 0 01-11.726 11.726zm0-20.628a8.9 8.9 0 108.9 8.9 8.912 8.912 0 00-8.9-8.901zM136.587 89.675a6.439 6.439 0 116.439-6.439 6.446 6.446 0 01-6.439 6.439zm0-10.056a3.617 3.617 0 103.616 3.618 3.622 3.622 0 00-3.616-3.618zM172.789 81.227h-25.4a1.411 1.411 0 01-1.345-.984 9.87 9.87 0 00-1.248-2.651 1.413 1.413 0 01-.247-.8v-46a4.826 4.826 0 119.652 0v41.254h18.583a4.591 4.591 0 010 9.182zm-24.4-2.822h24.4a1.768 1.768 0 000-3.537h-19.995a1.41 1.41 0 01-1.41-1.411V30.794a2.006 2.006 0 00-4.011 0V76.37a12.075 12.075 0 011.018 2.035zM127.61 60.949a1.4 1.4 0 01-.454-.076l-8.464-2.877a3.8 3.8 0 112.46-7.185l6.288 2.168a1.411 1.411 0 11-.92 2.667l-6.288-2.168a.975.975 0 10-.63 1.846l8.462 2.877a1.412 1.412 0 01-.454 2.748z"/><path d="M118.705 82.182h-14.23a1.411 1.411 0 010-2.822h14.23a1.411 1.411 0 110 2.822zM105.769 69.278h-17.6a1.411 1.411 0 110-2.822h16.194v-6.929a1.411 1.411 0 112.822 0v8.34a1.412 1.412 0 01-1.416 1.411zM136.586 96.033a12.8 12.8 0 1112.8-12.8 12.812 12.812 0 01-12.8 12.8zm0-22.772a9.975 9.975 0 109.974 9.975 9.987 9.987 0 00-9.974-9.975z"/><path d="M125.869 88.464h-21.18a1.412 1.412 0 01-1.359-1.788 8.782 8.782 0 00.365-2.37 8.914 8.914 0 00-8.9-8.9 8.766 8.766 0 00-5.718 2.14 1.412 1.412 0 01-2.323-1.078V63.04a4.932 4.932 0 014.927-4.927h6.324V33.807a7.85 7.85 0 017.842-7.84h15.2a11.124 11.124 0 0110.934 9.426l3.417 22.924h.855a6.174 6.174 0 016.167 6.165v8.258a1.411 1.411 0 01-1.959 1.3 9.9 9.9 0 00-3.141-.739 9.618 9.618 0 00-5.48 1.164 10.2 10.2 0 00-.824.5 10.069 10.069 0 00-1.781 1.558 9.937 9.937 0 00-2.617 6.715c.011.367.021.616.045.862a9.909 9.909 0 00.543 2.481 1.41 1.41 0 01-1.329 1.885zm-19.441-2.824h17.6a12.345 12.345 0 01-.179-1.282 11.107 11.107 0 01-.05-.968l-.006-.155a12.938 12.938 0 015.64-10.611 12.109 12.109 0 011.057-.642 12.811 12.811 0 016.1-1.545 9.239 9.239 0 01.971.05 12.689 12.689 0 012.034.31v-6.315a3.349 3.349 0 00-3.345-3.345h-2.072a1.41 1.41 0 01-1.4-1.2l-3.6-24.126a8.282 8.282 0 00-8.142-7.019h-15.2a5.025 5.025 0 00-5.019 5.018v25.72a1.41 1.41 0 01-1.402 1.41H91.68a2.107 2.107 0 00-2.1 2.106V73.84a11.39 11.39 0 015.218-1.254 11.739 11.739 0 0111.726 11.725 9.674 9.674 0 01-.096 1.329zM182.5 74.868h-23.2a1.412 1.412 0 01-1.411-1.411V51.522a1.412 1.412 0 011.411-1.411h23.2a1.412 1.412 0 011.411 1.411v21.935a1.412 1.412 0 01-1.411 1.411zm-21.787-2.82h20.371V52.933h-20.371z"/><path d="M180.026 52.934h-23.194a1.411 1.411 0 01-1.411-1.411V29.588a1.411 1.411 0 011.411-1.411h23.194a1.412 1.412 0 011.411 1.411v21.935a1.412 1.412 0 01-1.411 1.411zm-21.782-2.822h20.371V30.999h-20.372z"/><path d="M171.294 36.732h-5.732a1.412 1.412 0 01-1.411-1.411v-5.733a1.412 1.412 0 011.411-1.411h5.732a1.412 1.412 0 011.411 1.411v5.732a1.412 1.412 0 01-1.411 1.412zm-4.321-2.822h2.91V31h-2.91zM173.765 59.548h-5.735a1.41 1.41 0 01-1.411-1.411v-6.615a1.412 1.412 0 011.411-1.411h5.732a1.412 1.412 0 011.411 1.411v6.613a1.41 1.41 0 01-1.408 1.413zm-4.321-2.821h2.91v-3.794h-2.91zM168.429 96.033H84.48a1.411 1.411 0 110-2.822h83.949a1.411 1.411 0 110 2.822z"/></g><path d="M262.115 35.409l-.2-.012h-.431l-.2.012a6.791 6.791 0 00-.676.081l-1.094.191-.207-2.271a6.357 6.357 0 00-9.456-4.238l-.695.408-.62-.525a6.352 6.352 0 00-10.347 3.676l-.217 1.152-1.147-.255a6.358 6.358 0 00-7.748 6.2v.587l-4.97-3.497v7.837l-2.919.237 3.995 8.521 3.9-2.049v8.5l-2.077-3.078c-.251-.372-.5-.72-.741-1.031a10.528 10.528 0 00-1.928-1.963 7.042 7.042 0 00-1.454-.862 6.528 6.528 0 00-2.09-.535 6.355 6.355 0 00-.524-.021 6.367 6.367 0 00-4.679 2.057 6.3 6.3 0 00-1.585 5.359 31.064 31.064 0 001.261 4.293c1.189 3.389 3.033 7.925 5.479 13.484a37.236 37.236 0 0010.53 13.978 23.561 23.561 0 0014.594 4.71c9.836 0 17.8-5.263 20.793-13.735a23.323 23.323 0 001.4-7.5V41.755a6.368 6.368 0 00-5.947-6.346zm-29.733 4.421a3.053 3.053 0 016.106 0v.115h-6.106zm0 2.046h6.106v1.841l-6.106 3.894zm0 8.025l6.106-3.893v6.318h-6.106zm-3.321-1.062l-2.808 1.476-1.534-3.277 4.357-.354zm-2.627-3.877v-3.558l2.643 1.861v1.482zm38.319 30.143a19.937 19.937 0 01-1.2 6.41c-2.879 8.14-10.42 11.532-17.684 11.532a20.364 20.364 0 01-12.522-3.975 34.118 34.118 0 01-9.585-12.738c-2.89-6.568-4.492-10.7-5.384-13.244a26.139 26.139 0 01-1.122-3.749 3.053 3.053 0 013.006-3.567l.257.012a3.241 3.241 0 011.027.263 3.8 3.8 0 01.781.464 7.194 7.194 0 011.315 1.353 38.376 38.376 0 013.812 6.665 13.919 13.919 0 002.107 3.31 4.19 4.19 0 001.45 1.128 1.165 1.165 0 00.446.1.671.671 0 00.295-.066 1.009 1.009 0 00.314-.237 1.146 1.146 0 00.316-.69V54.255h6.105v6.7h2.9V33.91a3.052 3.052 0 016.1 0v27.045h2.528v-26.3a3.052 3.052 0 116.1 0v26.3h2.528v-19.2a3.052 3.052 0 116.1 0v33.35z" fill="#e60011"/><path d="M302.007 43.7l-5.667-2.524 9.052-9.24-11.342-5.05-9.213 15.14 4.64 2.065-7.98 12.371z" fill="none" stroke="#e60011" stroke-linecap="round" stroke-linejoin="round" stroke-width="3.0015600000000004"/></svg>