<svg xmlns="http://www.w3.org/2000/svg" width="390" height="122"><g fill="#e60011"><path d="M223.641 91.503v-61a2.758 2.758 0 012.755-2.756h79.811a2.759 2.759 0 012.756 2.756v61a2.759 2.759 0 01-2.756 2.755h-79.811a2.758 2.758 0 01-2.755-2.755zm82.86-61a.3.3 0 00-.295-.295h-79.811a.3.3 0 00-.295.295v61a.294.294 0 00.295.293h79.812a.294.294 0 00.295-.293z"/><path d="M232.022 84.106V37.898a2.464 2.464 0 012.462-2.462h63.634a2.464 2.464 0 012.462 2.462v46.208a2.465 2.465 0 01-2.462 2.462h-63.635a2.465 2.465 0 01-2.461-2.462zm66.1-46.208h-63.635v46.21h63.631z"/><path d="M283.116 85.337v-10.9a1.231 1.231 0 012.462 0v10.9a1.231 1.231 0 01-2.462 0zM277.541 44.226a3.713 3.713 0 013.709-3.709h6.2a3.709 3.709 0 110 7.417h-6.2a3.713 3.713 0 01-3.709-3.708zm11.153 0a1.249 1.249 0 00-1.248-1.248h-6.2a1.247 1.247 0 100 2.494h6.2a1.249 1.249 0 001.248-1.246zM277.541 53.47a3.713 3.713 0 013.709-3.708h6.2a3.709 3.709 0 110 7.417h-6.2a3.713 3.713 0 01-3.709-3.709zm11.153 0a1.249 1.249 0 00-1.248-1.246h-6.2a1.247 1.247 0 100 2.494h6.2a1.249 1.249 0 001.248-1.248zM277.541 62.717a3.713 3.713 0 013.709-3.709h6.2a3.709 3.709 0 010 7.418h-6.2a3.713 3.713 0 01-3.709-3.709zm11.153 0a1.25 1.25 0 00-1.248-1.249h-6.2a1.25 1.25 0 000 2.5h6.2a1.249 1.249 0 001.248-1.251z"/><path d="M277.541 71.963a3.713 3.713 0 013.709-3.709h6.2a3.709 3.709 0 110 7.417h-6.2a3.712 3.712 0 01-3.709-3.708zm11.153 0a1.249 1.249 0 00-1.248-1.248h-6.2a1.25 1.25 0 000 2.5h6.2a1.25 1.25 0 001.248-1.252zM265.071 85.337v-10.9a1.231 1.231 0 112.462 0v10.9a1.231 1.231 0 01-2.462 0zM259.496 44.226a3.713 3.713 0 013.709-3.709h6.195a3.709 3.709 0 110 7.417h-6.195a3.713 3.713 0 01-3.709-3.708zm11.152 0a1.249 1.249 0 00-1.248-1.248h-6.195a1.247 1.247 0 100 2.494h6.195a1.249 1.249 0 001.247-1.246zM259.496 53.47a3.713 3.713 0 013.709-3.708h6.195a3.709 3.709 0 110 7.417h-6.195a3.713 3.713 0 01-3.709-3.709zm11.152 0a1.249 1.249 0 00-1.248-1.246h-6.195a1.247 1.247 0 100 2.494h6.195a1.249 1.249 0 001.247-1.248zM259.496 62.717a3.713 3.713 0 013.709-3.709h6.195a3.709 3.709 0 010 7.418h-6.195a3.713 3.713 0 01-3.709-3.709zm11.152 0a1.25 1.25 0 00-1.248-1.249h-6.195a1.25 1.25 0 100 2.5h6.195a1.249 1.249 0 001.247-1.251z"/><path d="M259.496 71.963a3.713 3.713 0 013.709-3.709h6.195a3.709 3.709 0 110 7.417h-6.195a3.712 3.712 0 01-3.709-3.708zm11.152 0a1.249 1.249 0 00-1.248-1.248h-6.195a1.25 1.25 0 100 2.5h6.195a1.25 1.25 0 001.247-1.252zM247.024 85.337v-10.9a1.231 1.231 0 012.462 0v10.9a1.231 1.231 0 01-2.462 0zM241.449 44.226a3.713 3.713 0 013.709-3.709h6.195a3.709 3.709 0 110 7.417h-6.195a3.713 3.713 0 01-3.709-3.708zm11.152 0a1.249 1.249 0 00-1.248-1.248h-6.195a1.247 1.247 0 100 2.494h6.195a1.249 1.249 0 001.247-1.246zM241.449 53.47a3.713 3.713 0 013.709-3.708h6.195a3.709 3.709 0 110 7.417h-6.195a3.713 3.713 0 01-3.709-3.709zm11.152 0a1.249 1.249 0 00-1.248-1.246h-6.195a1.247 1.247 0 100 2.494h6.195a1.249 1.249 0 001.247-1.248zM241.449 62.717a3.713 3.713 0 013.709-3.709h6.195a3.709 3.709 0 010 7.418h-6.195a3.713 3.713 0 01-3.709-3.709zm11.152 0a1.25 1.25 0 00-1.248-1.249h-6.195a1.25 1.25 0 000 2.5h6.195a1.249 1.249 0 001.247-1.251zM283.116 69.484v-4.289a1.231 1.231 0 012.462 0v4.289a1.231 1.231 0 11-2.462 0zM283.116 60.237v-4.289a1.231 1.231 0 112.462 0v4.289a1.231 1.231 0 01-2.462 0zM283.116 50.993v-4.294a1.231 1.231 0 012.462 0v4.29a1.231 1.231 0 11-2.462 0zM283.116 41.748v-5.081a1.231 1.231 0 112.462 0v5.081a1.231 1.231 0 01-2.462 0z"/><path d="M265.071 69.484v-4.289a1.231 1.231 0 012.462 0v4.289a1.231 1.231 0 11-2.462 0zM265.071 60.237v-4.289a1.231 1.231 0 112.462 0v4.289a1.231 1.231 0 11-2.462 0zM265.071 50.993v-4.294a1.231 1.231 0 012.462 0v4.29a1.231 1.231 0 11-2.462 0zM265.071 41.748v-5.081a1.231 1.231 0 112.462 0v5.081a1.231 1.231 0 01-2.462 0zM247.024 74.441v-9.246a1.231 1.231 0 012.462 0v9.246a1.231 1.231 0 01-2.462 0zM247.024 60.237v-4.289a1.231 1.231 0 112.462 0v4.289a1.231 1.231 0 01-2.462 0zM247.024 50.993v-4.294a1.231 1.231 0 012.462 0v4.29a1.231 1.231 0 11-2.462 0zM247.01 38.732c0-2.56.069-2.629.372-2.934l.873.868 1.225.1c-.016.283-.008 2.767.006 4.972a1.231 1.231 0 01-2.462.014c-.007-1.273-.014-2.257-.014-3.02z"/></g><path d="M97.657 34.853s-17.719 5.952-17.854 0 16.952-17.41 17.854-12.654-25.044 18.12-27.018 12.654 26.4-29.329 27.018-24.108-32.644 20.786-34.532 15.561c-.57-1.578 1.788-4.5 5.838-8.1C76.819 11.201 91.745 2.27 92.419 4.844" fill="none" stroke="#e60011" stroke-linecap="round" stroke-linejoin="round" stroke-width="3"/><g fill="#e60011"><path d="M126.684 55.52a12.39 12.39 0 1112.389-12.39 12.4 12.4 0 01-12.389 12.39zm0-21.9a9.511 9.511 0 109.509 9.511 9.521 9.521 0 00-9.509-9.512zM114.663 87.233a1.44 1.44 0 01-1.44-1.44v-11.2a1.44 1.44 0 012.88 0v11.2a1.439 1.439 0 01-1.44 1.44zM138.703 82.233a1.44 1.44 0 01-1.44-1.44v-6.2a1.44 1.44 0 112.88 0v6.2a1.44 1.44 0 01-1.44 1.44z"/><path d="M196.159 94.159h-97.04a1.44 1.44 0 01-1.44-1.44v-6.923a1.44 1.44 0 011.44-1.44h97.04a1.44 1.44 0 011.44 1.44v6.923a1.44 1.44 0 01-1.44 1.44zm-95.6-2.88h94.16v-4.043h-94.16z"/><path d="M192.194 102.153h-89.112a1.439 1.439 0 01-1.438-1.44V92.72a1.439 1.439 0 011.438-1.44h89.112a1.439 1.439 0 011.44 1.44v7.993a1.439 1.439 0 01-1.44 1.44zm-87.672-2.88h86.234V94.16h-86.234z"/><path d="M186.091 107.816a1.439 1.439 0 01-1.44-1.44v-4.223h-74.022v4.223a1.44 1.44 0 11-2.88 0v-5.66a1.439 1.439 0 011.44-1.44h76.9a1.44 1.44 0 011.44 1.44v5.662a1.44 1.44 0 01-1.438 1.438zM181.277 87.238h-22.279a1.44 1.44 0 01-1.44-1.44v-2.99a4.055 4.055 0 014.053-4.051h17.053a4.055 4.055 0 014.053 4.051v2.989a1.44 1.44 0 01-1.44 1.441zm-20.839-2.88h19.4v-1.55a1.173 1.173 0 00-1.173-1.171h-17.054a1.173 1.173 0 00-1.173 1.171z"/><path d="M176.62 81.637h-12.966a1.44 1.44 0 01-1.44-1.44v-6.294a1.439 1.439 0 011.44-1.438h12.966a1.439 1.439 0 011.44 1.438v6.294a1.44 1.44 0 01-1.44 1.44zm-11.526-2.876h10.086v-3.414h-10.086z"/><path d="M184.58 75.343h-28.755a2.953 2.953 0 01-2.951-2.949v-17.5a2.953 2.953 0 012.951-2.951h28.759a2.954 2.954 0 012.951 2.951v17.5a2.954 2.954 0 01-2.955 2.949zm-28.755-20.515l-.071 17.566 28.83.071.071-17.566-.071-.071z"/><path d="M170.199 68.138a4.492 4.492 0 114.493-4.493 4.5 4.5 0 01-4.493 4.493zm0-6.1a1.612 1.612 0 101.613 1.611 1.612 1.612 0 00-1.613-1.615zM151.227 87.237h-29.17a1.44 1.44 0 01-1.44-1.44v-1.983a4.465 4.465 0 014.46-4.46h23.128a4.465 4.465 0 014.462 4.46v1.983a1.44 1.44 0 01-1.44 1.44zm-27.73-2.88h26.29v-.543a1.584 1.584 0 00-1.582-1.58h-23.127a1.582 1.582 0 00-1.58 1.58z"/><path d="M122.057 87.236h-17.652a1.439 1.439 0 01-1.44-1.44V67.011a8.718 8.718 0 018.709-8.707h30.018a8.717 8.717 0 018.707 8.707v13.89a1.438 1.438 0 01-1.8 1.392 1.619 1.619 0 00-.391-.059h-23.132a1.582 1.582 0 00-1.58 1.58v1.983a1.44 1.44 0 01-1.439 1.439zm-16.212-2.88h14.772v-.543a4.465 4.465 0 014.46-4.46h22.444V67.011a5.835 5.835 0 00-5.829-5.827h-30.016a5.835 5.835 0 00-5.829 5.827z"/></g></svg>