<svg xmlns="http://www.w3.org/2000/svg" width="390" height="122" viewBox="0 0 390 122"><g transform="translate(-2688 -2378)"><rect width="390" height="122" transform="translate(2688 2378)" fill="#fff" opacity="0"/><g transform="translate(2703.933 2358.924)"><path d="M25.309,130.913a1.582,1.582,0,0,1-1.581-1.581V30.819a1.581,1.581,0,0,1,3.163,0v98.513A1.582,1.582,0,0,1,25.309,130.913Z" fill="#e60011"/><path d="M32.526,130.913a1.582,1.582,0,0,1-1.581-1.581V30.819a1.581,1.581,0,0,1,3.163,0v98.513A1.582,1.582,0,0,1,32.526,130.913Z" transform="translate(5.855)" fill="#e60011"/><path d="M32.21,83.755H27.661a1.581,1.581,0,0,1,0-3.163H32.21a1.581,1.581,0,1,1,0,3.163Z" transform="translate(1.91 41.665)" fill="#e60011"/><path d="M32.21,78.386H27.661a1.581,1.581,0,0,1,0-3.163H32.21a1.581,1.581,0,0,1,0,3.163Z" transform="translate(1.91 37.309)" fill="#e60011"/><path d="M32.21,73.017H27.661a1.581,1.581,0,0,1,0-3.163H32.21a1.581,1.581,0,0,1,0,3.163Z" transform="translate(1.91 32.953)" fill="#e60011"/><path d="M32.21,67.648H27.661a1.581,1.581,0,0,1,0-3.163H32.21a1.581,1.581,0,0,1,0,3.163Z" transform="translate(1.91 28.597)" fill="#e60011"/><path d="M32.21,62.277H27.661a1.58,1.58,0,0,1,0-3.161H32.21a1.58,1.58,0,1,1,0,3.161Z" transform="translate(1.91 24.241)" fill="#e60011"/><path d="M32.21,56.91H27.661a1.581,1.581,0,0,1,0-3.163H32.21a1.581,1.581,0,1,1,0,3.163Z" transform="translate(1.91 19.885)" fill="#e60011"/><path d="M32.21,51.541H27.661a1.581,1.581,0,0,1,0-3.163H32.21a1.581,1.581,0,0,1,0,3.163Z" transform="translate(1.91 15.529)" fill="#e60011"/><path d="M32.21,46.172H27.661a1.581,1.581,0,0,1,0-3.163H32.21a1.581,1.581,0,0,1,0,3.163Z" transform="translate(1.91 11.173)" fill="#e60011"/><path d="M32.21,40.8H27.661a1.581,1.581,0,0,1,0-3.163H32.21a1.581,1.581,0,0,1,0,3.163Z" transform="translate(1.91 6.817)" fill="#e60011"/><path d="M32.21,35.434H27.661a1.581,1.581,0,0,1,0-3.163H32.21a1.581,1.581,0,0,1,0,3.163Z" transform="translate(1.91 2.461)" fill="#e60011"/><path d="M77.814,130.913a1.582,1.582,0,0,1-1.581-1.581V30.819a1.581,1.581,0,0,1,3.163,0v98.513A1.582,1.582,0,0,1,77.814,130.913Z" transform="translate(42.599)" fill="#e60011"/><path d="M85.031,130.913a1.582,1.582,0,0,1-1.581-1.581V30.819a1.581,1.581,0,0,1,3.163,0v98.513A1.582,1.582,0,0,1,85.031,130.913Z" transform="translate(48.454)" fill="#e60011"/><path d="M84.714,83.755H80.167a1.581,1.581,0,1,1,0-3.163h4.546a1.581,1.581,0,1,1,0,3.163Z" transform="translate(44.508 41.665)" fill="#e60011"/><path d="M84.714,78.386H80.167a1.581,1.581,0,0,1,0-3.163h4.546a1.581,1.581,0,0,1,0,3.163Z" transform="translate(44.508 37.309)" fill="#e60011"/><path d="M84.714,73.017H80.167a1.581,1.581,0,1,1,0-3.163h4.546a1.581,1.581,0,1,1,0,3.163Z" transform="translate(44.508 32.953)" fill="#e60011"/><path d="M84.714,67.648H80.167a1.581,1.581,0,1,1,0-3.163h4.546a1.581,1.581,0,1,1,0,3.163Z" transform="translate(44.508 28.597)" fill="#e60011"/><path d="M84.714,62.277H80.167a1.58,1.58,0,1,1,0-3.161h4.546a1.58,1.58,0,1,1,0,3.161Z" transform="translate(44.508 24.241)" fill="#e60011"/><path d="M84.714,56.91H80.167a1.581,1.581,0,1,1,0-3.163h4.546a1.581,1.581,0,1,1,0,3.163Z" transform="translate(44.508 19.885)" fill="#e60011"/><path d="M84.714,51.541H80.167a1.581,1.581,0,1,1,0-3.163h4.546a1.581,1.581,0,1,1,0,3.163Z" transform="translate(44.508 15.529)" fill="#e60011"/><path d="M84.714,46.172H80.167a1.581,1.581,0,1,1,0-3.163h4.546a1.581,1.581,0,1,1,0,3.163Z" transform="translate(44.508 11.173)" fill="#e60011"/><path d="M84.714,40.8H80.167a1.581,1.581,0,1,1,0-3.163h4.546a1.581,1.581,0,1,1,0,3.163Z" transform="translate(44.508 6.817)" fill="#e60011"/><path d="M84.714,35.434H80.167a1.581,1.581,0,1,1,0-3.163h4.546a1.581,1.581,0,1,1,0,3.163Z" transform="translate(44.508 2.461)" fill="#e60011"/><path d="M114.558,79.629H32.526a1.581,1.581,0,1,1,0-3.163h82.032a1.581,1.581,0,0,1,0,3.163Z" transform="translate(5.855 38.318)" fill="#e60011"/><path d="M114.558,63.778H32.526a1.581,1.581,0,1,1,0-3.163h82.032a1.581,1.581,0,0,1,0,3.163Z" transform="translate(5.855 25.457)" fill="#e60011"/><path d="M114.558,47.927H32.526a1.581,1.581,0,1,1,0-3.163h82.032a1.581,1.581,0,0,1,0,3.163Z" transform="translate(5.855 12.597)" fill="#e60011"/><path d="M56.437,72.31H35.219a1.582,1.582,0,0,1-1.581-1.581V51.679A1.582,1.582,0,0,1,35.219,50.1H56.437a1.58,1.58,0,0,1,1.581,1.581v19.05A1.58,1.58,0,0,1,56.437,72.31ZM36.8,69.148H54.858V53.261H36.8Z" transform="translate(8.04 16.924)" fill="#e60011"/><path d="M45.6,58.564H39.351a1.582,1.582,0,0,1-1.581-1.581v-5.3A1.582,1.582,0,0,1,39.351,50.1H45.6a1.582,1.582,0,0,1,1.581,1.581v5.3A1.582,1.582,0,0,1,45.6,58.564ZM40.933,55.4h3.088V53.261H40.933Z" transform="translate(11.393 16.924)" fill="#e60011"/><path d="M41.947,59.953H37.494a1.58,1.58,0,1,1,0-3.161h4.452a1.58,1.58,0,1,1,0,3.161Z" transform="translate(9.886 22.355)" fill="#e60011"/><path d="M70.531,72.31H49.313a1.582,1.582,0,0,1-1.581-1.581V51.679A1.582,1.582,0,0,1,49.313,50.1H70.531a1.582,1.582,0,0,1,1.581,1.581v19.05A1.582,1.582,0,0,1,70.531,72.31ZM50.895,69.148H68.95V53.261H50.895Z" transform="translate(19.475 16.924)" fill="#e60011"/><path d="M59.7,58.564H53.443a1.58,1.58,0,0,1-1.579-1.581v-5.3A1.58,1.58,0,0,1,53.443,50.1H59.7a1.582,1.582,0,0,1,1.581,1.581v5.3A1.582,1.582,0,0,1,59.7,58.564ZM55.025,55.4h3.09V53.261h-3.09Z" transform="translate(22.828 16.924)" fill="#e60011"/><path d="M56.041,59.953H51.588a1.58,1.58,0,1,1,0-3.161h4.452a1.58,1.58,0,1,1,0,3.161Z" transform="translate(21.321 22.355)" fill="#e60011"/><path d="M84.626,72.31H63.406a1.582,1.582,0,0,1-1.581-1.581V51.679A1.582,1.582,0,0,1,63.406,50.1h21.22a1.582,1.582,0,0,1,1.581,1.581v19.05A1.582,1.582,0,0,1,84.626,72.31ZM64.988,69.148H83.045V53.261H64.988Z" transform="translate(30.909 16.924)" fill="#e60011"/><path d="M73.789,58.564H67.538a1.582,1.582,0,0,1-1.581-1.581v-5.3A1.582,1.582,0,0,1,67.538,50.1h6.251a1.582,1.582,0,0,1,1.581,1.581v5.3A1.582,1.582,0,0,1,73.789,58.564ZM69.12,55.4h3.088V53.261H69.12Z" transform="translate(34.262 16.924)" fill="#e60011"/><path d="M70.133,59.953h-4.45a1.58,1.58,0,1,1,0-3.161h4.45a1.58,1.58,0,1,1,0,3.161Z" transform="translate(32.756 22.355)" fill="#e60011"/><path d="M56.437,56.46H35.219a1.582,1.582,0,0,1-1.581-1.581V35.827a1.582,1.582,0,0,1,1.581-1.581H56.437a1.58,1.58,0,0,1,1.581,1.581V54.879A1.58,1.58,0,0,1,56.437,56.46ZM36.8,53.3H54.858V37.409H36.8Z" transform="translate(8.04 4.063)" fill="#e60011"/><path d="M45.6,42.714H39.351a1.582,1.582,0,0,1-1.581-1.581V35.827a1.582,1.582,0,0,1,1.581-1.581H45.6a1.582,1.582,0,0,1,1.581,1.581v5.305A1.582,1.582,0,0,1,45.6,42.714Zm-4.67-3.163h3.088V37.409H40.933Z" transform="translate(11.393 4.063)" fill="#e60011"/><path d="M41.947,44.1H37.494a1.581,1.581,0,1,1,0-3.163h4.452a1.581,1.581,0,0,1,0,3.163Z" transform="translate(9.886 9.494)" fill="#e60011"/><path d="M70.531,56.46H49.313a1.582,1.582,0,0,1-1.581-1.581V35.827a1.582,1.582,0,0,1,1.581-1.581H70.531a1.582,1.582,0,0,1,1.581,1.581V54.879A1.582,1.582,0,0,1,70.531,56.46ZM50.895,53.3H68.95V37.409H50.895Z" transform="translate(19.475 4.063)" fill="#e60011"/><path d="M59.7,42.714H53.443a1.58,1.58,0,0,1-1.579-1.581V35.827a1.58,1.58,0,0,1,1.579-1.581H59.7a1.582,1.582,0,0,1,1.581,1.581v5.305A1.582,1.582,0,0,1,59.7,42.714Zm-4.671-3.163h3.09V37.409h-3.09Z" transform="translate(22.828 4.063)" fill="#e60011"/><path d="M56.041,44.1H51.588a1.581,1.581,0,1,1,0-3.163h4.452a1.581,1.581,0,0,1,0,3.163Z" transform="translate(21.321 9.494)" fill="#e60011"/><path d="M84.626,56.46H63.406a1.582,1.582,0,0,1-1.581-1.581V35.827a1.582,1.582,0,0,1,1.581-1.581h21.22a1.582,1.582,0,0,1,1.581,1.581V54.879A1.582,1.582,0,0,1,84.626,56.46ZM64.988,53.3H83.045V37.409H64.988Z" transform="translate(30.909 4.063)" fill="#e60011"/><path d="M73.789,42.714H67.538a1.582,1.582,0,0,1-1.581-1.581V35.827a1.582,1.582,0,0,1,1.581-1.581h6.251a1.582,1.582,0,0,1,1.581,1.581v5.305A1.582,1.582,0,0,1,73.789,42.714Zm-4.67-3.163h3.088V37.409H69.12Z" transform="translate(34.262 4.063)" fill="#e60011"/><path d="M70.133,44.1h-4.45a1.581,1.581,0,1,1,0-3.163h4.45a1.581,1.581,0,0,1,0,3.163Z" transform="translate(32.756 9.494)" fill="#e60011"/><path d="M56.437,88.161H35.219a1.582,1.582,0,0,1-1.581-1.581V67.53a1.582,1.582,0,0,1,1.581-1.581H56.437a1.58,1.58,0,0,1,1.581,1.581V86.58A1.58,1.58,0,0,1,56.437,88.161ZM36.8,85H54.858V69.112H36.8Z" transform="translate(8.04 29.785)" fill="#e60011"/><path d="M45.6,74.417H39.351a1.582,1.582,0,0,1-1.581-1.581V67.53a1.582,1.582,0,0,1,1.581-1.581H45.6a1.582,1.582,0,0,1,1.581,1.581v5.305A1.582,1.582,0,0,1,45.6,74.417Zm-4.67-3.163h3.088V69.112H40.933Z" transform="translate(11.393 29.785)" fill="#e60011"/><path d="M41.947,75.806H37.494a1.581,1.581,0,0,1,0-3.163h4.452a1.581,1.581,0,0,1,0,3.163Z" transform="translate(9.886 35.216)" fill="#e60011"/><path d="M70.531,88.161H49.313a1.582,1.582,0,0,1-1.581-1.581V67.53a1.582,1.582,0,0,1,1.581-1.581H70.531a1.582,1.582,0,0,1,1.581,1.581V86.58A1.582,1.582,0,0,1,70.531,88.161ZM50.895,85H68.95V69.112H50.895Z" transform="translate(19.475 29.785)" fill="#e60011"/><path d="M59.7,74.417H53.443a1.58,1.58,0,0,1-1.579-1.581V67.53a1.58,1.58,0,0,1,1.579-1.581H59.7a1.582,1.582,0,0,1,1.581,1.581v5.305A1.582,1.582,0,0,1,59.7,74.417Zm-4.671-3.163h3.09V69.112h-3.09Z" transform="translate(22.828 29.785)" fill="#e60011"/><path d="M56.041,75.806H51.588a1.581,1.581,0,1,1,0-3.163h4.452a1.581,1.581,0,0,1,0,3.163Z" transform="translate(21.321 35.216)" fill="#e60011"/><path d="M84.626,88.161H63.406a1.582,1.582,0,0,1-1.581-1.581V67.53a1.582,1.582,0,0,1,1.581-1.581h21.22a1.582,1.582,0,0,1,1.581,1.581V86.58A1.582,1.582,0,0,1,84.626,88.161ZM64.988,85H83.045V69.112H64.988Z" transform="translate(30.909 29.785)" fill="#e60011"/><path d="M73.789,74.417H67.538a1.582,1.582,0,0,1-1.581-1.581V67.53a1.582,1.582,0,0,1,1.581-1.581h6.251A1.582,1.582,0,0,1,75.37,67.53v5.305A1.582,1.582,0,0,1,73.789,74.417Zm-4.67-3.163h3.088V69.112H69.12Z" transform="translate(34.262 29.785)" fill="#e60011"/><path d="M70.133,75.806h-4.45a1.581,1.581,0,0,1,0-3.163h4.45a1.581,1.581,0,0,1,0,3.163Z" transform="translate(32.756 35.216)" fill="#e60011"/></g><g transform="translate(2823.16 1967.963)"><path d="M170.366,521.874a13.7,13.7,0,0,1-13.683-13.683V494.9h-49.7v13.288a10.551,10.551,0,0,0,10.538,10.538h30.647v-17.8a1.573,1.573,0,1,1,3.145,0V520.3a1.572,1.572,0,0,1-1.574,1.572H117.525a13.7,13.7,0,0,1-13.685-13.683V493.329a1.573,1.573,0,0,1,1.574-1.574h52.843a1.573,1.573,0,0,1,1.574,1.574v14.862a10.537,10.537,0,1,0,21.073,0V433.606a13.407,13.407,0,0,1,26.814,0v11.286a1.574,1.574,0,0,1-1.574,1.574H190.931v46.864a1.574,1.574,0,0,1-3.147,0V444.892a1.573,1.573,0,0,1,1.574-1.574h15.213v-9.712a10.261,10.261,0,0,0-20.522,0v74.585A13.7,13.7,0,0,1,170.366,521.874Z" transform="translate(0)" fill="#e60011"/><path d="M109.486,494.9a1.574,1.574,0,0,1-1.574-1.574V435.58A15.4,15.4,0,0,1,123.293,420.2h67.75a1.574,1.574,0,0,1,0,3.147h-67.75a12.247,12.247,0,0,0-12.234,12.234v57.749A1.574,1.574,0,0,1,109.486,494.9Z" transform="translate(3.268)" fill="#e60011"/><path d="M161.7,435.14H116.3a1.574,1.574,0,1,1,0-3.147h45.4a1.574,1.574,0,1,1,0,3.147Z" transform="translate(8.736 9.465)" fill="#e60011"/><path d="M161.7,441.7H116.3a1.573,1.573,0,1,1,0-3.145h45.4a1.573,1.573,0,1,1,0,3.145Z" transform="translate(8.736 14.73)" fill="#e60011"/><path d="M161.7,448.262H116.3a1.574,1.574,0,1,1,0-3.147h45.4a1.574,1.574,0,1,1,0,3.147Z" transform="translate(8.736 19.996)" fill="#e60011"/><path d="M161.7,454.822H116.3a1.574,1.574,0,1,1,0-3.147h45.4a1.574,1.574,0,1,1,0,3.147Z" transform="translate(8.736 25.26)" fill="#e60011"/><path d="M137.762,469.7H105.414a1.573,1.573,0,1,1,0-3.145h32.348a1.573,1.573,0,1,1,0,3.145Z" transform="translate(0 37.201)" fill="#e60011"/></g><line x2="51" transform="translate(2857.5 2439.5)" fill="none" stroke="#e60011" stroke-linecap="round" stroke-width="3"/><path d="M0,0,10,11.156,0,21" transform="translate(2898.5 2428.5)" fill="none" stroke="#e60011" stroke-linecap="round" stroke-linejoin="round" stroke-width="3"/></g></svg>