<svg xmlns="http://www.w3.org/2000/svg" width="390" height="122" viewBox="0 0 390 122"><g transform="translate(-2688 -2378)"><rect width="390" height="122" transform="translate(2688 2378)" fill="#fff" opacity="0"/><line x2="51" transform="translate(2782.5 2446.5)" fill="none" stroke="#e60011" stroke-linecap="round" stroke-width="3"/><line x2="51" transform="translate(2927.5 2446.5)" fill="none" stroke="#e60011" stroke-linecap="round" stroke-width="3"/><g transform="translate(2611.06 2152.415)"><path d="M158.251,320.489H107.059a.873.873,0,0,1-.873-.873V275.667a.873.873,0,0,1,1.746,0v43.076h49.446V275.667a.873.873,0,0,1,1.746,0v43.949A.873.873,0,0,1,158.251,320.489Z" fill="#e60011"/><path d="M163.5,278.039a.9.9,0,0,1-.24-.033l-30.6-8.744-30.6,8.744a.874.874,0,0,1-1.113-.84v-4.9a.875.875,0,0,1,.633-.84l30.842-8.811a.871.871,0,0,1,.48,0l30.841,8.811a.874.874,0,0,1,.633.84v4.9a.872.872,0,0,1-.873.873Zm-30.841-10.557a.9.9,0,0,1,.24.033l29.728,8.493v-3.08l-29.968-8.562-29.969,8.562v3.08l29.729-8.493A.885.885,0,0,1,132.655,267.482Z" fill="#e60011"/><path d="M131,320.489H113.1a.873.873,0,0,1-.873-.873V304.16a.873.873,0,0,1,.873-.873H131a.873.873,0,0,1,.873.873v15.456A.873.873,0,0,1,131,320.489Zm-17.031-1.746h16.158v-13.71H113.969Z" fill="#e60011"/><path d="M124.636,310.837a.869.869,0,0,1-.489-.15l-2.1-1.417-2.1,1.417a.873.873,0,0,1-1.362-.723v-5.8a.873.873,0,0,1,.873-.873h5.175a.873.873,0,0,1,.873.873v5.8a.872.872,0,0,1-.873.873Zm-2.588-3.494a.879.879,0,0,1,.489.15l1.226.828v-3.288h-3.429v3.288l1.225-.828A.881.881,0,0,1,122.048,307.343Z" fill="#e60011"/><path d="M152.213,320.489h-17.9a.873.873,0,0,1-.873-.873V304.16a.873.873,0,0,1,.873-.873h17.9a.873.873,0,0,1,.873.873v15.456A.873.873,0,0,1,152.213,320.489Zm-17.03-1.746H151.34v-13.71H135.183Z" fill="#e60011"/><path d="M145.849,310.837a.869.869,0,0,1-.489-.15l-2.1-1.417-2.1,1.417a.873.873,0,0,1-1.362-.723v-5.8a.873.873,0,0,1,.873-.873h5.175a.873.873,0,0,1,.873.873v5.8a.874.874,0,0,1-.873.873Zm-2.588-3.494a.879.879,0,0,1,.489.15l1.226.828v-3.288h-3.429v3.288l1.225-.828A.881.881,0,0,1,143.261,307.343Z" fill="#e60011"/><path d="M131,305.033H113.1a.872.872,0,0,1-.873-.873V288.7a.872.872,0,0,1,.873-.873H131a.873.873,0,0,1,.873.873V304.16A.873.873,0,0,1,131,305.033Zm-17.031-1.746h16.158V289.578H113.969Z" fill="#e60011"/><path d="M124.636,295.382a.869.869,0,0,1-.489-.15l-2.1-1.418-2.1,1.418a.873.873,0,0,1-1.362-.723v-5.8a.873.873,0,0,1,.873-.873h5.175a.873.873,0,0,1,.873.873v5.8a.872.872,0,0,1-.873.873Zm-2.588-3.494a.871.871,0,0,1,.489.15l1.226.827v-3.287h-3.429v3.287l1.225-.827A.873.873,0,0,1,122.048,291.888Z" fill="#e60011"/><path d="M152.213,305.033h-17.9a.873.873,0,0,1-.873-.873V288.7a.873.873,0,0,1,.873-.873h17.9a.873.873,0,0,1,.873.873V304.16A.873.873,0,0,1,152.213,305.033Zm-17.03-1.746H151.34V289.578H135.183Z" fill="#e60011"/><path d="M145.849,295.382a.869.869,0,0,1-.489-.15l-2.1-1.418-2.1,1.418a.873.873,0,0,1-1.362-.723v-5.8a.873.873,0,0,1,.873-.873h5.175a.873.873,0,0,1,.873.873v5.8a.874.874,0,0,1-.873.873Zm-2.588-3.494a.871.871,0,0,1,.489.15l1.226.827v-3.287h-3.429v3.287l1.225-.827A.873.873,0,0,1,143.261,291.888Z" fill="#e60011"/><path d="M158.251,281.9H107.059a.873.873,0,1,1,0-1.746h51.192a.873.873,0,0,1,0,1.746Z" fill="#e60011"/></g><g transform="translate(2885.06 2152.415)"><path d="M158.251,320.489H107.059a.873.873,0,0,1-.873-.873V275.667a.873.873,0,0,1,1.746,0v43.076h49.446V275.667a.873.873,0,0,1,1.746,0v43.949A.873.873,0,0,1,158.251,320.489Z" fill="#e60011"/><path d="M163.5,278.039a.9.9,0,0,1-.24-.033l-30.6-8.744-30.6,8.744a.874.874,0,0,1-1.113-.84v-4.9a.875.875,0,0,1,.633-.84l30.842-8.811a.871.871,0,0,1,.48,0l30.841,8.811a.874.874,0,0,1,.633.84v4.9a.872.872,0,0,1-.873.873Zm-30.841-10.557a.9.9,0,0,1,.24.033l29.728,8.493v-3.08l-29.968-8.562-29.969,8.562v3.08l29.729-8.493A.885.885,0,0,1,132.655,267.482Z" fill="#e60011"/><path d="M131,320.489H113.1a.873.873,0,0,1-.873-.873V304.16a.873.873,0,0,1,.873-.873H131a.873.873,0,0,1,.873.873v15.456A.873.873,0,0,1,131,320.489Zm-17.031-1.746h16.158v-13.71H113.969Z" fill="#e60011"/><path d="M124.636,310.837a.869.869,0,0,1-.489-.15l-2.1-1.417-2.1,1.417a.873.873,0,0,1-1.362-.723v-5.8a.873.873,0,0,1,.873-.873h5.175a.873.873,0,0,1,.873.873v5.8a.872.872,0,0,1-.873.873Zm-2.588-3.494a.879.879,0,0,1,.489.15l1.226.828v-3.288h-3.429v3.288l1.225-.828A.881.881,0,0,1,122.048,307.343Z" fill="#e60011"/><path d="M152.213,320.489h-17.9a.873.873,0,0,1-.873-.873V304.16a.873.873,0,0,1,.873-.873h17.9a.873.873,0,0,1,.873.873v15.456A.873.873,0,0,1,152.213,320.489Zm-17.03-1.746H151.34v-13.71H135.183Z" fill="#e60011"/><path d="M145.849,310.837a.869.869,0,0,1-.489-.15l-2.1-1.417-2.1,1.417a.873.873,0,0,1-1.362-.723v-5.8a.873.873,0,0,1,.873-.873h5.175a.873.873,0,0,1,.873.873v5.8a.874.874,0,0,1-.873.873Zm-2.588-3.494a.879.879,0,0,1,.489.15l1.226.828v-3.288h-3.429v3.288l1.225-.828A.881.881,0,0,1,143.261,307.343Z" fill="#e60011"/><path d="M131,305.033H113.1a.872.872,0,0,1-.873-.873V288.7a.872.872,0,0,1,.873-.873H131a.873.873,0,0,1,.873.873V304.16A.873.873,0,0,1,131,305.033Zm-17.031-1.746h16.158V289.578H113.969Z" fill="#e60011"/><path d="M124.636,295.382a.869.869,0,0,1-.489-.15l-2.1-1.418-2.1,1.418a.873.873,0,0,1-1.362-.723v-5.8a.873.873,0,0,1,.873-.873h5.175a.873.873,0,0,1,.873.873v5.8a.872.872,0,0,1-.873.873Zm-2.588-3.494a.871.871,0,0,1,.489.15l1.226.827v-3.287h-3.429v3.287l1.225-.827A.873.873,0,0,1,122.048,291.888Z" fill="#e60011"/><path d="M152.213,305.033h-17.9a.873.873,0,0,1-.873-.873V288.7a.873.873,0,0,1,.873-.873h17.9a.873.873,0,0,1,.873.873V304.16A.873.873,0,0,1,152.213,305.033Zm-17.03-1.746H151.34V289.578H135.183Z" fill="#e60011"/><path d="M145.849,295.382a.869.869,0,0,1-.489-.15l-2.1-1.418-2.1,1.418a.873.873,0,0,1-1.362-.723v-5.8a.873.873,0,0,1,.873-.873h5.175a.873.873,0,0,1,.873.873v5.8a.874.874,0,0,1-.873.873Zm-2.588-3.494a.871.871,0,0,1,.489.15l1.226.827v-3.287h-3.429v3.287l1.225-.827A.873.873,0,0,1,143.261,291.888Z" fill="#e60011"/><path d="M158.251,281.9H107.059a.873.873,0,1,1,0-1.746h51.192a.873.873,0,0,1,0,1.746Z" fill="#e60011"/></g><g transform="translate(2583.072 2217.021)"><path d="M331.547,254.81H262.968a1.131,1.131,0,0,1-1.131-1.131V198.387a1.131,1.131,0,1,1,2.261,0V252.55h66.318V198.387a1.131,1.131,0,1,1,2.261,0V253.68A1.13,1.13,0,0,1,331.547,254.81Z" transform="translate(0.858 3.327)" fill="#e60011"/><path d="M336.173,203.689a1.137,1.137,0,0,1-.246-.027l-37.811-8.47-37.811,8.47a1.129,1.129,0,0,1-1.377-1.1v-6.123a1.13,1.13,0,0,1,.861-1.1l38.057-9.326a1.148,1.148,0,0,1,.539,0l38.057,9.326a1.13,1.13,0,0,1,.861,1.1v6.123a1.129,1.129,0,0,1-1.131,1.131ZM298.116,192.9a1.14,1.14,0,0,1,.247.028l36.681,8.216v-3.824l-36.928-9.048-36.928,9.048v3.824l36.681-8.216A1.14,1.14,0,0,1,298.116,192.9Z" fill="#e60011"/><path d="M317.9,252.257H271.55a1.13,1.13,0,0,1-1.129-1.131V207.041a1.13,1.13,0,0,1,1.129-1.131H317.9a1.13,1.13,0,0,1,1.131,1.131v44.086A1.13,1.13,0,0,1,317.9,252.257ZM272.681,250h44.087V208.17H272.681Z" transform="translate(3.391 5.88)" fill="#e60011"/><path d="M317.9,214.2H271.55a1.13,1.13,0,0,1-1.129-1.131v-6.028a1.13,1.13,0,0,1,1.129-1.131H317.9a1.13,1.13,0,0,1,1.131,1.131v6.028A1.13,1.13,0,0,1,317.9,214.2Zm-45.218-2.261h44.087V208.17H272.681Z" transform="translate(3.391 5.88)" fill="#e60011"/><path d="M317.9,218.856H271.55a1.13,1.13,0,0,1-1.129-1.131V211.7a1.13,1.13,0,0,1,1.129-1.131H317.9a1.13,1.13,0,0,1,1.131,1.131v6.03A1.13,1.13,0,0,1,317.9,218.856Zm-45.218-2.261h44.087v-3.769H272.681Z" transform="translate(3.391 7.254)" fill="#e60011"/><path d="M309.851,244.724H298.829a1.131,1.131,0,0,1-1.131-1.131V232.573a1.131,1.131,0,0,1,1.131-1.131h11.022a1.13,1.13,0,0,1,1.131,1.131v11.021A1.13,1.13,0,0,1,309.851,244.724Zm-9.892-2.26h8.761V233.7h-8.761Z" transform="translate(11.439 13.413)" fill="#e60011"/><path d="M302.2,245.347H287.409a1.131,1.131,0,0,1-1.131-1.131V230.463a1.131,1.131,0,0,1,1.131-1.131H302.2a1.13,1.13,0,0,1,1.131,1.131v13.753A1.13,1.13,0,0,1,302.2,245.347Zm-13.659-2.26h12.528V231.593H288.539Z" transform="translate(8.069 12.791)" fill="#e60011"/><path d="M296.3,235.455h-5.181a1.13,1.13,0,0,1-1.131-1.129v-3.863a1.131,1.131,0,0,1,1.131-1.131H296.3a1.13,1.13,0,0,1,1.129,1.131v3.863A1.129,1.129,0,0,1,296.3,235.455Zm-4.051-2.26h2.92v-1.6h-2.92Z" transform="translate(9.164 12.791)" fill="#e60011"/><path d="M336.173,242.213H260.057a1.13,1.13,0,0,1,0-2.26h76.116a1.13,1.13,0,1,1,0,2.26Z" transform="translate(0 15.925)" fill="#e60011"/><path d="M318.855,209.157h-47.1a3.3,3.3,0,1,1,0-6.594h47.1a3.3,3.3,0,1,1,0,6.594Zm-47.1-4.333a1.037,1.037,0,1,0,0,2.073h47.1a1.037,1.037,0,0,0,0-2.073Z" transform="translate(2.811 4.893)" fill="#e60011"/></g></g></svg>