<svg xmlns="http://www.w3.org/2000/svg" width="390" height="122"><g fill="#e60011" stroke="#e60011" stroke-width=".2"><path d="M229.289 106.127H160.71a1.131 1.131 0 01-1.131-1.131V49.704a1.131 1.131 0 112.261 0v54.163h66.318V49.704a1.131 1.131 0 112.261 0v55.293a1.13 1.13 0 01-1.13 1.13z"/><path d="M233.057 51.679a1.137 1.137 0 01-.246-.027L195 43.182l-37.811 8.47a1.129 1.129 0 01-1.377-1.1v-6.123a1.13 1.13 0 01.861-1.1l38.057-9.326a1.148 1.148 0 01.539 0l38.057 9.326a1.13 1.13 0 01.861 1.1v6.123a1.129 1.129 0 01-1.131 1.131zM195 40.89a1.14 1.14 0 01.247.028l36.681 8.216V45.31L195 36.262l-36.928 9.048v3.824l36.681-8.216a1.14 1.14 0 01.247-.028zM218.175 106.127h-46.35a1.13 1.13 0 01-1.129-1.131V60.911a1.13 1.13 0 011.129-1.131h46.35a1.13 1.13 0 011.131 1.131v44.086a1.13 1.13 0 01-1.131 1.13zm-45.219-2.257h44.087V62.04h-44.087z"/><path d="M218.175 68.07h-46.35a1.13 1.13 0 01-1.129-1.131v-6.028a1.13 1.13 0 011.129-1.131h46.35a1.13 1.13 0 011.131 1.131v6.028a1.13 1.13 0 01-1.131 1.131zm-45.218-2.261h44.087V62.04h-44.088z"/><path d="M218.175 74.1h-46.35a1.13 1.13 0 01-1.129-1.131v-6.025a1.13 1.13 0 011.129-1.131h46.35a1.13 1.13 0 011.131 1.131v6.03a1.13 1.13 0 01-1.131 1.126zm-45.218-2.261h44.087V68.07h-44.088zM218.174 106.127h-11.022a1.131 1.131 0 01-1.131-1.131v-11.02a1.131 1.131 0 011.131-1.131h11.022a1.13 1.13 0 011.131 1.131v11.021a1.13 1.13 0 01-1.131 1.13zm-9.892-2.26h8.761v-8.764h-8.761z"/><path d="M207.153 106.128h-14.791a1.131 1.131 0 01-1.131-1.131V91.244a1.131 1.131 0 011.131-1.131h14.791a1.13 1.13 0 011.131 1.131v13.753a1.13 1.13 0 01-1.131 1.131zm-13.659-2.26h12.528V92.374h-12.53z"/><path d="M202.348 96.236h-5.181a1.13 1.13 0 01-1.131-1.129v-3.863a1.131 1.131 0 011.131-1.131h5.181a1.13 1.13 0 011.129 1.131v3.863a1.129 1.129 0 01-1.129 1.129zm-4.051-2.26h2.92v-1.6h-2.92zM233.057 106.128h-76.116a1.13 1.13 0 010-2.26h76.116a1.13 1.13 0 110 2.26zM218.55 62.04h-47.1a3.3 3.3 0 110-6.594h47.1a3.3 3.3 0 110 6.594zm-47.1-4.333a1.037 1.037 0 100 2.073h47.1a1.037 1.037 0 000-2.073z"/></g><g fill="none" stroke="#e60011" stroke-width="3"><path stroke-linecap="round" d="M274.149 88.299l9.85 10.242"/><g transform="translate(247.002 60.522)"><circle cx="16.036" cy="16.036" r="16.036" stroke="none"/><circle cx="16.036" cy="16.036" r="14.536"/></g></g><g fill="none"><path d="M77.378 64.544a25.92 25.92 0 01-8.766 3.638 25.94 25.94 0 01-9.154.29A25.988 25.988 0 0143.54 59.76a22.858 22.858 0 0011.482-3.675 22.74 22.74 0 006.486-6.36 22.798 22.798 0 003.428-8.073 22.789 22.789 0 00.15-8.769 22.739 22.739 0 00-3.34-8.448 22.745 22.745 0 00-6.392-6.511 25.84 25.84 0 018.309-1.205 26.091 26.091 0 018.16 1.466 25.888 25.888 0 017.342 3.995 25.951 25.951 0 015.855 6.38 25.853 25.853 0 013.802 9.604 25.918 25.918 0 01-.17 9.972 25.927 25.927 0 01-3.898 9.178 25.857 25.857 0 01-7.375 7.23z"/><path d="M75.744 62.026a22.873 22.873 0 006.526-6.394 22.947 22.947 0 003.448-8.12 22.94 22.94 0 00-3.212-17.318 22.915 22.915 0 00-11.673-9.177 23.108 23.108 0 00-8.883-1.268c.84.952 1.613 1.97 2.315 3.052a25.724 25.724 0 013.782 9.557 25.78 25.78 0 01-.17 9.918 25.775 25.775 0 01-3.878 9.13 25.724 25.724 0 01-7.34 7.195 25.967 25.967 0 01-6.549 3.054c2.894 2.001 6.238 3.329 9.783 3.846a22.926 22.926 0 0015.85-3.475m1.636 2.517a25.92 25.92 0 01-17.92 3.928 25.988 25.988 0 01-15.918-8.712 22.858 22.858 0 0011.482-3.675 22.798 22.798 0 009.918-14.432 22.79 22.79 0 00-3.193-17.216 22.745 22.745 0 00-6.392-6.512 25.839 25.839 0 018.309-1.205 26.091 26.091 0 0115.502 5.46 25.952 25.952 0 015.856 6.38 25.853 25.853 0 013.801 9.604 25.918 25.918 0 01-.17 9.972 25.928 25.928 0 01-11.275 16.408z" fill="#e60011"/></g><g fill="none" stroke-linecap="round" stroke-linejoin="round"><path d="M124.154 48.345a1 1 0 011.693 0l1.385 2.2a1 1 0 00.617.441l2.536.6a1 1 0 01.524 1.631l-1.668 1.91a1 1 0 00-.241.736l.2 2.526a1 1 0 01-1.373 1.011l-2.454-.989a1 1 0 00-.748 0l-2.452.989a1 1 0 01-1.373-1.011l.2-2.526a1 1 0 00-.243-.737l-1.666-1.91a1 1 0 01.524-1.631l2.536-.6a1 1 0 00.617-.441z"/><path d="M125 50.755l-.539.857a2.983 2.983 0 01-1.851 1.323l-.92.216.576.66c.528.605.794 1.41.73 2.21l-.073.916.955-.385a2.987 2.987 0 012.244 0l.955.385-.073-.915c-.064-.8.202-1.606.73-2.21l.577-.66-.92-.218a2.983 2.983 0 01-1.852-1.322l-.539-.857m0-2.877c.325 0 .65.156.846.467l1.386 2.202a1 1 0 00.617.44l2.536.598a1 1 0 01.524 1.631l-1.668 1.91a1 1 0 00-.243.737l.2 2.526a1.001 1.001 0 01-1.37 1.007l-2.454-.99a1 1 0 00-.748 0l-2.453.99a1.001 1.001 0 01-1.37-1.007l.2-2.526a1 1 0 00-.244-.736l-1.668-1.911a1 1 0 01.524-1.631l2.536-.597a1 1 0 00.617-.441l1.386-2.202a.992.992 0 01.846-.467z" fill="#e60011"/></g><g fill="none" stroke-linecap="round" stroke-linejoin="round"><path d="M25.154 28.345a1 1 0 011.693 0l1.385 2.2a1 1 0 00.617.441l2.536.6a1 1 0 01.524 1.631l-1.668 1.91a1 1 0 00-.241.736l.2 2.526a1 1 0 01-1.373 1.011l-2.454-.989a1 1 0 00-.748 0l-2.452.989a1 1 0 01-1.373-1.011l.2-2.526a1 1 0 00-.243-.737l-1.666-1.91a1 1 0 01.524-1.631l2.536-.6a1 1 0 00.617-.441z"/><path d="M26 30.755l-.539.857a2.983 2.983 0 01-1.851 1.323l-.92.216.576.66c.528.605.794 1.41.73 2.21l-.073.916.955-.385a2.987 2.987 0 012.244 0l.955.385-.073-.915c-.064-.8.202-1.606.73-2.21l.577-.66-.92-.218a2.983 2.983 0 01-1.852-1.322L26 30.755m0-2.877c.325 0 .65.156.846.467l1.386 2.202a1 1 0 00.617.44l2.536.598a1 1 0 01.524 1.631l-1.668 1.91a1 1 0 00-.243.737l.2 2.526a1.001 1.001 0 01-1.37 1.007l-2.454-.99a1 1 0 00-.748 0l-2.453.99a1.001 1.001 0 01-1.37-1.007l.2-2.526a1 1 0 00-.244-.736l-1.668-1.911a1 1 0 01.524-1.631l2.536-.597a1 1 0 00.617-.441l1.386-2.202a.992.992 0 01.846-.467z" fill="#e60011"/></g><g fill="none" stroke-linecap="round" stroke-linejoin="round"><path d="M283.154 15.345a1 1 0 011.693 0l1.385 2.2a1 1 0 00.617.441l2.536.6a1 1 0 01.524 1.631l-1.668 1.91a1 1 0 00-.241.736l.2 2.526a1 1 0 01-1.373 1.011l-2.454-.989a1 1 0 00-.748 0l-2.452.989a1 1 0 01-1.373-1.011l.2-2.526a1 1 0 00-.243-.737l-1.666-1.91a1 1 0 01.524-1.631l2.536-.6a1 1 0 00.617-.441z"/><path d="M284 17.755l-.539.857a2.983 2.983 0 01-1.851 1.323l-.92.216.576.66c.528.605.794 1.41.73 2.21l-.073.916.955-.385a2.987 2.987 0 012.244 0l.955.385-.073-.915c-.064-.8.202-1.606.73-2.21l.577-.66-.92-.218a2.983 2.983 0 01-1.852-1.322l-.539-.857m0-2.877c.325 0 .65.156.846.467l1.386 2.202a1 1 0 00.617.44l2.536.598a1 1 0 01.524 1.631l-1.668 1.91a1 1 0 00-.243.737l.2 2.526a1.001 1.001 0 01-1.37 1.007l-2.454-.99a1 1 0 00-.748 0l-2.453.99a1.001 1.001 0 01-1.37-1.007l.2-2.526a1 1 0 00-.244-.736l-1.668-1.911a1 1 0 01.524-1.631l2.536-.597a1 1 0 00.617-.441l1.386-2.202a.992.992 0 01.846-.467z" fill="#e60011"/></g><g fill="none" stroke-linecap="round" stroke-linejoin="round"><path d="M355.154 41.345a1 1 0 011.693 0l1.385 2.2a1 1 0 00.617.441l2.536.6a1 1 0 01.524 1.631l-1.668 1.91a1 1 0 00-.241.736l.2 2.526a1 1 0 01-1.373 1.011l-2.454-.989a1 1 0 00-.748 0l-2.452.989a1 1 0 01-1.373-1.011l.2-2.526a1 1 0 00-.243-.737l-1.666-1.91a1 1 0 01.524-1.631l2.536-.6a1 1 0 00.617-.441z"/><path d="M356 43.755l-.539.857a2.983 2.983 0 01-1.851 1.323l-.92.216.576.66c.528.605.794 1.41.73 2.21l-.073.916.955-.385a2.987 2.987 0 012.244 0l.955.385-.073-.915c-.064-.8.202-1.606.73-2.21l.577-.66-.92-.218a2.983 2.983 0 01-1.852-1.322l-.539-.857m0-2.877c.325 0 .65.156.846.467l1.386 2.202a1 1 0 00.617.44l2.536.598a1 1 0 01.524 1.631l-1.668 1.91a1 1 0 00-.243.737l.2 2.526a1.001 1.001 0 01-1.37 1.007l-2.454-.99a1 1 0 00-.748 0l-2.453.99a1.001 1.001 0 01-1.37-1.007l.2-2.526a1 1 0 00-.244-.736l-1.668-1.911a1 1 0 01.524-1.631l2.536-.597a1 1 0 00.617-.441l1.386-2.202a.992.992 0 01.846-.467z" fill="#e60011"/></g></svg>