<svg xmlns="http://www.w3.org/2000/svg" xmlns:xlink="http://www.w3.org/1999/xlink" width="390" height="122" viewBox="0 0 390 122">
  <defs>
    <clipPath id="clip-アートボード_1">
      <rect width="390" height="122"/>
    </clipPath>
  </defs>
  <g id="アートボード_1" data-name="アートボード – 1" clip-path="url(#clip-アートボード_1)">
    <rect width="390" height="122" fill="#fff"/>
    <g id="グループ_43" data-name="グループ 43" transform="translate(-1026 -593)">
      <rect id="長方形_2" data-name="長方形 2" width="390" height="122" transform="translate(1026 593)" fill="none"/>
      <g id="グループ_38" data-name="グループ 38" transform="translate(1243.006 614)">
        <path id="パス_124" data-name="パス 124" d="M419.244,93.054H344.007a5.717,5.717,0,0,1-5.707-5.707V35.237a5.717,5.717,0,0,1,5.707-5.707h75.237a5.717,5.717,0,0,1,5.707,5.707v52.11A5.7,5.7,0,0,1,419.244,93.054ZM344.022,32.138a3.1,3.1,0,0,0-3.1,3.1v52.11a3.1,3.1,0,0,0,3.1,3.1h75.237a3.1,3.1,0,0,0,3.1-3.1V35.237a3.1,3.1,0,0,0-3.1-3.1Z" transform="translate(-338.3 -29.53)" fill="#e60011"/>
        <path id="パス_124_-_アウトライン" data-name="パス 124 - アウトライン" d="M419.244,93.354H344.007A6.014,6.014,0,0,1,338,87.347V35.237a6.014,6.014,0,0,1,6.007-6.007h75.237a6.014,6.014,0,0,1,6.007,6.007v52.11a6,6,0,0,1-6.007,6.007ZM344.007,29.83a5.413,5.413,0,0,0-5.407,5.407v52.11a5.413,5.413,0,0,0,5.407,5.407h75.237a5.4,5.4,0,0,0,5.407-5.407V35.237a5.413,5.413,0,0,0-5.407-5.407Zm75.252,60.917H344.022a3.4,3.4,0,0,1-3.4-3.4V35.237a3.4,3.4,0,0,1,3.4-3.4h75.237a3.4,3.4,0,0,1,3.4,3.4v52.11A3.4,3.4,0,0,1,419.259,90.747ZM344.022,32.438a2.8,2.8,0,0,0-2.8,2.8v52.11a2.8,2.8,0,0,0,2.8,2.8h75.237a2.8,2.8,0,0,0,2.8-2.8V35.237a2.8,2.8,0,0,0-2.8-2.8Z" transform="translate(-338.3 -29.53)" fill="#e60011"/>
        <path id="パス_125" data-name="パス 125" d="M413.669,80.312H344.646a1.3,1.3,0,0,1-1.3-1.3V36.576a1.3,1.3,0,0,1,1.3-1.3h69.023a1.3,1.3,0,0,1,1.3,1.3V79.03A1.294,1.294,0,0,1,413.669,80.312Zm-67.727-2.593h66.415V37.873H345.943Z" transform="translate(-335.825 -26.712)" fill="#e60011"/>
        <path id="パス_125_-_アウトライン" data-name="パス 125 - アウトライン" d="M413.669,80.612H344.646a1.6,1.6,0,0,1-1.6-1.6V36.576a1.6,1.6,0,0,1,1.6-1.6h69.023a1.6,1.6,0,0,1,1.6,1.6V79.03A1.591,1.591,0,0,1,413.669,80.612ZM344.646,35.58a1,1,0,0,0-1,1V79.015a1,1,0,0,0,1,1h69.023a.99.99,0,0,0,1-.982V36.576a1,1,0,0,0-1-1Zm68.012,42.439H345.643V37.573h67.015Zm-66.415-.6h65.815V38.173H346.243Z" transform="translate(-335.825 -26.712)" fill="#e60011"/>
        <path id="パス_126" data-name="パス 126" d="M388.376,83.518h-30.95a1.3,1.3,0,0,1-1.3-1.3V71.716a1.3,1.3,0,0,1,1.3-1.3h30.95a1.3,1.3,0,0,1,1.3,1.3V82.222A1.3,1.3,0,0,1,388.376,83.518Zm-29.654-2.593h28.342v-7.9H358.723Z" transform="translate(-329.561 -9.489)" fill="#e60011"/>
        <path id="パス_126_-_アウトライン" data-name="パス 126 - アウトライン" d="M388.376,83.818h-30.95a1.6,1.6,0,0,1-1.6-1.6V71.716a1.6,1.6,0,0,1,1.6-1.6h30.95a1.6,1.6,0,0,1,1.6,1.6V82.222a1.6,1.6,0,0,1-1.6,1.6Zm-30.95-13.1a1,1,0,0,0-1,1V82.222a1,1,0,0,0,1,1h30.95a1,1,0,0,0,1-1V71.716a1,1,0,0,0-1-1Zm29.939,10.505H358.423v-8.5h28.942Zm-28.342-.6h27.742v-7.3H359.023Z" transform="translate(-329.561 -9.489)" fill="#e60011"/>
        <path id="パス_127" data-name="パス 127" d="M395.812,89.242H355.936a5.886,5.886,0,1,1,0-11.772h39.876a5.886,5.886,0,1,1,0,11.772Zm-39.876-9.179a3.293,3.293,0,0,0,0,6.586h39.876a3.293,3.293,0,0,0,0-6.586Z" transform="translate(-332.541 -6.033)" fill="#e60011"/>
        <path id="パス_127_-_アウトライン" data-name="パス 127 - アウトライン" d="M395.812,89.542H355.936a6.186,6.186,0,1,1,0-12.372h39.876a6.186,6.186,0,1,1,0,12.372ZM355.936,77.77a5.586,5.586,0,1,0,0,11.172h39.876a5.586,5.586,0,1,0,0-11.172Zm39.876,9.179H355.936a3.593,3.593,0,0,1,0-7.186h39.876a3.593,3.593,0,0,1,0,7.186Zm-39.876-6.586a2.993,2.993,0,0,0,0,5.986h39.876a2.993,2.993,0,0,0,0-5.986Z" transform="translate(-332.541 -6.033)" fill="#e60011"/>
        <path id="パス_128" data-name="パス 128" d="M359.494,51.489h-7.957a1.3,1.3,0,0,1-1.3-1.3V42a1.3,1.3,0,0,1,2.593,0v6.9h6.646a1.3,1.3,0,0,1,1.3,1.3A1.275,1.275,0,0,1,359.494,51.489Z" transform="translate(-332.448 -24.055)" fill="#e60011"/>
        <path id="パス_128_-_アウトライン" data-name="パス 128 - アウトライン" d="M359.494,51.789h-7.957a1.6,1.6,0,0,1-1.6-1.6V42a1.6,1.6,0,1,1,3.193,0v6.6h6.346a1.6,1.6,0,0,1,1.6,1.594,1.552,1.552,0,0,1-.447,1.123A1.576,1.576,0,0,1,359.494,51.789ZM351.536,41a1,1,0,0,0-1,1v8.2a1,1,0,0,0,1,1h7.957a.98.98,0,0,0,.706-.3.957.957,0,0,0,.276-.694v-.006a1,1,0,0,0-1-1h-6.946V42A1,1,0,0,0,351.536,41Z" transform="translate(-332.448 -24.055)" fill="#e60011"/>
        <path id="パス_129" data-name="パス 129" d="M359.454,62.569H351.5a1.3,1.3,0,0,1-1.3-1.3v-8.2a1.3,1.3,0,0,1,2.593,0v6.9h6.646a1.3,1.3,0,0,1,1.3,1.3A1.275,1.275,0,0,1,359.454,62.569Z" transform="translate(-332.467 -18.625)" fill="#e60011"/>
        <path id="パス_129_-_アウトライン" data-name="パス 129 - アウトライン" d="M359.454,62.869H351.5a1.6,1.6,0,0,1-1.6-1.6v-8.2a1.6,1.6,0,0,1,3.193,0v6.6h6.346a1.6,1.6,0,0,1,1.6,1.594,1.552,1.552,0,0,1-.447,1.123A1.576,1.576,0,0,1,359.454,62.869ZM351.5,52.08a1,1,0,0,0-1,1v8.2a1,1,0,0,0,1,1h7.957a.98.98,0,0,0,.706-.3.957.957,0,0,0,.276-.694v-.006a1,1,0,0,0-1-1h-6.946v-7.2A1,1,0,0,0,351.5,52.08Z" transform="translate(-332.467 -18.625)" fill="#e60011"/>
        <path id="パス_130" data-name="パス 130" d="M392.921,44.273H364.176a1.3,1.3,0,1,1,0-2.593h28.745a1.3,1.3,0,0,1,1.3,1.3A1.279,1.279,0,0,1,392.921,44.273Z" transform="translate(-326.253 -23.575)" fill="#e60011"/>
        <path id="パス_130_-_アウトライン" data-name="パス 130 - アウトライン" d="M392.921,44.573H364.176a1.6,1.6,0,0,1,0-3.193h28.745a1.6,1.6,0,0,1,1.6,1.594,1.547,1.547,0,0,1-.445,1.12A1.6,1.6,0,0,1,392.921,44.573ZM364.176,41.98a1,1,0,1,0,0,1.993h28.745a1,1,0,0,0,.723-.3.952.952,0,0,0,.274-.691v-.006a1,1,0,0,0-1-1Z" transform="translate(-326.253 -23.575)" fill="#e60011"/>
        <path id="パス_131" data-name="パス 131" d="M392.921,47.8H364.176a1.3,1.3,0,1,1,0-2.593h28.745a1.3,1.3,0,0,1,1.3,1.3A1.279,1.279,0,0,1,392.921,47.8Z" transform="translate(-326.253 -21.845)" fill="#e60011"/>
        <path id="パス_131_-_アウトライン" data-name="パス 131 - アウトライン" d="M392.921,48.1H364.176a1.6,1.6,0,0,1,0-3.193h28.745a1.6,1.6,0,0,1,1.6,1.594,1.547,1.547,0,0,1-.445,1.12A1.6,1.6,0,0,1,392.921,48.1ZM364.176,45.51a1,1,0,1,0,0,1.993h28.745a1,1,0,0,0,.723-.3.952.952,0,0,0,.274-.691v-.006a1,1,0,0,0-1-1Z" transform="translate(-326.253 -21.845)" fill="#e60011"/>
        <path id="パス_132" data-name="パス 132" d="M392.921,55.353H364.176a1.3,1.3,0,1,1,0-2.593h28.745a1.3,1.3,0,0,1,1.3,1.3A1.279,1.279,0,0,1,392.921,55.353Z" transform="translate(-326.253 -18.144)" fill="#e60011"/>
        <path id="パス_132_-_アウトライン" data-name="パス 132 - アウトライン" d="M392.921,55.653H364.176a1.6,1.6,0,0,1,0-3.193h28.745a1.6,1.6,0,0,1,1.6,1.594,1.547,1.547,0,0,1-.445,1.12A1.6,1.6,0,0,1,392.921,55.653ZM364.176,53.06a1,1,0,1,0,0,1.993h28.745a1,1,0,0,0,.723-.3.952.952,0,0,0,.274-.691v-.006a1,1,0,0,0-1-1Z" transform="translate(-326.253 -18.144)" fill="#e60011"/>
        <path id="パス_133" data-name="パス 133" d="M392.921,58.883H364.176a1.3,1.3,0,1,1,0-2.593h28.745a1.3,1.3,0,0,1,1.3,1.3A1.279,1.279,0,0,1,392.921,58.883Z" transform="translate(-326.253 -16.414)" fill="#e60011"/>
        <path id="パス_133_-_アウトライン" data-name="パス 133 - アウトライン" d="M392.921,59.183H364.176a1.6,1.6,0,0,1,0-3.193h28.745a1.6,1.6,0,0,1,1.6,1.594,1.547,1.547,0,0,1-.445,1.12A1.6,1.6,0,0,1,392.921,59.183ZM364.176,56.59a1,1,0,1,0,0,1.993h28.745a1,1,0,0,0,.723-.3.952.952,0,0,0,.274-.691v-.006a1,1,0,0,0-1-1Z" transform="translate(-326.253 -16.414)" fill="#e60011"/>
        <path id="パス_134" data-name="パス 134" d="M414.952,86.223H344.006a1.3,1.3,0,1,1,0-2.593h70.945a1.3,1.3,0,1,1,0,2.593Z" transform="translate(-336.139 -3.014)" fill="#e60011"/>
        <path id="パス_134_-_アウトライン" data-name="パス 134 - アウトライン" d="M414.952,86.523H344.006a1.6,1.6,0,0,1,0-3.193h70.945a1.6,1.6,0,0,1,0,3.193ZM344.006,83.93a1,1,0,1,0,0,1.993h70.945a1,1,0,1,0,0-1.993Z" transform="translate(-336.139 -3.014)" fill="#e60011"/>
      </g>
      <path id="パス_247_-_アウトライン" data-name="パス 247 - アウトライン" d="M404.845,174.659h-6.34a1.511,1.511,0,0,1-1.509-1.51V111.443H353.99a1.511,1.511,0,0,1-1.51-1.51V103.97a1.511,1.511,0,0,1,1.51-1.51h50.856a1.511,1.511,0,0,1,1.509,1.51v69.194A1.5,1.5,0,0,1,404.845,174.659Zm-4.83-3.033h3.307V105.465H355.5V108.4h43.007a1.511,1.511,0,0,1,1.51,1.51Z" transform="translate(772.899 511.24)" fill="#e60011"/>
      <path id="パス_248" data-name="パス 248" d="M346.093,180.51v0Z" transform="translate(769.34 514.585)" fill="#e60011"/>
      <path id="パス_248_-_アウトライン" data-name="パス 248 - アウトライン" d="M395.725,183.243H344.869a1.511,1.511,0,0,1-1.509-1.51V112.54a1.511,1.511,0,0,1,1.509-1.51h50.856a1.511,1.511,0,0,1,1.509,1.51v69.18a1.52,1.52,0,0,1-.441,1.078A1.494,1.494,0,0,1,395.725,183.243Zm-49.332-3.033h47.823V114.049H346.393Z" transform="translate(769.34 514.585)" fill="#e60011"/>
      <path id="パス_249" data-name="パス 249" d="M400.285,178.649h-6.34a1.21,1.21,0,0,1-1.21-1.21V115.433H349.43a1.21,1.21,0,0,1-1.21-1.21V108.26a1.21,1.21,0,0,1,1.21-1.21h50.856a1.21,1.21,0,0,1,1.209,1.21v69.193A1.208,1.208,0,0,1,400.285,178.649Zm-5.13-2.433h3.907V109.455H350.639v3.531h43.307a1.21,1.21,0,0,1,1.21,1.21Z" transform="translate(771.12 512.914)" fill="#e60011"/>
      <path id="パス_249_-_アウトライン" data-name="パス 249 - アウトライン" d="M400.285,178.949h-6.34a1.511,1.511,0,0,1-1.51-1.51V115.733H349.43a1.511,1.511,0,0,1-1.509-1.51V108.26a1.511,1.511,0,0,1,1.509-1.51h50.856a1.511,1.511,0,0,1,1.509,1.51v69.193A1.5,1.5,0,0,1,400.285,178.949Zm-4.83-3.033h3.307V109.755H350.939v2.931h43.007a1.511,1.511,0,0,1,1.51,1.51Z" transform="translate(771.12 512.914)" fill="#e60011"/>
      <path id="パス_250" data-name="パス 250" d="M354.261,131.462a7.021,7.021,0,1,1,7.021-7.021A7.028,7.028,0,0,1,354.261,131.462Zm0-11.595a4.588,4.588,0,1,0,4.588,4.588A4.592,4.592,0,0,0,354.261,119.867Z" transform="translate(770.737 516.961)" fill="#e60011"/>
      <path id="パス_250_-_アウトライン" data-name="パス 250 - アウトライン" d="M354.261,131.762a7.321,7.321,0,1,1,7.321-7.321A7.329,7.329,0,0,1,354.261,131.762Zm0-14.042a6.721,6.721,0,1,0,6.721,6.72A6.728,6.728,0,0,0,354.261,117.72Zm0,11.623a4.888,4.888,0,1,1,4.888-4.888A4.893,4.893,0,0,1,354.261,129.343Zm0-9.176a4.288,4.288,0,1,0,4.288,4.288A4.293,4.293,0,0,0,354.261,120.167Z" transform="translate(770.737 516.961)" fill="#e60011"/>
      <path id="パス_251_-_アウトライン" data-name="パス 251 - アウトライン" d="M354.259,126.864h-.135a1.485,1.485,0,0,1-1.078-.606l-5.8-7.73a1.511,1.511,0,0,1,2.411-1.822l4.792,6.394,8.431-7.877a1.51,1.51,0,0,1,2.065,2.2l-9.66,9.02A1.448,1.448,0,0,1,354.259,126.864Z" transform="translate(770.739 516.062)" fill="#e60011"/>
      <path id="パス_252" data-name="パス 252" d="M354.261,146.412a7.021,7.021,0,1,1,7.021-7.021A7.028,7.028,0,0,1,354.261,146.412Zm0-11.595a4.588,4.588,0,1,0,4.588,4.588A4.592,4.592,0,0,0,354.261,134.817Z" transform="translate(770.737 522.796)" fill="#e60011"/>
      <path id="パス_252_-_アウトライン" data-name="パス 252 - アウトライン" d="M354.261,146.712a7.321,7.321,0,1,1,7.321-7.321A7.329,7.329,0,0,1,354.261,146.712Zm0-14.042a6.721,6.721,0,1,0,6.721,6.72A6.728,6.728,0,0,0,354.261,132.67Zm0,11.623a4.888,4.888,0,1,1,4.888-4.888A4.893,4.893,0,0,1,354.261,144.293Zm0-9.176a4.288,4.288,0,1,0,4.288,4.288A4.293,4.293,0,0,0,354.261,135.117Z" transform="translate(770.737 522.796)" fill="#e60011"/>
      <path id="パス_253" data-name="パス 253" d="M354.259,141.514h-.111a1.2,1.2,0,0,1-.862-.487l-5.8-7.73a1.211,1.211,0,1,1,1.932-1.46l4.991,6.659,8.675-8.105a1.21,1.21,0,1,1,1.654,1.766l-9.662,9.023A1.145,1.145,0,0,1,354.259,141.514Z" transform="translate(770.739 521.896)" fill="#e60011"/>
      <path id="パス_253_-_アウトライン" data-name="パス 253 - アウトライン" d="M354.259,141.814h-.135a1.485,1.485,0,0,1-1.078-.606l-5.8-7.73a1.511,1.511,0,0,1,2.411-1.822l4.792,6.394,8.431-7.877a1.51,1.51,0,0,1,2.065,2.2l-9.66,9.02A1.448,1.448,0,0,1,354.259,141.814Zm-.1-.6h.1a.84.84,0,0,0,.608-.246l.007-.007,9.662-9.023a.911.911,0,0,0,.287-.635.91.91,0,0,0-1.531-.693l-8.921,8.334-5.192-6.927a.911.911,0,1,0-1.452,1.1l5.8,7.729A.894.894,0,0,0,354.161,141.214Z" transform="translate(770.739 521.896)" fill="#e60011"/>
      <path id="パス_254_-_アウトライン" data-name="パス 254 - アウトライン" d="M354.261,161.672a7.321,7.321,0,1,1,7.321-7.321A7.329,7.329,0,0,1,354.261,161.672Zm0-11.609a4.288,4.288,0,1,0,4.288,4.288A4.293,4.293,0,0,0,354.261,150.063Z" transform="translate(770.737 528.634)" fill="#e60011"/>
      <path id="パス_255_-_アウトライン" data-name="パス 255 - アウトライン" d="M354.259,156.764h-.135a1.485,1.485,0,0,1-1.078-.606l-5.8-7.73a1.511,1.511,0,0,1,2.411-1.822L354.451,153l8.431-7.877a1.51,1.51,0,0,1,2.065,2.2l-9.66,9.02A1.448,1.448,0,0,1,354.259,156.764Z" transform="translate(770.739 527.73)" fill="#e60011"/>
      <path id="パス_256" data-name="パス 256" d="M379.439,128.2h-18.7a1.21,1.21,0,0,1,0-2.419h18.7a1.21,1.21,0,0,1,0,2.419Z" transform="translate(775.533 520.224)" fill="#e60011"/>
      <path id="パス_256_-_アウトライン" data-name="パス 256 - アウトライン" d="M379.439,128.5h-18.7a1.51,1.51,0,0,1,0-3.019h18.7a1.51,1.51,0,0,1,0,3.019Zm-18.7-2.419a.91.91,0,0,0,0,1.819h18.7a.91.91,0,0,0,0-1.819Z" transform="translate(775.533 520.224)" fill="#e60011"/>
      <path id="パス_257" data-name="パス 257" d="M372.821,122.519H360.74a1.21,1.21,0,0,1,0-2.419h12.081a1.21,1.21,0,0,1,1.21,1.21A1.193,1.193,0,0,1,372.821,122.519Z" transform="translate(775.533 518.007)" fill="#e60011"/>
      <path id="パス_257_-_アウトライン" data-name="パス 257 - アウトライン" d="M372.821,122.819H360.74a1.51,1.51,0,0,1,0-3.019h12.081a1.511,1.511,0,0,1,1.509,1.507,1.463,1.463,0,0,1-.421,1.059A1.51,1.51,0,0,1,372.821,122.819ZM360.74,120.4a.91.91,0,0,0,0,1.819h12.081a.915.915,0,0,0,.66-.273.868.868,0,0,0,.25-.63v-.006a.911.911,0,0,0-.91-.91Z" transform="translate(775.533 518.007)" fill="#e60011"/>
      <path id="パス_258" data-name="パス 258" d="M379.439,143.149h-18.7a1.21,1.21,0,0,1,0-2.419h18.7a1.21,1.21,0,0,1,0,2.419Z" transform="translate(775.533 526.058)" fill="#e60011"/>
      <path id="パス_258_-_アウトライン" data-name="パス 258 - アウトライン" d="M379.439,143.449h-18.7a1.51,1.51,0,0,1,0-3.019h18.7a1.51,1.51,0,0,1,0,3.019Zm-18.7-2.419a.91.91,0,0,0,0,1.819h18.7a.91.91,0,0,0,0-1.819Z" transform="translate(775.533 526.058)" fill="#e60011"/>
      <path id="パス_259" data-name="パス 259" d="M372.821,137.469H360.74a1.21,1.21,0,0,1,0-2.419h12.081a1.21,1.21,0,0,1,1.21,1.21A1.193,1.193,0,0,1,372.821,137.469Z" transform="translate(775.533 523.842)" fill="#e60011"/>
      <path id="パス_259_-_アウトライン" data-name="パス 259 - アウトライン" d="M372.821,137.769H360.74a1.51,1.51,0,0,1,0-3.019h12.081a1.511,1.511,0,0,1,1.509,1.507,1.463,1.463,0,0,1-.421,1.059A1.51,1.51,0,0,1,372.821,137.769ZM360.74,135.35a.91.91,0,0,0,0,1.819h12.081a.915.915,0,0,0,.66-.273.868.868,0,0,0,.25-.63v-.006a.911.911,0,0,0-.91-.91Z" transform="translate(775.533 523.842)" fill="#e60011"/>
      <path id="パス_260" data-name="パス 260" d="M379.439,158.109h-18.7a1.21,1.21,0,0,1,0-2.419h18.7a1.21,1.21,0,0,1,0,2.419Z" transform="translate(775.533 531.897)" fill="#e60011"/>
      <path id="パス_260_-_アウトライン" data-name="パス 260 - アウトライン" d="M379.439,158.409h-18.7a1.51,1.51,0,0,1,0-3.019h18.7a1.51,1.51,0,0,1,0,3.019Zm-18.7-2.419a.91.91,0,1,0,0,1.819h18.7a.91.91,0,0,0,0-1.819Z" transform="translate(775.533 531.897)" fill="#e60011"/>
      <path id="パス_261" data-name="パス 261" d="M372.821,152.429H360.74a1.21,1.21,0,0,1,0-2.419h12.081a1.21,1.21,0,0,1,1.21,1.21A1.193,1.193,0,0,1,372.821,152.429Z" transform="translate(775.533 529.68)" fill="#e60011"/>
      <path id="パス_261_-_アウトライン" data-name="パス 261 - アウトライン" d="M372.821,152.729H360.74a1.51,1.51,0,0,1,0-3.019h12.081a1.511,1.511,0,0,1,1.509,1.507,1.463,1.463,0,0,1-.421,1.059A1.51,1.51,0,0,1,372.821,152.729ZM360.74,150.31a.91.91,0,1,0,0,1.819h12.081a.915.915,0,0,0,.66-.273.868.868,0,0,0,.25-.63v-.006a.911.911,0,0,0-.91-.91Z" transform="translate(775.533 529.68)" fill="#e60011"/>
      <path id="パス_566" data-name="パス 566" d="M212.3,33.188s-17.719,5.952-17.854,0S211.4,15.778,212.3,20.534s-25.044,18.12-27.018,12.654S211.681,3.859,212.3,9.08s-32.644,20.786-34.532,15.561c-.57-1.578,1.788-4.5,5.838-8.1C191.461,9.536,206.387.6,207.061,3.179" transform="translate(1021.861 593.274)" fill="none" stroke="#e60011" stroke-linecap="round" stroke-linejoin="round" stroke-width="3"/>
    </g>
  </g>
</svg>
