<svg xmlns="http://www.w3.org/2000/svg" width="390" height="122" viewBox="0 0 390 122"><g transform="translate(-2691.101 -2612.584)"><rect width="390" height="122" transform="translate(2691.101 2612.584)" fill="#fff" opacity="0"/><path d="M572.865,864.13s-14.553-20.767-18.318-14.4S572.865,864.13,572.865,864.13Z" transform="matrix(0.914, 0.407, -0.407, 0.914, 2561.784, 1616.2)" fill="none" stroke="#e60011" stroke-linecap="round" stroke-linejoin="round" stroke-width="3"/><path d="M572.865,864.13s-14.553-20.767-18.318-14.4S572.865,864.13,572.865,864.13Z" transform="matrix(0.899, -0.438, 0.438, 0.899, 1834.412, 2121.041)" fill="none" stroke="#e60011" stroke-linecap="round" stroke-linejoin="round" stroke-width="3"/><g transform="translate(2711.429 2513.815)"><path d="M99.967,179.637H26.958a1.926,1.926,0,0,1-1.925-1.928V128.666a3.858,3.858,0,0,1,3.853-3.855H98.039a3.859,3.859,0,0,1,3.855,3.855v49.043A1.928,1.928,0,0,1,99.967,179.637Zm-71.081-3.855H98.039V128.666H28.886Z" transform="translate(2.456 0)" fill="#e60011"/><path d="M90.45,142.566H67.984a1.928,1.928,0,0,1,0-3.855H90.45a1.928,1.928,0,0,1,0,3.855Z" transform="translate(52.014 16.791)" fill="#e60011"/><path d="M41.053,177.429a13.337,13.337,0,1,1,13.338-13.336A13.35,13.35,0,0,1,41.053,177.429Zm0-22.819a9.483,9.483,0,1,0,9.485,9.483A9.493,9.493,0,0,0,41.053,154.61Z" transform="translate(5.698 31.34)" fill="#e60011"/><path d="M113.43,174.408h-50A1.928,1.928,0,0,1,61.5,172.48V131.065a1.926,1.926,0,0,1,1.928-1.925H79.085a15.513,15.513,0,0,1,14.776,11.011l2.566,8.6a8.567,8.567,0,0,0,4.3,5.16l3.924,2a19.809,19.809,0,0,1,10.706,16.456,1.93,1.93,0,0,1-1.925,2.04Zm-48.076-3.855h45.9a15.9,15.9,0,0,0-8.355-11.205l-3.924-2a12.458,12.458,0,0,1-6.244-7.5l-2.566-8.6a11.634,11.634,0,0,0-11.08-8.26H65.354Z" transform="translate(46.505 5.229)" fill="#e60011"/><path d="M77.517,177.429a13.337,13.337,0,1,1,13.338-13.336A13.352,13.352,0,0,1,77.517,177.429Zm0-22.819A9.483,9.483,0,1,0,87,164.093,9.493,9.493,0,0,0,77.517,154.61Z" transform="translate(49.743 31.34)" fill="#e60011"/><path d="M156.147,164.374h-18.69a1.929,1.929,0,0,1-1.722-1.064,9.467,9.467,0,0,0-16.948,0,1.929,1.929,0,0,1-1.722,1.064H56.95a1.932,1.932,0,0,1-1.724-1.064,9.466,9.466,0,0,0-16.946,0,1.929,1.929,0,0,1-1.724,1.064H24.928A1.928,1.928,0,0,1,23,162.447V149.824a1.928,1.928,0,0,1,1.928-1.928H160.007a1.928,1.928,0,0,1,1.928,1.928v8.763A5.793,5.793,0,0,1,156.147,164.374Zm-17.56-3.855h17.56a1.933,1.933,0,0,0,1.932-1.932v-6.836H26.855v8.768h8.571a13.319,13.319,0,0,1,22.652,0h57.855a13.321,13.321,0,0,1,22.654,0Z" transform="translate(0 27.886)" fill="#e60011"/><path d="M148.909,164.944H24.928a1.926,1.926,0,1,1,0-3.853H148.909a1.926,1.926,0,1,1,0,3.853Z" transform="translate(0 43.825)" fill="#e60011"/></g><g transform="translate(2908.064 2593.671)"><path d="M25.309,130.913a1.582,1.582,0,0,1-1.581-1.581V30.819a1.581,1.581,0,0,1,3.163,0v98.513A1.582,1.582,0,0,1,25.309,130.913Z" fill="#e60011"/><path d="M32.526,130.913a1.582,1.582,0,0,1-1.581-1.581V30.819a1.581,1.581,0,0,1,3.163,0v98.513A1.582,1.582,0,0,1,32.526,130.913Z" transform="translate(5.855)" fill="#e60011"/><path d="M32.21,83.755H27.661a1.581,1.581,0,0,1,0-3.163H32.21a1.581,1.581,0,1,1,0,3.163Z" transform="translate(1.91 41.665)" fill="#e60011"/><path d="M32.21,78.386H27.661a1.581,1.581,0,0,1,0-3.163H32.21a1.581,1.581,0,0,1,0,3.163Z" transform="translate(1.91 37.309)" fill="#e60011"/><path d="M32.21,73.017H27.661a1.581,1.581,0,0,1,0-3.163H32.21a1.581,1.581,0,0,1,0,3.163Z" transform="translate(1.91 32.953)" fill="#e60011"/><path d="M32.21,67.648H27.661a1.581,1.581,0,0,1,0-3.163H32.21a1.581,1.581,0,0,1,0,3.163Z" transform="translate(1.91 28.597)" fill="#e60011"/><path d="M32.21,62.277H27.661a1.58,1.58,0,0,1,0-3.161H32.21a1.58,1.58,0,1,1,0,3.161Z" transform="translate(1.91 24.241)" fill="#e60011"/><path d="M32.21,56.91H27.661a1.581,1.581,0,0,1,0-3.163H32.21a1.581,1.581,0,1,1,0,3.163Z" transform="translate(1.91 19.885)" fill="#e60011"/><path d="M32.21,51.541H27.661a1.581,1.581,0,0,1,0-3.163H32.21a1.581,1.581,0,0,1,0,3.163Z" transform="translate(1.91 15.529)" fill="#e60011"/><path d="M32.21,46.172H27.661a1.581,1.581,0,0,1,0-3.163H32.21a1.581,1.581,0,0,1,0,3.163Z" transform="translate(1.91 11.173)" fill="#e60011"/><path d="M32.21,40.8H27.661a1.581,1.581,0,0,1,0-3.163H32.21a1.581,1.581,0,0,1,0,3.163Z" transform="translate(1.91 6.817)" fill="#e60011"/><path d="M32.21,35.434H27.661a1.581,1.581,0,0,1,0-3.163H32.21a1.581,1.581,0,0,1,0,3.163Z" transform="translate(1.91 2.461)" fill="#e60011"/><path d="M77.814,130.913a1.582,1.582,0,0,1-1.581-1.581V30.819a1.581,1.581,0,0,1,3.163,0v98.513A1.582,1.582,0,0,1,77.814,130.913Z" transform="translate(42.599)" fill="#e60011"/><path d="M85.031,130.913a1.582,1.582,0,0,1-1.581-1.581V30.819a1.581,1.581,0,0,1,3.163,0v98.513A1.582,1.582,0,0,1,85.031,130.913Z" transform="translate(48.454)" fill="#e60011"/><path d="M84.714,83.755H80.167a1.581,1.581,0,1,1,0-3.163h4.546a1.581,1.581,0,1,1,0,3.163Z" transform="translate(44.508 41.665)" fill="#e60011"/><path d="M84.714,78.386H80.167a1.581,1.581,0,0,1,0-3.163h4.546a1.581,1.581,0,0,1,0,3.163Z" transform="translate(44.508 37.309)" fill="#e60011"/><path d="M84.714,73.017H80.167a1.581,1.581,0,1,1,0-3.163h4.546a1.581,1.581,0,1,1,0,3.163Z" transform="translate(44.508 32.953)" fill="#e60011"/><path d="M84.714,67.648H80.167a1.581,1.581,0,1,1,0-3.163h4.546a1.581,1.581,0,1,1,0,3.163Z" transform="translate(44.508 28.597)" fill="#e60011"/><path d="M84.714,62.277H80.167a1.58,1.58,0,1,1,0-3.161h4.546a1.58,1.58,0,1,1,0,3.161Z" transform="translate(44.508 24.241)" fill="#e60011"/><path d="M84.714,56.91H80.167a1.581,1.581,0,1,1,0-3.163h4.546a1.581,1.581,0,1,1,0,3.163Z" transform="translate(44.508 19.885)" fill="#e60011"/><path d="M84.714,51.541H80.167a1.581,1.581,0,1,1,0-3.163h4.546a1.581,1.581,0,1,1,0,3.163Z" transform="translate(44.508 15.529)" fill="#e60011"/><path d="M84.714,46.172H80.167a1.581,1.581,0,1,1,0-3.163h4.546a1.581,1.581,0,1,1,0,3.163Z" transform="translate(44.508 11.173)" fill="#e60011"/><path d="M84.714,40.8H80.167a1.581,1.581,0,1,1,0-3.163h4.546a1.581,1.581,0,1,1,0,3.163Z" transform="translate(44.508 6.817)" fill="#e60011"/><path d="M84.714,35.434H80.167a1.581,1.581,0,1,1,0-3.163h4.546a1.581,1.581,0,1,1,0,3.163Z" transform="translate(44.508 2.461)" fill="#e60011"/><path d="M114.558,79.629H32.526a1.581,1.581,0,1,1,0-3.163h82.032a1.581,1.581,0,0,1,0,3.163Z" transform="translate(5.855 38.318)" fill="#e60011"/><path d="M114.558,63.778H32.526a1.581,1.581,0,1,1,0-3.163h82.032a1.581,1.581,0,0,1,0,3.163Z" transform="translate(5.855 25.457)" fill="#e60011"/><path d="M114.558,47.927H32.526a1.581,1.581,0,1,1,0-3.163h82.032a1.581,1.581,0,0,1,0,3.163Z" transform="translate(5.855 12.597)" fill="#e60011"/><path d="M56.437,72.31H35.219a1.582,1.582,0,0,1-1.581-1.581V51.679A1.582,1.582,0,0,1,35.219,50.1H56.437a1.58,1.58,0,0,1,1.581,1.581v19.05A1.58,1.58,0,0,1,56.437,72.31ZM36.8,69.148H54.858V53.261H36.8Z" transform="translate(8.04 16.924)" fill="#e60011"/><path d="M45.6,58.564H39.351a1.582,1.582,0,0,1-1.581-1.581v-5.3A1.582,1.582,0,0,1,39.351,50.1H45.6a1.582,1.582,0,0,1,1.581,1.581v5.3A1.582,1.582,0,0,1,45.6,58.564ZM40.933,55.4h3.088V53.261H40.933Z" transform="translate(11.393 16.924)" fill="#e60011"/><path d="M41.947,59.953H37.494a1.58,1.58,0,1,1,0-3.161h4.452a1.58,1.58,0,1,1,0,3.161Z" transform="translate(9.886 22.355)" fill="#e60011"/><path d="M70.531,72.31H49.313a1.582,1.582,0,0,1-1.581-1.581V51.679A1.582,1.582,0,0,1,49.313,50.1H70.531a1.582,1.582,0,0,1,1.581,1.581v19.05A1.582,1.582,0,0,1,70.531,72.31ZM50.895,69.148H68.95V53.261H50.895Z" transform="translate(19.475 16.924)" fill="#e60011"/><path d="M59.7,58.564H53.443a1.58,1.58,0,0,1-1.579-1.581v-5.3A1.58,1.58,0,0,1,53.443,50.1H59.7a1.582,1.582,0,0,1,1.581,1.581v5.3A1.582,1.582,0,0,1,59.7,58.564ZM55.025,55.4h3.09V53.261h-3.09Z" transform="translate(22.828 16.924)" fill="#e60011"/><path d="M56.041,59.953H51.588a1.58,1.58,0,1,1,0-3.161h4.452a1.58,1.58,0,1,1,0,3.161Z" transform="translate(21.321 22.355)" fill="#e60011"/><path d="M84.626,72.31H63.406a1.582,1.582,0,0,1-1.581-1.581V51.679A1.582,1.582,0,0,1,63.406,50.1h21.22a1.582,1.582,0,0,1,1.581,1.581v19.05A1.582,1.582,0,0,1,84.626,72.31ZM64.988,69.148H83.045V53.261H64.988Z" transform="translate(30.909 16.924)" fill="#e60011"/><path d="M73.789,58.564H67.538a1.582,1.582,0,0,1-1.581-1.581v-5.3A1.582,1.582,0,0,1,67.538,50.1h6.251a1.582,1.582,0,0,1,1.581,1.581v5.3A1.582,1.582,0,0,1,73.789,58.564ZM69.12,55.4h3.088V53.261H69.12Z" transform="translate(34.262 16.924)" fill="#e60011"/><path d="M70.133,59.953h-4.45a1.58,1.58,0,1,1,0-3.161h4.45a1.58,1.58,0,1,1,0,3.161Z" transform="translate(32.756 22.355)" fill="#e60011"/><path d="M56.437,56.46H35.219a1.582,1.582,0,0,1-1.581-1.581V35.827a1.582,1.582,0,0,1,1.581-1.581H56.437a1.58,1.58,0,0,1,1.581,1.581V54.879A1.58,1.58,0,0,1,56.437,56.46ZM36.8,53.3H54.858V37.409H36.8Z" transform="translate(8.04 4.063)" fill="#e60011"/><path d="M45.6,42.714H39.351a1.582,1.582,0,0,1-1.581-1.581V35.827a1.582,1.582,0,0,1,1.581-1.581H45.6a1.582,1.582,0,0,1,1.581,1.581v5.305A1.582,1.582,0,0,1,45.6,42.714Zm-4.67-3.163h3.088V37.409H40.933Z" transform="translate(11.393 4.063)" fill="#e60011"/><path d="M41.947,44.1H37.494a1.581,1.581,0,1,1,0-3.163h4.452a1.581,1.581,0,0,1,0,3.163Z" transform="translate(9.886 9.494)" fill="#e60011"/><path d="M70.531,56.46H49.313a1.582,1.582,0,0,1-1.581-1.581V35.827a1.582,1.582,0,0,1,1.581-1.581H70.531a1.582,1.582,0,0,1,1.581,1.581V54.879A1.582,1.582,0,0,1,70.531,56.46ZM50.895,53.3H68.95V37.409H50.895Z" transform="translate(19.475 4.063)" fill="#e60011"/><path d="M59.7,42.714H53.443a1.58,1.58,0,0,1-1.579-1.581V35.827a1.58,1.58,0,0,1,1.579-1.581H59.7a1.582,1.582,0,0,1,1.581,1.581v5.305A1.582,1.582,0,0,1,59.7,42.714Zm-4.671-3.163h3.09V37.409h-3.09Z" transform="translate(22.828 4.063)" fill="#e60011"/><path d="M56.041,44.1H51.588a1.581,1.581,0,1,1,0-3.163h4.452a1.581,1.581,0,0,1,0,3.163Z" transform="translate(21.321 9.494)" fill="#e60011"/><path d="M84.626,56.46H63.406a1.582,1.582,0,0,1-1.581-1.581V35.827a1.582,1.582,0,0,1,1.581-1.581h21.22a1.582,1.582,0,0,1,1.581,1.581V54.879A1.582,1.582,0,0,1,84.626,56.46ZM64.988,53.3H83.045V37.409H64.988Z" transform="translate(30.909 4.063)" fill="#e60011"/><path d="M73.789,42.714H67.538a1.582,1.582,0,0,1-1.581-1.581V35.827a1.582,1.582,0,0,1,1.581-1.581h6.251a1.582,1.582,0,0,1,1.581,1.581v5.305A1.582,1.582,0,0,1,73.789,42.714Zm-4.67-3.163h3.088V37.409H69.12Z" transform="translate(34.262 4.063)" fill="#e60011"/><path d="M70.133,44.1h-4.45a1.581,1.581,0,1,1,0-3.163h4.45a1.581,1.581,0,0,1,0,3.163Z" transform="translate(32.756 9.494)" fill="#e60011"/><path d="M56.437,88.161H35.219a1.582,1.582,0,0,1-1.581-1.581V67.53a1.582,1.582,0,0,1,1.581-1.581H56.437a1.58,1.58,0,0,1,1.581,1.581V86.58A1.58,1.58,0,0,1,56.437,88.161ZM36.8,85H54.858V69.112H36.8Z" transform="translate(8.04 29.785)" fill="#e60011"/><path d="M45.6,74.417H39.351a1.582,1.582,0,0,1-1.581-1.581V67.53a1.582,1.582,0,0,1,1.581-1.581H45.6a1.582,1.582,0,0,1,1.581,1.581v5.305A1.582,1.582,0,0,1,45.6,74.417Zm-4.67-3.163h3.088V69.112H40.933Z" transform="translate(11.393 29.785)" fill="#e60011"/><path d="M41.947,75.806H37.494a1.581,1.581,0,0,1,0-3.163h4.452a1.581,1.581,0,0,1,0,3.163Z" transform="translate(9.886 35.216)" fill="#e60011"/><path d="M70.531,88.161H49.313a1.582,1.582,0,0,1-1.581-1.581V67.53a1.582,1.582,0,0,1,1.581-1.581H70.531a1.582,1.582,0,0,1,1.581,1.581V86.58A1.582,1.582,0,0,1,70.531,88.161ZM50.895,85H68.95V69.112H50.895Z" transform="translate(19.475 29.785)" fill="#e60011"/><path d="M59.7,74.417H53.443a1.58,1.58,0,0,1-1.579-1.581V67.53a1.58,1.58,0,0,1,1.579-1.581H59.7a1.582,1.582,0,0,1,1.581,1.581v5.305A1.582,1.582,0,0,1,59.7,74.417Zm-4.671-3.163h3.09V69.112h-3.09Z" transform="translate(22.828 29.785)" fill="#e60011"/><path d="M56.041,75.806H51.588a1.581,1.581,0,1,1,0-3.163h4.452a1.581,1.581,0,0,1,0,3.163Z" transform="translate(21.321 35.216)" fill="#e60011"/><path d="M84.626,88.161H63.406a1.582,1.582,0,0,1-1.581-1.581V67.53a1.582,1.582,0,0,1,1.581-1.581h21.22a1.582,1.582,0,0,1,1.581,1.581V86.58A1.582,1.582,0,0,1,84.626,88.161ZM64.988,85H83.045V69.112H64.988Z" transform="translate(30.909 29.785)" fill="#e60011"/><path d="M73.789,74.417H67.538a1.582,1.582,0,0,1-1.581-1.581V67.53a1.582,1.582,0,0,1,1.581-1.581h6.251A1.582,1.582,0,0,1,75.37,67.53v5.305A1.582,1.582,0,0,1,73.789,74.417Zm-4.67-3.163h3.088V69.112H69.12Z" transform="translate(34.262 29.785)" fill="#e60011"/><path d="M70.133,75.806h-4.45a1.581,1.581,0,0,1,0-3.163h4.45a1.581,1.581,0,0,1,0,3.163Z" transform="translate(32.756 35.216)" fill="#e60011"/></g></g></svg>