<svg xmlns="http://www.w3.org/2000/svg" width="390" height="122" viewBox="0 0 390 122">
  <g id="process__module03_03_02" transform="translate(-2691.101 -2612.584)">
    <rect id="長方形_973" data-name="長方形 973" width="390" height="122" transform="translate(2691.101 2612.584)" fill="#fff" opacity="0"/>
    <g id="グループ_1064" data-name="グループ 1064" transform="translate(2311.657 2509.143)">
      <path id="パス_1604" data-name="パス 1604" d="M440.9,147.186a15.539,15.539,0,1,1,15.538-15.54A15.558,15.558,0,0,1,440.9,147.186Zm0-27.468a11.928,11.928,0,1,0,11.926,11.928A11.941,11.941,0,0,0,440.9,119.718Z" transform="translate(10.765 0)" fill="#e60011"/>
      <path id="パス_1605" data-name="パス 1605" d="M426.514,159.484a1.806,1.806,0,0,1-1.806-1.806V143.629a1.806,1.806,0,0,1,3.612,0v14.049A1.805,1.805,0,0,1,426.514,159.484Z" transform="translate(10.072 27.482)" fill="#e60011"/>
      <path id="パス_1606" data-name="パス 1606" d="M441.089,153.209a1.806,1.806,0,0,1-1.806-1.806v-7.774a1.806,1.806,0,1,1,3.612,0V151.4A1.806,1.806,0,0,1,441.089,153.209Z" transform="translate(25.648 27.482)" fill="#e60011"/>
      <path id="パス_1607" data-name="パス 1607" d="M538.8,160.908H417.09a1.806,1.806,0,0,1-1.806-1.806V150.42a1.806,1.806,0,0,1,1.806-1.806H538.8a1.806,1.806,0,0,1,1.806,1.806V159.1A1.806,1.806,0,0,1,538.8,160.908ZM418.9,157.3h118.1v-5.07H418.9Z" transform="translate(0 34.739)" fill="#e60011"/>
      <path id="パス_1608" data-name="パス 1608" d="M531.256,166.448H419.492a1.8,1.8,0,0,1-1.8-1.806V154.617a1.8,1.8,0,0,1,1.8-1.806H531.256a1.805,1.805,0,0,1,1.806,1.806v10.025A1.805,1.805,0,0,1,531.256,166.448ZM421.3,162.836H529.45v-6.413H421.3Z" transform="translate(2.569 39.225)" fill="#e60011"/>
      <path id="パス_1609" data-name="パス 1609" d="M519.646,168.371a1.805,1.805,0,0,1-1.806-1.806v-5.3H425v5.3a1.806,1.806,0,1,1-3.612,0v-7.1a1.805,1.805,0,0,1,1.806-1.806h96.451a1.806,1.806,0,0,1,1.806,1.806v7.1A1.806,1.806,0,0,1,519.646,168.371Z" transform="translate(6.525 44.404)" fill="#e60011"/>
      <path id="パス_1610" data-name="パス 1610" d="M481.335,155.854H453.393a1.806,1.806,0,0,1-1.806-1.806V150.3a5.086,5.086,0,0,1,5.083-5.081h21.388a5.086,5.086,0,0,1,5.083,5.081v3.749A1.806,1.806,0,0,1,481.335,155.854ZM455.2,152.242h24.33V150.3a1.471,1.471,0,0,0-1.471-1.469H456.67A1.471,1.471,0,0,0,455.2,150.3Z" transform="translate(38.797 31.111)" fill="#e60011"/>
      <path id="パス_1611" data-name="パス 1611" d="M472.478,152.908H456.216a1.806,1.806,0,0,1-1.806-1.806v-7.894a1.8,1.8,0,0,1,1.806-1.8h16.262a1.8,1.8,0,0,1,1.806,1.8V151.1A1.806,1.806,0,0,1,472.478,152.908ZM458.022,149.3h12.65v-4.282h-12.65Z" transform="translate(41.814 27.034)" fill="#e60011"/>
      <path id="パス_1612" data-name="パス 1612" d="M488.516,158.308h-36.07a3.7,3.7,0,0,1-3.7-3.7V132.666a3.7,3.7,0,0,1,3.7-3.7h36.07a3.7,3.7,0,0,1,3.7,3.7v21.943A3.7,3.7,0,0,1,488.516,158.308Zm-36.07-25.731-.089,22.032,36.159.089.089-22.032-.089-.089Z" transform="translate(35.76 13.74)" fill="#e60011"/>
      <path id="パス_1613" data-name="パス 1613" d="M462.16,144.6a5.634,5.634,0,1,1,5.635-5.635A5.639,5.639,0,0,1,462.16,144.6Zm0-7.656a2.022,2.022,0,1,0,2.023,2.021A2.022,2.022,0,0,0,462.16,136.946Z" transform="translate(44.079 18.41)" fill="#e60011"/>
      <path id="パス_1614" data-name="パス 1614" d="M467.582,155.467H431a1.806,1.806,0,0,1-1.806-1.806v-2.487a5.6,5.6,0,0,1,5.594-5.594h29.007a5.6,5.6,0,0,1,5.6,5.594v2.487A1.806,1.806,0,0,1,467.582,155.467ZM432.8,151.855h32.973v-.681a1.986,1.986,0,0,0-1.984-1.982H434.785a1.985,1.985,0,0,0-1.982,1.982Z" transform="translate(14.863 31.498)" fill="#e60011"/>
      <path id="パス_1615" data-name="パス 1615" d="M442.434,169.106H420.295a1.805,1.805,0,0,1-1.806-1.806V143.74a10.934,10.934,0,0,1,10.923-10.921H467.06a10.933,10.933,0,0,1,10.921,10.921V161.16a1.8,1.8,0,0,1-2.261,1.746,2.032,2.032,0,0,0-.49-.074H446.222a1.985,1.985,0,0,0-1.982,1.982V167.3A1.806,1.806,0,0,1,442.434,169.106ZM422.1,165.494h18.527v-.681a5.6,5.6,0,0,1,5.594-5.594h28.149V143.74a7.318,7.318,0,0,0-7.311-7.309H429.412a7.318,7.318,0,0,0-7.311,7.309Z" transform="translate(3.425 17.859)" fill="#e60011"/>
    </g>
    <g id="グループ_1065" data-name="グループ 1065" transform="translate(2919.941 2625.251)">
      <path id="パス_1604-2" data-name="パス 1604" d="M440.9,147.186a15.539,15.539,0,1,0-15.538-15.54A15.558,15.558,0,0,0,440.9,147.186Zm0-27.468a11.928,11.928,0,1,1-11.926,11.928A11.941,11.941,0,0,1,440.9,119.718Z" transform="translate(-351.953 -116.108)" fill="#e60011"/>
      <path id="パス_1605-2" data-name="パス 1605" d="M426.514,159.483a1.806,1.806,0,0,0,1.806-1.806V143.629a1.806,1.806,0,0,0-3.612,0v14.049A1.805,1.805,0,0,0,426.514,159.483Z" transform="translate(-322.495 -88.627)" fill="#e60011"/>
      <path id="パス_1606-2" data-name="パス 1606" d="M441.089,153.209a1.806,1.806,0,0,0,1.806-1.806v-7.774a1.806,1.806,0,0,0-3.612,0V151.4A1.806,1.806,0,0,0,441.089,153.209Z" transform="translate(-367.221 -88.627)" fill="#e60011"/>
      <path id="パス_1607-2" data-name="パス 1607" d="M417.09,160.908H538.8A1.806,1.806,0,0,0,540.6,159.1V150.42a1.806,1.806,0,0,0-1.806-1.806H417.09a1.806,1.806,0,0,0-1.806,1.806V159.1A1.806,1.806,0,0,0,417.09,160.908Zm119.9-3.612H418.9v-5.07h118.1Z" transform="translate(-415.284 -81.369)" fill="#e60011"/>
      <path id="パス_1608-2" data-name="パス 1608" d="M419.494,166.448H531.258a1.8,1.8,0,0,0,1.8-1.806V154.617a1.8,1.8,0,0,0-1.8-1.806H419.494a1.805,1.805,0,0,0-1.806,1.806v10.025A1.805,1.805,0,0,0,419.494,166.448Zm109.958-3.612H421.3v-6.413H529.452Z" transform="translate(-412.715 -76.884)" fill="#e60011"/>
      <path id="パス_1609-2" data-name="パス 1609" d="M423.2,168.371A1.805,1.805,0,0,0,425,166.565v-5.3h92.84v5.3a1.806,1.806,0,1,0,3.612,0v-7.1a1.805,1.805,0,0,0-1.806-1.806H423.2a1.806,1.806,0,0,0-1.806,1.806v7.1A1.806,1.806,0,0,0,423.2,168.371Z" transform="translate(-408.762 -71.705)" fill="#e60011"/>
      <path id="パス_1610-2" data-name="パス 1610" d="M453.393,155.854h27.942a1.806,1.806,0,0,0,1.806-1.806V150.3a5.086,5.086,0,0,0-5.083-5.081H456.67a5.086,5.086,0,0,0-5.083,5.081v3.748A1.806,1.806,0,0,0,453.393,155.854Zm26.136-3.612H455.2V150.3a1.471,1.471,0,0,1,1.471-1.469h21.388a1.471,1.471,0,0,1,1.471,1.469Z" transform="translate(-432.921 -84.997)" fill="#e60011"/>
      <path id="パス_1611-2" data-name="パス 1611" d="M456.216,152.908h16.262a1.806,1.806,0,0,0,1.806-1.806v-7.894a1.8,1.8,0,0,0-1.806-1.8H456.216a1.8,1.8,0,0,0-1.806,1.8V151.1A1.806,1.806,0,0,0,456.216,152.908Zm14.456-3.612h-12.65v-4.282h12.65Z" transform="translate(-429.904 -89.074)" fill="#e60011"/>
      <path id="パス_1612-2" data-name="パス 1612" d="M452.446,158.307h36.07a3.7,3.7,0,0,0,3.7-3.7V132.666a3.7,3.7,0,0,0-3.7-3.7h-36.07a3.7,3.7,0,0,0-3.7,3.7v21.943A3.7,3.7,0,0,0,452.446,158.307Zm36.07-25.73.089,22.032-36.159.089-.089-22.032.089-.089Z" transform="translate(-436.117 -102.368)" fill="#e60011"/>
      <path id="パス_1613-2" data-name="パス 1613" d="M462.164,144.6a5.634,5.634,0,1,0-5.635-5.635A5.639,5.639,0,0,0,462.164,144.6Zm0-7.656a2.022,2.022,0,1,1-2.023,2.021A2.022,2.022,0,0,1,462.164,136.946Z" transform="translate(-427.799 -97.699)" fill="#e60011"/>
      <path id="パス_1614-2" data-name="パス 1614" d="M431,155.467h36.585a1.806,1.806,0,0,0,1.806-1.806v-2.487a5.6,5.6,0,0,0-5.594-5.594H434.787a5.6,5.6,0,0,0-5.6,5.594v2.487A1.806,1.806,0,0,0,431,155.467Zm34.779-3.612H432.8v-.681a1.986,1.986,0,0,1,1.984-1.982h29.007a1.985,1.985,0,0,1,1.982,1.982Z" transform="translate(-372.837 -84.61)" fill="#e60011"/>
      <path id="パス_1615-2" data-name="パス 1615" d="M454.036,169.106h22.139a1.805,1.805,0,0,0,1.806-1.806V143.74a10.934,10.934,0,0,0-10.923-10.921H429.41a10.933,10.933,0,0,0-10.921,10.921v17.42a1.8,1.8,0,0,0,2.261,1.746,2.032,2.032,0,0,1,.49-.074h29.007a1.985,1.985,0,0,1,1.982,1.982V167.3A1.806,1.806,0,0,0,454.036,169.106Zm20.333-3.612H455.842v-.681a5.6,5.6,0,0,0-5.594-5.594H422.1V143.74a7.318,7.318,0,0,1,7.311-7.309h37.648a7.318,7.318,0,0,1,7.311,7.309Z" transform="translate(-359.291 -98.249)" fill="#e60011"/>
    </g>
    <line id="線_56" data-name="線 56" x2="71" transform="translate(2852.601 2667.084)" fill="none" stroke="#e60011" stroke-linecap="round" stroke-width="3"/>
  </g>
</svg>
