<svg xmlns="http://www.w3.org/2000/svg" width="390" height="122"><g fill="#e60011"><path d="M132.057 74.645H71.268a1.5 1.5 0 01-1.5-1.5v-11.4a1.5 1.5 0 011.5-1.5h60.789a1.5 1.5 0 011.5 1.5v11.4a1.5 1.5 0 01-1.5 1.5zm-59.29-3h57.791v-8.4H72.767z"/><path d="M93.696 63.247H77.225a1.5 1.5 0 01-1.5-1.5v-8.1a1.5 1.5 0 011.5-1.5h16.471a1.5 1.5 0 011.5 1.5v8.1a1.5 1.5 0 01-1.5 1.5zm-14.973-3h13.473v-5.1H78.724z"/><path d="M110.167 63.247h-16.47a1.5 1.5 0 01-1.5-1.5v-8.1a1.5 1.5 0 011.5-1.5h16.47a1.5 1.5 0 011.5 1.5v8.1a1.5 1.5 0 01-1.5 1.5zm-14.971-3h13.472v-5.1H95.196z"/><path d="M101.936 55.151h-16.47a1.5 1.5 0 01-1.5-1.5v-12.82a1.5 1.5 0 011.5-1.5h16.47a1.5 1.5 0 011.5 1.5v12.821a1.5 1.5 0 01-1.5 1.499zm-14.971-3h13.471v-9.823H86.961z"/><path d="M118.402 55.151h-16.47a1.5 1.5 0 01-1.5-1.5v-12.82a1.5 1.5 0 011.5-1.5h16.47a1.5 1.5 0 011.5 1.5v12.821a1.5 1.5 0 01-1.5 1.499zm-14.973-3h13.474v-9.823h-13.474z"/><path d="M126.637 63.247h-16.47a1.5 1.5 0 01-1.5-1.5v-8.1a1.5 1.5 0 011.5-1.5h16.47a1.5 1.5 0 011.5 1.5v8.1a1.5 1.5 0 01-1.5 1.5zm-14.971-3h13.472v-5.1h-13.472zM93.57 97.079a9.89 9.89 0 119.889-9.89 9.9 9.9 0 01-9.889 9.89zm0-16.783a6.892 6.892 0 106.892 6.892 6.9 6.9 0 00-6.892-6.892zM138.551 97.079a9.89 9.89 0 119.89-9.89 9.9 9.9 0 01-9.89 9.89zm0-16.783a6.892 6.892 0 106.892 6.892 6.9 6.9 0 00-6.892-6.892z"/><path d="M158.119 85.486h-11.817a1.5 1.5 0 01-1.384-.927 6.886 6.886 0 00-12.734 0 1.5 1.5 0 01-1.386.927H101.32a1.5 1.5 0 01-1.384-.927 6.887 6.887 0 00-12.735 0 1.5 1.5 0 01-1.386.925h-6.714a4.84 4.84 0 01-4.834-4.835v-7.505a1.5 1.5 0 011.5-1.5h54.793v-27.48a1.5 1.5 0 011.5-1.5h11.782a5.851 5.851 0 015.7 4.485l1.935 8a1.836 1.836 0 001.03 1.241l5.086 2.3a9.142 9.142 0 015.359 8.311v13.65a4.84 4.84 0 01-4.833 4.835zm-10.871-3h10.871a1.839 1.839 0 001.837-1.837V67.013a6.133 6.133 0 00-3.6-5.579l-5.086-2.3a4.8 4.8 0 01-2.7-3.266l-1.937-8.005a2.861 2.861 0 00-2.789-2.193h-10.288v27.48a1.5 1.5 0 01-1.5 1.5H77.264v6.006a1.839 1.839 0 001.837 1.837h5.769a9.883 9.883 0 0117.4 0h27.586a9.883 9.883 0 0117.4 0z"/><path d="M152.864 59.705h-15.593a1.5 1.5 0 010-3h15.594a1.5 1.5 0 010 3zM161.456 77.772h-5.828a4.267 4.267 0 01-4.262-4.262v-.625a4.266 4.266 0 014.262-4.262h5.828a1.5 1.5 0 011.5 1.5v6.151a1.5 1.5 0 01-1.5 1.498zm-5.828-6.151a1.267 1.267 0 00-1.265 1.264v.625a1.267 1.267 0 001.265 1.264h4.329v-3.153zM151.718 97.078H73.473a1.5 1.5 0 010-3h78.245a1.5 1.5 0 110 3zM71.268 87.154H60.547a1.5 1.5 0 110-3h10.721a1.5 1.5 0 110 3z"/><g stroke="#e60011" stroke-width=".2"><path d="M314.29 97.078h-68.579a1.131 1.131 0 01-1.131-1.131V40.655a1.131 1.131 0 112.261 0v54.163h66.318V40.655a1.131 1.131 0 112.261 0v55.293a1.13 1.13 0 01-1.13 1.13z"/><path d="M318.058 42.63a1.137 1.137 0 01-.246-.027l-37.811-8.47-37.811 8.47a1.129 1.129 0 01-1.377-1.1V35.38a1.13 1.13 0 01.861-1.1l38.057-9.326a1.148 1.148 0 01.539 0l38.057 9.326a1.13 1.13 0 01.861 1.1v6.123a1.129 1.129 0 01-1.131 1.131zm-38.057-10.789a1.14 1.14 0 01.247.028l36.681 8.216v-3.824l-36.928-9.048-36.928 9.048v3.824l36.681-8.216a1.14 1.14 0 01.247-.028zM303.176 97.078h-46.35a1.13 1.13 0 01-1.129-1.131V51.862a1.13 1.13 0 011.129-1.131h46.35a1.13 1.13 0 011.131 1.131v44.086a1.13 1.13 0 01-1.131 1.13zm-45.219-2.257h44.087v-41.83h-44.087z"/><path d="M303.176 59.021h-46.35a1.13 1.13 0 01-1.129-1.131v-6.028a1.13 1.13 0 011.129-1.131h46.35a1.13 1.13 0 011.131 1.131v6.028a1.13 1.13 0 01-1.131 1.131zm-45.218-2.261h44.087v-3.769h-44.088z"/><path d="M303.176 65.051h-46.35a1.13 1.13 0 01-1.129-1.131v-6.025a1.13 1.13 0 011.129-1.131h46.35a1.13 1.13 0 011.131 1.131v6.03a1.13 1.13 0 01-1.131 1.126zm-45.218-2.261h44.087v-3.769h-44.088zM303.175 97.078h-11.022a1.131 1.131 0 01-1.131-1.131v-11.02a1.131 1.131 0 011.131-1.131h11.022a1.13 1.13 0 011.131 1.131v11.021a1.13 1.13 0 01-1.131 1.13zm-9.892-2.26h8.761v-8.764h-8.761z"/><path d="M292.154 97.079h-14.791a1.131 1.131 0 01-1.131-1.131V82.195a1.131 1.131 0 011.131-1.131h14.791a1.13 1.13 0 011.131 1.131v13.753a1.13 1.13 0 01-1.131 1.131zm-13.659-2.26h12.528V83.325h-12.53z"/><path d="M287.349 87.187h-5.181a1.13 1.13 0 01-1.131-1.129v-3.863a1.131 1.131 0 011.131-1.131h5.181a1.13 1.13 0 011.129 1.131v3.863a1.129 1.129 0 01-1.129 1.129zm-4.051-2.26h2.92v-1.6h-2.92zM318.058 97.079h-76.116a1.13 1.13 0 010-2.26h76.116a1.13 1.13 0 110 2.26zM303.551 52.991h-47.1a3.3 3.3 0 110-6.594h47.1a3.3 3.3 0 110 6.594zm-47.1-4.333a1.037 1.037 0 100 2.073h47.1a1.037 1.037 0 000-2.073z"/></g></g></svg>