<svg xmlns="http://www.w3.org/2000/svg" width="390" height="122" viewBox="0 0 390 122">
  <g id="process__module03_03_04" transform="translate(0 -2612.584)">
    <rect id="長方形_973" data-name="長方形 973" width="390" height="122" transform="translate(0 2612.584)" fill="#fff" opacity="0"/>
    <g id="グループ_1072" data-name="グループ 1072" transform="translate(144.68 2628.271)">
      <path id="パス_1164" data-name="パス 1164" d="M383.118,408.162H341.125a1.447,1.447,0,0,1-1.448-1.447V368.649a1.447,1.447,0,0,1,1.448-1.448h41.993a1.446,1.446,0,0,1,1.448,1.448v38.066A1.446,1.446,0,0,1,383.118,408.162Zm-40.544-2.895h39.1V370.1h-39.1Z" transform="translate(-335.055 -329.136)" fill="#e60011"/>
      <path id="パス_1165" data-name="パス 1165" d="M361.38,377.649H350.5a1.446,1.446,0,0,1-1.448-1.447v-7.553A1.446,1.446,0,0,1,350.5,367.2H361.38a1.448,1.448,0,0,1,1.448,1.448V376.2A1.447,1.447,0,0,1,361.38,377.649Zm-9.429-2.895h7.981V370.1h-7.981Z" transform="translate(-328.875 -329.136)" fill="#e60011"/>
      <path id="パス_1166" data-name="パス 1166" d="M348.214,389.218h-3.827a1.447,1.447,0,1,1,0-2.895h3.827a1.447,1.447,0,1,1,0,2.895Z" transform="translate(-332.906 -316.536)" fill="#e60011"/>
      <path id="パス_1167" data-name="パス 1167" d="M353.48,389.218h-3.825a1.447,1.447,0,1,1,0-2.895h3.825a1.447,1.447,0,1,1,0,2.895Z" transform="translate(-329.435 -316.536)" fill="#e60011"/>
      <path id="パス_1168" data-name="パス 1168" d="M396.442,385.217H354.449A1.447,1.447,0,0,1,353,383.768V345.7a1.446,1.446,0,0,1,1.448-1.448h41.993a1.448,1.448,0,0,1,1.448,1.448v38.064A1.449,1.449,0,0,1,396.442,385.217Zm-40.544-2.9h39.1V347.152H355.9Z" transform="translate(-326.276 -344.255)" fill="#e60011"/>
      <path id="パス_1169" data-name="パス 1169" d="M374.7,354.706H363.828a1.449,1.449,0,0,1-1.448-1.448V345.7a1.448,1.448,0,0,1,1.448-1.448H374.7a1.446,1.446,0,0,1,1.448,1.448v7.553A1.447,1.447,0,0,1,374.7,354.706Zm-9.426-2.9h7.978v-4.657h-7.978Z" transform="translate(-320.096 -344.255)" fill="#e60011"/>
      <path id="パス_1170" data-name="パス 1170" d="M361.538,366.273h-3.826a1.448,1.448,0,1,1,0-2.9h3.826a1.448,1.448,0,1,1,0,2.9Z" transform="translate(-324.126 -331.656)" fill="#e60011"/>
      <path id="パス_1171" data-name="パス 1171" d="M366.805,366.273h-3.827a1.448,1.448,0,1,1,0-2.9h3.827a1.448,1.448,0,1,1,0,2.9Z" transform="translate(-320.656 -331.656)" fill="#e60011"/>
      <path id="パス_1172" data-name="パス 1172" d="M412.073,408.162H370.08a1.446,1.446,0,0,1-1.448-1.447V368.649a1.446,1.446,0,0,1,1.448-1.448h41.993a1.448,1.448,0,0,1,1.448,1.448v38.066A1.447,1.447,0,0,1,412.073,408.162Zm-40.544-2.895h39.1V370.1h-39.1Z" transform="translate(-315.976 -329.136)" fill="#e60011"/>
      <path id="パス_1173" data-name="パス 1173" d="M390.334,377.649H379.458a1.447,1.447,0,0,1-1.448-1.447v-7.553a1.447,1.447,0,0,1,1.448-1.448h10.876a1.446,1.446,0,0,1,1.448,1.448V376.2A1.446,1.446,0,0,1,390.334,377.649Zm-9.428-2.895h7.979V370.1h-7.979Z" transform="translate(-309.797 -329.136)" fill="#e60011"/>
      <path id="パス_1174" data-name="パス 1174" d="M377.17,389.218h-3.827a1.447,1.447,0,1,1,0-2.895h3.827a1.447,1.447,0,0,1,0,2.895Z" transform="translate(-313.826 -316.536)" fill="#e60011"/>
      <path id="パス_1175" data-name="パス 1175" d="M382.435,389.218h-3.827a1.447,1.447,0,1,1,0-2.895h3.827a1.447,1.447,0,1,1,0,2.895Z" transform="translate(-310.357 -316.536)" fill="#e60011"/>
      <path id="パス_1176" data-name="パス 1176" d="M436.6,393.042H338.338a1.447,1.447,0,0,1,0-2.895H436.6a1.447,1.447,0,1,1,0,2.895Z" transform="translate(-336.891 -314.017)" fill="#e60011"/>
      <path id="パス_1177" data-name="パス 1177" d="M436.6,399.745H338.338a1.448,1.448,0,0,1,0-2.9H436.6a1.448,1.448,0,0,1,0,2.9Z" transform="translate(-336.891 -309.6)" fill="#e60011"/>
      <path id="パス_1178" data-name="パス 1178" d="M353.362,404.162H343.217a1.446,1.446,0,0,1-1.448-1.448V391.6a1.446,1.446,0,0,1,1.448-1.448h10.144a1.446,1.446,0,0,1,1.448,1.448v11.118A1.446,1.446,0,0,1,353.362,404.162Zm-8.7-2.9h7.248v-8.223h-7.248Z" transform="translate(-333.677 -314.017)" fill="#e60011"/>
      <path id="パス_1179" data-name="パス 1179" d="M368.086,404.162H357.94a1.447,1.447,0,0,1-1.448-1.448V391.6a1.447,1.447,0,0,1,1.448-1.448h10.146a1.446,1.446,0,0,1,1.448,1.448v11.118A1.446,1.446,0,0,1,368.086,404.162Zm-8.7-2.9h7.251v-8.223h-7.251Z" transform="translate(-323.975 -314.017)" fill="#e60011"/>
      <path id="パス_1180" data-name="パス 1180" d="M382,404.162H371.855a1.447,1.447,0,0,1-1.448-1.448V391.6a1.447,1.447,0,0,1,1.448-1.448H382a1.447,1.447,0,0,1,1.448,1.448v11.118A1.448,1.448,0,0,1,382,404.162Zm-8.7-2.9h7.25v-8.223H373.3Z" transform="translate(-314.806 -314.017)" fill="#e60011"/>
      <path id="パス_1181" data-name="パス 1181" d="M396.725,404.162H386.579a1.446,1.446,0,0,1-1.448-1.448V391.6a1.446,1.446,0,0,1,1.448-1.448h10.146a1.447,1.447,0,0,1,1.448,1.448v11.118A1.448,1.448,0,0,1,396.725,404.162Zm-8.7-2.9h7.25v-8.223h-7.25Z" transform="translate(-305.104 -314.017)" fill="#e60011"/>
    </g>
    <g id="グループ_1073" data-name="グループ 1073" transform="translate(21.558 2634.181)">
      <path id="パス_1289" data-name="パス 1289" d="M279.855,321.639H182.109a1.448,1.448,0,0,1,0-2.9h97.746a1.448,1.448,0,1,1,0,2.9Z" transform="translate(-180.662 -237.589)" fill="#e60011"/>
      <path id="パス_1290" data-name="パス 1290" d="M279.855,314.11H182.109a1.448,1.448,0,0,1,0-2.9h97.746a1.448,1.448,0,1,1,0,2.9Z" transform="translate(-180.662 -242.55)" fill="#e60011"/>
      <path id="パス_1291" data-name="パス 1291" d="M204.188,326.6H188.983a1.447,1.447,0,0,1-1.447-1.448v-12.49a1.446,1.446,0,0,1,1.447-1.448h15.206a1.448,1.448,0,0,1,1.448,1.448v12.49A1.449,1.449,0,0,1,204.188,326.6Zm-13.758-2.9H202.74V314.11H190.431Z" transform="translate(-176.133 -242.55)" fill="#e60011"/>
      <path id="パス_1292" data-name="パス 1292" d="M222.191,326.6h-15.2a1.449,1.449,0,0,1-1.448-1.448v-12.49a1.448,1.448,0,0,1,1.448-1.448h15.2a1.447,1.447,0,0,1,1.448,1.448v12.49A1.449,1.449,0,0,1,222.191,326.6Zm-13.756-2.9h12.308V314.11H208.435Z" transform="translate(-164.27 -242.55)" fill="#e60011"/>
      <path id="パス_1293" data-name="パス 1293" d="M240.2,326.6H224.99a1.449,1.449,0,0,1-1.448-1.448v-12.49a1.447,1.447,0,0,1,1.448-1.448H240.2a1.447,1.447,0,0,1,1.448,1.448v12.49A1.449,1.449,0,0,1,240.2,326.6Zm-13.758-2.9h12.309V314.11H226.438Z" transform="translate(-152.407 -242.55)" fill="#e60011"/>
      <path id="パス_1294" data-name="パス 1294" d="M228.394,327.746H186.037a1.447,1.447,0,0,1-1.447-1.448V291.967a1.446,1.446,0,0,1,1.447-1.447h42.357a1.446,1.446,0,0,1,1.447,1.447V326.3A1.447,1.447,0,0,1,228.394,327.746Zm-40.909-2.9h39.461V293.415H187.485Z" transform="translate(-178.074 -256.186)" fill="#e60011"/>
      <path id="パス_1295" data-name="パス 1295" d="M207.655,306.207a1.437,1.437,0,0,1-.6-.133l-5.733-2.619-5.735,2.619a1.447,1.447,0,0,1-2.049-1.316V291.967a1.447,1.447,0,0,1,1.448-1.447h12.669a1.447,1.447,0,0,1,1.448,1.447v12.792a1.45,1.45,0,0,1-1.448,1.448Zm-6.334-5.793a1.431,1.431,0,0,1,.6.131l4.287,1.959v-9.089h-9.776V302.5l4.287-1.959A1.433,1.433,0,0,1,201.321,300.414Z" transform="translate(-172.178 -256.186)" fill="#e60011"/>
      <path id="パス_1296" data-name="パス 1296" d="M200.195,313.143a4.947,4.947,0,1,1,4.947-4.945A4.952,4.952,0,0,1,200.195,313.143Zm0-7a2.051,2.051,0,1,0,2.05,2.052A2.055,2.055,0,0,0,200.195,306.146Z" transform="translate(-171.052 -247.799)" fill="#e60011"/>
      <path id="パス_1297" data-name="パス 1297" d="M253.926,327.746H211.57a1.449,1.449,0,0,1-1.448-1.448V291.967a1.447,1.447,0,0,1,1.448-1.447h42.356a1.447,1.447,0,0,1,1.448,1.447V326.3A1.449,1.449,0,0,1,253.926,327.746Zm-40.909-2.9h39.461V293.415H213.017Z" transform="translate(-161.25 -256.186)" fill="#e60011"/>
      <path id="パス_1298" data-name="パス 1298" d="M233.188,306.207a1.439,1.439,0,0,1-.6-.133l-5.733-2.619-5.735,2.619a1.447,1.447,0,0,1-2.049-1.316V291.967a1.447,1.447,0,0,1,1.448-1.447h12.671a1.446,1.446,0,0,1,1.447,1.447v12.792a1.45,1.45,0,0,1-1.447,1.448Zm-6.335-5.793a1.431,1.431,0,0,1,.6.131l4.287,1.959v-9.089h-9.774V302.5l4.285-1.959A1.438,1.438,0,0,1,226.853,300.414Z" transform="translate(-155.354 -256.186)" fill="#e60011"/>
      <path id="パス_1299" data-name="パス 1299" d="M225.727,313.143a4.947,4.947,0,1,1,4.947-4.945A4.952,4.952,0,0,1,225.727,313.143Zm0-7a2.051,2.051,0,1,0,2.052,2.052A2.055,2.055,0,0,0,225.727,306.146Z" transform="translate(-154.228 -247.799)" fill="#e60011"/>
      <path id="パス_1300" data-name="パス 1300" d="M228.394,307.052H186.037a1.446,1.446,0,0,1-1.447-1.448V271.272a1.447,1.447,0,0,1,1.447-1.448h42.357a1.447,1.447,0,0,1,1.447,1.448V305.6A1.446,1.446,0,0,1,228.394,307.052Zm-40.909-2.895h39.461V272.72H187.485Z" transform="translate(-178.074 -269.823)" fill="#e60011"/>
      <path id="パス_1301" data-name="パス 1301" d="M207.655,285.512a1.436,1.436,0,0,1-.6-.131l-5.733-2.621-5.735,2.621a1.447,1.447,0,0,1-2.049-1.317V271.272a1.449,1.449,0,0,1,1.448-1.448h12.669a1.449,1.449,0,0,1,1.448,1.448v12.792a1.446,1.446,0,0,1-1.448,1.448Zm-6.334-5.793a1.433,1.433,0,0,1,.6.133l4.287,1.958V272.72h-9.776v9.089l4.287-1.958A1.435,1.435,0,0,1,201.321,279.719Z" transform="translate(-172.178 -269.823)" fill="#e60011"/>
      <path id="パス_1302" data-name="パス 1302" d="M200.195,292.45a4.948,4.948,0,1,1,4.947-4.949A4.954,4.954,0,0,1,200.195,292.45Zm0-7a2.051,2.051,0,1,0,2.05,2.05A2.053,2.053,0,0,0,200.195,285.45Z" transform="translate(-171.052 -261.435)" fill="#e60011"/>
      <path id="パス_1303" data-name="パス 1303" d="M253.926,307.052H211.57a1.447,1.447,0,0,1-1.448-1.448V271.272a1.449,1.449,0,0,1,1.448-1.448h42.356a1.449,1.449,0,0,1,1.448,1.448V305.6A1.447,1.447,0,0,1,253.926,307.052Zm-40.909-2.895h39.461V272.72H213.017Z" transform="translate(-161.25 -269.823)" fill="#e60011"/>
      <path id="パス_1304" data-name="パス 1304" d="M233.188,285.512a1.437,1.437,0,0,1-.6-.131l-5.733-2.621-5.735,2.621a1.447,1.447,0,0,1-2.049-1.317V271.272a1.449,1.449,0,0,1,1.448-1.448h12.671a1.447,1.447,0,0,1,1.447,1.448v12.792a1.446,1.446,0,0,1-1.447,1.448Zm-6.335-5.793a1.433,1.433,0,0,1,.6.133l4.287,1.958V272.72h-9.774v9.089l4.285-1.958A1.44,1.44,0,0,1,226.853,279.719Z" transform="translate(-155.354 -269.823)" fill="#e60011"/>
      <path id="パス_1305" data-name="パス 1305" d="M225.727,292.45a4.948,4.948,0,1,1,4.947-4.949A4.954,4.954,0,0,1,225.727,292.45Zm0-7a2.051,2.051,0,1,0,2.052,2.05A2.053,2.053,0,0,0,225.727,285.45Z" transform="translate(-154.228 -261.435)" fill="#e60011"/>
    </g>
    <g id="グループ_1074" data-name="グループ 1074" transform="translate(267.802 2634.181)">
      <path id="パス_1289-2" data-name="パス 1289" d="M279.855,321.639H182.109a1.448,1.448,0,0,1,0-2.9h97.746a1.448,1.448,0,1,1,0,2.9Z" transform="translate(-180.662 -237.589)" fill="#e60011"/>
      <path id="パス_1290-2" data-name="パス 1290" d="M279.855,314.11H182.109a1.448,1.448,0,0,1,0-2.9h97.746a1.448,1.448,0,1,1,0,2.9Z" transform="translate(-180.662 -242.55)" fill="#e60011"/>
      <path id="パス_1291-2" data-name="パス 1291" d="M204.188,326.6H188.983a1.447,1.447,0,0,1-1.447-1.448v-12.49a1.446,1.446,0,0,1,1.447-1.448h15.206a1.448,1.448,0,0,1,1.448,1.448v12.49A1.449,1.449,0,0,1,204.188,326.6Zm-13.758-2.9H202.74V314.11H190.431Z" transform="translate(-176.133 -242.55)" fill="#e60011"/>
      <path id="パス_1292-2" data-name="パス 1292" d="M222.191,326.6h-15.2a1.449,1.449,0,0,1-1.448-1.448v-12.49a1.448,1.448,0,0,1,1.448-1.448h15.2a1.447,1.447,0,0,1,1.448,1.448v12.49A1.449,1.449,0,0,1,222.191,326.6Zm-13.756-2.9h12.308V314.11H208.435Z" transform="translate(-164.27 -242.55)" fill="#e60011"/>
      <path id="パス_1293-2" data-name="パス 1293" d="M240.2,326.6H224.99a1.449,1.449,0,0,1-1.448-1.448v-12.49a1.447,1.447,0,0,1,1.448-1.448H240.2a1.447,1.447,0,0,1,1.448,1.448v12.49A1.449,1.449,0,0,1,240.2,326.6Zm-13.758-2.9h12.309V314.11H226.438Z" transform="translate(-152.407 -242.55)" fill="#e60011"/>
      <path id="パス_1294-2" data-name="パス 1294" d="M228.394,327.746H186.037a1.447,1.447,0,0,1-1.447-1.448V291.967a1.446,1.446,0,0,1,1.447-1.447h42.357a1.446,1.446,0,0,1,1.447,1.447V326.3A1.447,1.447,0,0,1,228.394,327.746Zm-40.909-2.9h39.461V293.415H187.485Z" transform="translate(-178.074 -256.186)" fill="#e60011"/>
      <path id="パス_1295-2" data-name="パス 1295" d="M207.655,306.207a1.437,1.437,0,0,1-.6-.133l-5.733-2.619-5.735,2.619a1.447,1.447,0,0,1-2.049-1.316V291.967a1.447,1.447,0,0,1,1.448-1.447h12.669a1.447,1.447,0,0,1,1.448,1.447v12.792a1.45,1.45,0,0,1-1.448,1.448Zm-6.334-5.793a1.431,1.431,0,0,1,.6.131l4.287,1.959v-9.089h-9.776V302.5l4.287-1.959A1.433,1.433,0,0,1,201.321,300.414Z" transform="translate(-172.178 -256.186)" fill="#e60011"/>
      <path id="パス_1296-2" data-name="パス 1296" d="M200.195,313.143a4.947,4.947,0,1,1,4.947-4.945A4.952,4.952,0,0,1,200.195,313.143Zm0-7a2.051,2.051,0,1,0,2.05,2.052A2.055,2.055,0,0,0,200.195,306.146Z" transform="translate(-171.052 -247.799)" fill="#e60011"/>
      <path id="パス_1297-2" data-name="パス 1297" d="M253.926,327.746H211.57a1.449,1.449,0,0,1-1.448-1.448V291.967a1.447,1.447,0,0,1,1.448-1.447h42.356a1.447,1.447,0,0,1,1.448,1.447V326.3A1.449,1.449,0,0,1,253.926,327.746Zm-40.909-2.9h39.461V293.415H213.017Z" transform="translate(-161.25 -256.186)" fill="#e60011"/>
      <path id="パス_1298-2" data-name="パス 1298" d="M233.188,306.207a1.439,1.439,0,0,1-.6-.133l-5.733-2.619-5.735,2.619a1.447,1.447,0,0,1-2.049-1.316V291.967a1.447,1.447,0,0,1,1.448-1.447h12.671a1.446,1.446,0,0,1,1.447,1.447v12.792a1.45,1.45,0,0,1-1.447,1.448Zm-6.335-5.793a1.431,1.431,0,0,1,.6.131l4.287,1.959v-9.089h-9.774V302.5l4.285-1.959A1.438,1.438,0,0,1,226.853,300.414Z" transform="translate(-155.354 -256.186)" fill="#e60011"/>
      <path id="パス_1299-2" data-name="パス 1299" d="M225.727,313.143a4.947,4.947,0,1,1,4.947-4.945A4.952,4.952,0,0,1,225.727,313.143Zm0-7a2.051,2.051,0,1,0,2.052,2.052A2.055,2.055,0,0,0,225.727,306.146Z" transform="translate(-154.228 -247.799)" fill="#e60011"/>
      <path id="パス_1300-2" data-name="パス 1300" d="M228.394,307.052H186.037a1.446,1.446,0,0,1-1.447-1.448V271.272a1.447,1.447,0,0,1,1.447-1.448h42.357a1.447,1.447,0,0,1,1.447,1.448V305.6A1.446,1.446,0,0,1,228.394,307.052Zm-40.909-2.895h39.461V272.72H187.485Z" transform="translate(-178.074 -269.823)" fill="#e60011"/>
      <path id="パス_1301-2" data-name="パス 1301" d="M207.655,285.512a1.436,1.436,0,0,1-.6-.131l-5.733-2.621-5.735,2.621a1.447,1.447,0,0,1-2.049-1.317V271.272a1.449,1.449,0,0,1,1.448-1.448h12.669a1.449,1.449,0,0,1,1.448,1.448v12.792a1.446,1.446,0,0,1-1.448,1.448Zm-6.334-5.793a1.433,1.433,0,0,1,.6.133l4.287,1.958V272.72h-9.776v9.089l4.287-1.958A1.435,1.435,0,0,1,201.321,279.719Z" transform="translate(-172.178 -269.823)" fill="#e60011"/>
      <path id="パス_1302-2" data-name="パス 1302" d="M200.195,292.45a4.948,4.948,0,1,1,4.947-4.949A4.954,4.954,0,0,1,200.195,292.45Zm0-7a2.051,2.051,0,1,0,2.05,2.05A2.053,2.053,0,0,0,200.195,285.45Z" transform="translate(-171.052 -261.435)" fill="#e60011"/>
      <path id="パス_1303-2" data-name="パス 1303" d="M253.926,307.052H211.57a1.447,1.447,0,0,1-1.448-1.448V271.272a1.449,1.449,0,0,1,1.448-1.448h42.356a1.449,1.449,0,0,1,1.448,1.448V305.6A1.447,1.447,0,0,1,253.926,307.052Zm-40.909-2.895h39.461V272.72H213.017Z" transform="translate(-161.25 -269.823)" fill="#e60011"/>
      <path id="パス_1304-2" data-name="パス 1304" d="M233.188,285.512a1.437,1.437,0,0,1-.6-.131l-5.733-2.621-5.735,2.621a1.447,1.447,0,0,1-2.049-1.317V271.272a1.449,1.449,0,0,1,1.448-1.448h12.671a1.447,1.447,0,0,1,1.447,1.448v12.792a1.446,1.446,0,0,1-1.447,1.448Zm-6.335-5.793a1.433,1.433,0,0,1,.6.133l4.287,1.958V272.72h-9.774v9.089l4.285-1.958A1.44,1.44,0,0,1,226.853,279.719Z" transform="translate(-155.354 -269.823)" fill="#e60011"/>
      <path id="パス_1305-2" data-name="パス 1305" d="M225.727,292.45a4.948,4.948,0,1,1,4.947-4.949A4.954,4.954,0,0,1,225.727,292.45Zm0-7a2.051,2.051,0,1,0,2.052,2.05A2.053,2.053,0,0,0,225.727,285.45Z" transform="translate(-154.228 -261.435)" fill="#e60011"/>
    </g>
  </g>
</svg>
