<svg xmlns="http://www.w3.org/2000/svg" width="390" height="122"><g fill="#e60011"><path d="M118.488 51.056a13.457 13.457 0 1113.457-13.458 13.474 13.474 0 01-13.457 13.458zm0-23.789a10.33 10.33 0 1010.328 10.33 10.342 10.342 0 00-10.328-10.33zM105.431 85.506a1.564 1.564 0 01-1.564-1.564V71.775a1.564 1.564 0 013.128 0v12.167a1.563 1.563 0 01-1.564 1.564zM131.543 80.072a1.564 1.564 0 01-1.564-1.564v-6.733a1.564 1.564 0 013.128 0v6.733a1.564 1.564 0 01-1.564 1.564z"/><path d="M193.951 93.025h-105.4a1.564 1.564 0 01-1.564-1.564v-7.519a1.564 1.564 0 011.564-1.564h105.4a1.564 1.564 0 011.564 1.564v7.522a1.564 1.564 0 01-1.564 1.561zm-103.84-3.128h102.276v-4.391H90.111z"/><path d="M189.644 101.707H92.852a1.563 1.563 0 01-1.562-1.564v-8.682a1.563 1.563 0 011.562-1.564h96.792a1.563 1.563 0 011.564 1.564v8.682a1.563 1.563 0 01-1.564 1.564zm-95.228-3.128h93.664v-5.554H94.416z"/><path d="M183.016 107.858a1.563 1.563 0 01-1.564-1.564v-4.586h-80.4v4.586a1.564 1.564 0 11-3.128 0v-6.15a1.563 1.563 0 011.564-1.564h83.531a1.564 1.564 0 011.564 1.564v6.15a1.564 1.564 0 01-1.567 1.564zM177.786 85.507h-24.2a1.564 1.564 0 01-1.564-1.564v-3.246a4.4 4.4 0 014.4-4.4h18.523a4.4 4.4 0 014.4 4.4v3.246a1.564 1.564 0 01-1.559 1.564zm-22.635-3.13h21.071v-1.682a1.274 1.274 0 00-1.274-1.272h-18.523a1.274 1.274 0 00-1.274 1.272z"/><path d="M172.728 79.424h-14.084a1.564 1.564 0 01-1.564-1.564v-6.837a1.563 1.563 0 011.564-1.562h14.084a1.563 1.563 0 011.564 1.562v6.834a1.564 1.564 0 01-1.564 1.567zm-12.52-3.128h10.955v-3.709h-10.955z"/><path d="M181.374 72.587h-31.238a3.207 3.207 0 01-3.205-3.2v-19a3.208 3.208 0 013.205-3.205h31.238a3.209 3.209 0 013.205 3.205v19a3.208 3.208 0 01-3.205 3.2zm-31.238-22.284l-.077 19.08 31.315.077.077-19.08-.077-.077z"/><path d="M165.754 64.762a4.879 4.879 0 114.88-4.88 4.884 4.884 0 01-4.88 4.88zm0-6.631a1.751 1.751 0 101.752 1.75 1.751 1.751 0 00-1.752-1.75zM145.147 85.506h-31.684a1.564 1.564 0 01-1.564-1.564v-2.153a4.85 4.85 0 014.844-4.844h25.122a4.85 4.85 0 014.843 4.843v2.153a1.564 1.564 0 01-1.561 1.565zm-30.12-3.128h28.556v-.589a1.72 1.72 0 00-1.718-1.716h-25.122a1.719 1.719 0 00-1.716 1.716z"/><path d="M113.462 85.506H94.289a1.563 1.563 0 01-1.564-1.564v-20.4a9.47 9.47 0 019.46-9.458h32.6a9.468 9.468 0 019.458 9.458v15.087a1.561 1.561 0 01-1.958 1.512 1.76 1.76 0 00-.425-.065h-25.117a1.719 1.719 0 00-1.716 1.716v2.153a1.564 1.564 0 01-1.565 1.561zm-17.609-3.128h16.045v-.589a4.85 4.85 0 014.844-4.844h24.378V63.538a6.337 6.337 0 00-6.331-6.33h-32.6a6.337 6.337 0 00-6.331 6.33z"/></g><g fill="none" stroke-linecap="round" stroke-linejoin="round" stroke-dasharray="5 7"><path d="M272.547 16.923a30.471 30.471 0 0130.47 30.471c0 16.828-30.471 57.685-30.471 57.685s-30.47-40.856-30.47-57.685a30.471 30.471 0 0130.471-30.471z"/><path d="M272.547 16.923H272.604a.309.309 0 00.02 0H272.787l.016.001H272.882a.593.593 0 01.022.001 13.325 13.325 0 01.039 0H272.964l.017.001h.06l.003.001H273.101l.002.001H273.143a27.836 27.836 0 01.04.001H273.201l.017.001H273.242l.036.002H273.32l.019.001h.002l.037.001h.022l.038.002h.04l.019.002h.04l.02.001.02.001h.02l.038.002h.021l.038.002h.002l.038.002h.02l.039.002h.02l.039.002.04.002s-.001 0 0 0l.059.003a30.7 30.7 0 011.812.136l.039.004.02.002.018.002.02.002.038.004h.001l.018.002h.002l.017.002h.002l.017.002h.003l.017.003h.002l.016.002h.003l.017.002h.004l.015.002h.002l.017.002h.004l.016.003h.004a8.086 8.086 0 00.018.002l.015.002h.006l.013.002h.005l.014.002h.006l.015.003h.005l.012.002h.006l.014.002h.007l.01.002.01.001.01.002h.007l.014.002.008.001.008.001.012.002h.009l.009.002h.007l.014.002.007.001a4.283 4.283 0 01.021.003l.01.001h.005l.017.003h.005l.01.002h.005l.017.002.005.001.033.004h.001l.023.003a55.417 55.417 0 01.036.005c.337.044.673.094 1.007.148a1.5 1.5 0 01-.491 2.96 27.783 27.783 0 00-4.492-.365 1.5 1.5 0 110-3zm11.118 2.21c.191 0 .385.036.573.114 1.092.454 2.152.97 3.175 1.543l.02.01.03.018.02.01v.001l.03.017.002.001.017.01.003.001.016.009.003.002.01.005.003.002.015.009.004.002.014.008.004.003.01.005.006.003.01.007a8.823 8.823 0 00.017.01c.004 0 .006.002.01.004l.006.004.011.007.007.003.01.006.006.003.01.007.005.002.013.008c.002 0 .003.002.005.003l.013.007.004.002.012.007.003.002.014.008.004.002.014.009h.002l.014.009.002.001.015.009.003.001.015.009h.002l.031.02h.002l.016.01c.263.154.524.311.782.473a1.5 1.5 0 11-1.59 2.543 27.458 27.458 0 00-4-2.064 1.5 1.5 0 01.577-2.886zm9.411 6.32c.385 0 .77.147 1.063.441.473.475.93.965 1.37 1.47l.013.014.001.001.025.029.012.014.001.002.012.013.001.002.025.027v.002l.012.013.002.002.012.013v.002l.011.012.002.002.011.013.003.003.01.012.003.003.01.012.001.001.01.013c.002 0 .003.002.004.003a29.219 29.219 0 01.013.016l.01.011.003.003.008.01.004.005.01.011c0 .002.002.003.003.005l.01.01.004.005.007.009.004.004.009.01.004.006.01.01c0 .003.002.004.004.006l.006.008.007.008.006.007.005.006.009.01.005.006.006.007.007.009.005.006.007.008.007.008.005.006.007.008.007.008.005.006.008.01.005.006.008.01.005.006a10.754 10.754 0 01.02.024l.004.004a26.183 26.183 0 01.013.016l.007.008.002.003.011.013.003.004.012.013a1.451 1.451 0 01.023.028l.001.002c.004.005.01.01.013.015l.001.002.022.026.013.016.002.003.014.016.021.026c.442.538.866 1.09 1.27 1.657a1.5 1.5 0 01-2.444 1.74 27.71 27.71 0 00-2.908-3.441 1.5 1.5 0 011.063-2.559zm6.279 9.438c.59 0 1.15.35 1.388.93a30.236 30.236 0 011.51 4.76 1.5 1.5 0 11-2.925.669 27.325 27.325 0 00-1.36-4.289 1.5 1.5 0 011.387-2.07zm2.161 11.119h.014a1.5 1.5 0 011.487 1.513c-.013 1.33-.211 2.806-.567 4.397v.001l-.005.02v.001l-.002.01-.002.01-.003.01v.001l-.004.02v.002l-.002.007v.003l-.005.018v.003l-.002.007-.001.003-.002.008v.004l-.002.005-.001.005-.001.005-.002.007v.005l-.002.005v.003a6.282 6.282 0 01-.004.013v.005l-.002.004-.001.006-.005.022v.001l-.079.332a1.5 1.5 0 01-2.916-.706c.394-1.627.599-3.062.61-4.264a1.5 1.5 0 011.5-1.486zm-2.763 11.049a1.5 1.5 0 011.396 2.049 82.04 82.04 0 01-1.104 2.643l-.004.009a8.605 8.605 0 00-.004.01l-.003.007-.005.012-.003.006-.005.01-.004.01-.004.01-.003.006a20.62 20.62 0 00-.006.013l-.001.004-.007.015-.001.003-.007.015-.001.003-.007.015v.003c-.009.017-.016.035-.024.052v.001l-.008.018c-.252.572-.513 1.149-.783 1.73a1.5 1.5 0 11-2.722-1.261 86.332 86.332 0 001.916-4.436 1.5 1.5 0 011.394-.947zm-5.033 10.706a1.5 1.5 0 011.325 2.202l-.003.004-.015.028-.003.005-.015.029-.003.005-.015.03-.003.005-.015.028a3.717 3.717 0 00-.003.006l-.015.027-.003.007-.015.028-.004.007-.014.027-.004.008-.014.026-.004.007-.015.028-.003.006a62.648 62.648 0 01-.034.063l-.002.005-.016.029-.003.006-.015.028-.002.005-.016.03-.003.005-.016.03-.002.003-.015.029-.004.006-.015.029c0 .002-.002.004-.003.005l-.016.03-.002.004-.016.03-.002.004-.016.03-.003.005-.016.03-.001.003-.017.03-.002.005-.017.03-.001.004-.017.03-.002.004-.017.032v.001l-.055.102-.019.034-.018.034v.002a94.54 94.54 0 01-.018.032l-.001.002-.017.032-.002.002-.018.033a187.56 187.56 0 01-1.799 3.256 1.5 1.5 0 11-2.611-1.476c.834-1.476 1.629-2.927 2.363-4.313a1.5 1.5 0 011.327-.798zm-5.9 10.349a1.5 1.5 0 011.283 2.275 261.313 261.313 0 01-.131.216l-.01.016-.007.012-.016.026-.003.005c-.82 1.35-1.645 2.68-2.464 3.98a1.499 1.499 0 11-2.538-1.599 281.939 281.939 0 002.601-4.208 1.499 1.499 0 011.285-.723zM281.426 88.2a1.5 1.5 0 011.25 2.327l-.35.527-.008.013-.004.006-.008.013-.003.003-.007.011-.006.009-.004.006-.018.028-.004.006a367.905 367.905 0 01-2.373 3.533 1.498 1.498 0 01-2.082.394 1.5 1.5 0 01-.397-2.084 364.3 364.3 0 002.76-4.119 1.498 1.498 0 011.254-.673zm-6.747 9.865a1.5 1.5 0 011.225 2.364 301.496 301.496 0 01-2.735 3.804l-.006.01h-.002l-.004.007a4.138 4.138 0 01-.008.01l-.002.003-.004.007-.003.003-.16.219a1.493 1.493 0 01-.534.451c-.23-.31-.846-1.147-1.753-2.407.533-.726 1.505-2.064 2.76-3.837a1.498 1.498 0 011.226-.634zm-7.415-4.523c.478 0 .947.228 1.238.652a371.34 371.34 0 002.833 4.073 1.5 1.5 0 01-2.451 1.73c-.635-.9-1.335-1.9-2.086-2.987l-.017-.025-.002-.003-.034-.05-.003-.004c-.234-.338-.473-.686-.716-1.04a1.5 1.5 0 011.238-2.346zm-6.594-9.964a1.5 1.5 0 011.266.694 332.126 332.126 0 002.694 4.16 1.5 1.5 0 11-2.506 1.649 344.45 344.45 0 01-1.134-1.734l-.02-.03c0-.002-.002-.004-.003-.005l-.007-.012-.006-.008-.003-.006-.006-.008-.007-.012-.002-.003a19.649 19.649 0 01-.008-.011l-.005-.009-.006-.008-.004-.007-.003-.005-.01-.014a9.99 9.99 0 00-.004-.008l-.004-.005c0-.002-.002-.003-.003-.004-.356-.55-.716-1.108-1.077-1.672l-.006-.01-.002-.003a95.781 95.781 0 01-.009-.013l-.003-.006-.009-.013v-.001l-.01-.015c0-.002 0-.002-.002-.003l-.02-.031v-.002l-.345-.54a1.5 1.5 0 011.264-2.305zm-6.193-10.2a1.5 1.5 0 011.302.754 235.057 235.057 0 002.506 4.254 1.5 1.5 0 01-2.567 1.552 237.024 237.024 0 01-2.542-4.315 1.5 1.5 0 011.301-2.244zm-5.573-10.498a1.5 1.5 0 011.354.852 134.467 134.467 0 002.198 4.369 1.5 1.5 0 01-2.654 1.398 140.797 140.797 0 01-1.832-3.61l-.006-.01-.002-.006-.007-.013-.001-.004c-.136-.277-.27-.552-.401-.828a1.5 1.5 0 011.351-2.148zm-4.317-10.907a1.5 1.5 0 011.442 1.09c.388 1.367.899 2.87 1.519 4.467a1.5 1.5 0 11-2.82 1.028v-.001a33.55 33.55 0 01-.007-.018v-.002a82.159 82.159 0 00-.014-.036l-.002-.004-.006-.015-.001-.004-.006-.014-.002-.006a28.642 28.642 0 01-.005-.013l-.003-.007-.004-.012-.003-.007a16.668 16.668 0 00-.005-.012l-.002-.007-.005-.011-.004-.01a6.675 6.675 0 00-.003-.009l-.004-.011-.002-.006-.006-.014v-.002l-.01-.023a13 13 0 01-.012-.034v-.001a52.824 52.824 0 01-1.48-4.4 1.5 1.5 0 011.445-1.906zm-.563-11.192a1.5 1.5 0 011.479 1.763 27.726 27.726 0 00-.425 4.485 1.5 1.5 0 11-3-.038c.005-.351.016-.7.032-1.048 0-.001 0 0 0 0l.002-.04s0 .001 0 0v-.02l.003-.038v-.001l.002-.039v-.02l.003-.038v-.002-.019l.002-.019v-.02l.001-.001.002-.037v-.002l.001-.019.003-.038v-.002-.019l.002-.018v-.002l.001-.018v-.002l.002-.037v-.003l.002-.018v-.018-.002l.002-.018v-.003l.001-.018.002-.017v-.004-.017l.001-.003.001-.016v-.002l.001-.017v-.004l.002-.018.001-.018v-.002l.001-.018v-.003l.002-.017.001-.018v-.003l.002-.018v-.002-.016l.001-.003.001-.017v-.004l.002-.017.001-.018v-.003a11.925 11.925 0 01.002-.02V45.1l.001-.003.001-.016v-.005l.002-.016v-.002l.001-.017v-.003l.002-.017v-.003l.001-.017.002-.018v-.004l.002-.017v-.002l.001-.016v-.003l.002-.017v-.004l.001-.017v-.001l.002-.017v-.003l.001-.017v-.003l.002-.017v-.001l.002-.017v-.004l.001-.017v-.002a22.197 22.197 0 01.003-.036v-.004l.002-.017.002-.018v-.003l.002-.017v-.003l.001-.016v-.002l.002-.017v-.004l.002-.017v-.001l.001-.017v-.004l.002-.016v-.004l.002-.015v-.003l.002-.016v-.004l.002-.017v-.003l.001-.015v-.004l.002-.016v-.004l.002-.016v-.001a25.279 25.279 0 01.002-.021l.002-.017v-.003l.001-.015v-.003l.002-.017v-.004l.002-.017v-.001l.002-.017v-.003l.002-.017v-.003l.002-.016v-.002l.002-.017v-.004l.002-.017V44.3l.002-.017v-.003l.002-.017v-.003l.002-.017.002-.018v-.003l.002-.017v-.003l.002-.016v-.002l.002-.017v-.004l.002-.017v-.002l.002-.015v-.004l.002-.017v-.003l.002-.016v-.002l.002-.017v-.004l.002-.016v-.003l.002-.015v-.004l.003-.016v-.005l.002-.015v-.002l.002-.016v-.005l.002-.016v-.003l.002-.014v-.005l.002-.015v-.005l.003-.016v-.003l.002-.014v-.005l.002-.015v-.006a13.045 13.045 0 01.004-.032l.001-.006.002-.015v-.005l.002-.012v-.006l.002-.015v-.005l.002-.013.001-.006.002-.013v-.006l.002-.015v-.006l.002-.012.001-.005.002-.015v-.006l.002-.013.001-.007.001-.011.001-.006.002-.015V43.6l.002-.012v-.006l.003-.013a4.11 4.11 0 00.002-.02l.001-.008.001-.01.001-.007.002-.014v-.006l.002-.012.001-.008.002-.01v-.009l.002-.013.001-.008.002-.008v-.01l.002-.011.001-.008.001-.009.002-.013.001-.007.001-.009a14.297 14.297 0 01.003-.021l.001-.007.002-.014v-.007l.002-.01v-.006a17.74 17.74 0 01.006-.04v-.002l.002-.01a1.907 1.907 0 00.003-.022v-.005l.002-.01v-.003l.003-.02v-.004c.002-.006.003-.014.003-.02v-.001l.002-.011v-.003l.003-.02v-.003l.006-.034v-.001l.008-.058v-.001c.05-.343.104-.684.164-1.023a1.5 1.5 0 011.475-1.233zm4.146-10.547a1.5 1.5 0 011.26 2.312 27.473 27.473 0 00-2.118 3.972 1.5 1.5 0 11-2.739-1.224v-.001l.023-.053v-.001l.008-.017v-.002l.016-.034v-.002l.008-.016v-.002l.008-.017.007-.016.001-.003.007-.015.002-.004.006-.015.002-.003.006-.013.001-.004.007-.015.002-.004.006-.014.002-.005.006-.013v-.002l.007-.015.003-.005.006-.013.002-.005.005-.012.003-.007.005-.01.002-.006.007-.014.002-.005.006-.014.002-.004a12.978 12.978 0 01.007-.017l.006-.013.003-.006.006-.013.002-.005.005-.01.003-.007.005-.012.003-.007.006-.012.003-.007.004-.008.005-.01c0-.003.002-.006.003-.008a6.405 6.405 0 01.009-.02l.004-.008.002-.006.007-.013.002-.006.006-.013.003-.006.004-.009.003-.006.006-.013.002-.006.007-.015.002-.004.005-.01.001-.003.008-.016.001-.004.008-.016.002-.004a21.212 21.212 0 01.015-.032l.008-.017.001-.003.014-.03.001-.003.008-.017.001-.002.024-.052.025-.052a30.415 30.415 0 011.928-3.473 1.499 1.499 0 011.261-.685zm7.875-8.156a1.499 1.499 0 01.857 2.732 27.703 27.703 0 00-3.48 2.863 1.496 1.496 0 01-2.121-.032 1.5 1.5 0 01.033-2.122c.472-.457.958-.9 1.458-1.326l.044-.037.001-.001a19.86 19.86 0 01.103-.087l.002-.001.014-.012v-.001l.03-.024.014-.013h.002l.014-.013.015-.012.014-.012.002-.001.014-.012.015-.012.014-.012.002-.002.013-.01.002-.003.028-.023.002-.001.013-.011.002-.002.014-.011.001-.001.014-.011v-.001l.014-.01a15.813 15.813 0 01.032-.026v-.001l.013-.011.002-.002.013-.01.004-.003.012-.01.002-.002.012-.01.003-.002.012-.01.003-.003.013-.01.003-.003.012-.01.002-.001.012-.01.004-.003.012-.01.004-.003.012-.01a.653.653 0 01.014-.011l.003-.003.012-.01a4.469 4.469 0 00.016-.012l.004-.003.01-.008.004-.004.011-.009.005-.003.011-.01c.002 0 .003-.002.005-.003l.01-.01.005-.002.01-.008.004-.004.012-.009.004-.003.012-.01.004-.003.01-.008.004-.003.01-.01a1.669 1.669 0 01.022-.016l.01-.008.005-.004.01-.007.004-.004.011-.009.005-.004.01-.008.006-.005.009-.006.006-.005.01-.008.005-.004.01-.009.007-.004.008-.007.007-.005.008-.007.006-.004.01-.009.006-.004.009-.007.007-.006.008-.006.006-.004.01-.009a7.688 7.688 0 00.015-.012l.008-.005.006-.005.01-.008.006-.005.007-.005.01-.008.006-.005.007-.005.01-.008.006-.005.008-.006a6.37 6.37 0 01.009-.007l.006-.005a3.814 3.814 0 01.017-.013l.006-.004.01-.009c.003 0 .004-.002.006-.004l.008-.006.004-.003.012-.01c.002 0 .004-.002.005-.003a9.44 9.44 0 01.012-.01c.002 0 .003-.002.005-.003l.011-.009.006-.004.007-.006.005-.003.012-.01.005-.003.012-.01.005-.003.007-.006.003-.002.015-.011.003-.003.014-.01.003-.003.026-.02.002-.001.016-.012.002-.002.043-.033.002-.001.063-.048.046-.034c.3-.226.606-.446.915-.66.26-.18.557-.266.85-.266zm10.399-4.511a1.5 1.5 0 01.313 2.967 27.325 27.325 0 00-4.306 1.303 1.496 1.496 0 01-1.947-.844 1.5 1.5 0 01.843-1.946 30.234 30.234 0 013.555-1.157l.057-.015.037-.01h.002l.017-.004h.003l.017-.005h.001l.016-.004a.785.785 0 00.02-.005l.004-.001.015-.004.004-.001.013-.004h.005l.015-.004.006-.002.012-.003.008-.002.01-.003.007-.001.013-.004c.003 0 .005 0 .008-.002.003 0 .006 0 .008-.002.005 0 .008-.002.013-.003l.007-.001.012-.003.009-.003.009-.002.006-.001.016-.004.004-.001.032-.008h.002l.021-.006h.001c.266-.064.532-.125.8-.183.105-.022.209-.032.312-.032z" fill="#e60011"/><g transform="translate(255.076 30.923)" stroke="#e60011" stroke-width="3"><circle cx="17.471" cy="17.471" r="17.471" stroke="none"/><circle cx="17.471" cy="17.471" r="15.971"/></g></g></svg>