<svg xmlns="http://www.w3.org/2000/svg" width="390" height="122" viewBox="0 0 390 122">
  <g id="process__module03_03_03" transform="translate(-2691.101 -2720.584)">
    <rect id="長方形_973" data-name="長方形 973" width="390" height="122" transform="translate(2691.101 2720.584)" fill="#fff" opacity="0"/>
    <g id="グループ_1070" data-name="グループ 1070" transform="translate(27.083)">
      <g id="グループ_1066" data-name="グループ 1066" transform="translate(2964.665 2747.214)">
        <path id="パス_1314" data-name="パス 1314" d="M395.619,161.674H390.4a1,1,0,0,1-1-1V109.652H353.777a1,1,0,0,1-1-1v-4.906a1,1,0,0,1,1-1h41.842a1,1,0,0,1,1,1v56.929A1,1,0,0,1,395.619,161.674Zm-4.217-2h3.218V104.745H354.775v2.909H390.4a1,1,0,0,1,1,1Z" transform="translate(-342.347 -102.747)" fill="#e60011" stroke="#e60011" stroke-linecap="round" stroke-linejoin="round" stroke-width="0.3"/>
        <path id="パス_1315" data-name="パス 1315" d="M386.5,170.251H344.659a1,1,0,0,1-1-1V112.325a1,1,0,0,1,1-1H386.5a1,1,0,0,1,1,1v56.927A1,1,0,0,1,386.5,170.251Zm-40.844-2H385.5V113.323H345.657Z" transform="translate(-343.66 -101.513)" fill="#e60011" stroke="#e60011" stroke-linecap="round" stroke-linejoin="round" stroke-width="0.3"/>
        <path id="パス_1316" data-name="パス 1316" d="M391.06,165.963h-5.215a1,1,0,0,1-1-1V113.941H349.217a1,1,0,0,1-1-1v-4.906a1,1,0,0,1,1-1H391.06a1,1,0,0,1,1,1v56.929A1,1,0,0,1,391.06,165.963Zm-4.217-2h3.219V109.034H350.215v2.909h35.629a1,1,0,0,1,1,1Z" transform="translate(-343.003 -102.13)" fill="#e60011" stroke="#e60011" stroke-linecap="round" stroke-linejoin="round" stroke-width="0.3"/>
        <path id="パス_1317" data-name="パス 1317" d="M353.012,128.975a5.772,5.772,0,1,1,5.772-5.772A5.778,5.778,0,0,1,353.012,128.975Zm0-9.547a3.775,3.775,0,1,0,3.775,3.775A3.779,3.779,0,0,0,353.012,119.427Z" transform="translate(-343.144 -100.634)" fill="#e60011" stroke="#e60011" stroke-linecap="round" stroke-linejoin="round" stroke-width="0.3"/>
        <path id="パス_1318" data-name="パス 1318" d="M353.012,124.535c-.029,0-.058,0-.087,0a1,1,0,0,1-.712-.4l-4.773-6.365a1,1,0,1,1,1.6-1.2l4.106,5.475,7.144-6.667a1,1,0,1,1,1.362,1.46l-7.956,7.425A1,1,0,0,1,353.012,124.535Z" transform="translate(-343.144 -100.968)" fill="#e60011" stroke="#e60011" stroke-linecap="round" stroke-linejoin="round" stroke-width="0.3"/>
        <path id="パス_1319" data-name="パス 1319" d="M353.012,143.928a5.772,5.772,0,1,1,5.772-5.772A5.778,5.778,0,0,1,353.012,143.928Zm0-9.547a3.775,3.775,0,1,0,3.775,3.775A3.779,3.779,0,0,0,353.012,134.38Z" transform="translate(-343.144 -98.482)" fill="#e60011" stroke="#e60011" stroke-linecap="round" stroke-linejoin="round" stroke-width="0.3"/>
        <path id="パス_1320" data-name="パス 1320" d="M353.012,139.488c-.029,0-.058,0-.087,0a1,1,0,0,1-.712-.395l-4.773-6.365a1,1,0,0,1,1.6-1.2L353.144,137l7.144-6.666a1,1,0,1,1,1.362,1.46l-7.956,7.425A1,1,0,0,1,353.012,139.488Z" transform="translate(-343.144 -98.815)" fill="#e60011" stroke="#e60011" stroke-linecap="round" stroke-linejoin="round" stroke-width="0.3"/>
        <path id="パス_1321" data-name="パス 1321" d="M353.012,158.88a5.772,5.772,0,1,1,5.772-5.771A5.778,5.778,0,0,1,353.012,158.88Zm0-9.546a3.774,3.774,0,1,0,3.775,3.775A3.779,3.779,0,0,0,353.012,149.333Z" transform="translate(-343.144 -96.329)" fill="#e60011" stroke="#e60011" stroke-linecap="round" stroke-linejoin="round" stroke-width="0.3"/>
        <path id="パス_1322" data-name="パス 1322" d="M353.012,154.441c-.029,0-.058,0-.087,0a1,1,0,0,1-.712-.4l-4.773-6.364a1,1,0,1,1,1.6-1.2l4.106,5.475,7.144-6.667a1,1,0,1,1,1.362,1.46l-7.956,7.427A1,1,0,0,1,353.012,154.441Z" transform="translate(-343.144 -96.663)" fill="#e60011" stroke="#e60011" stroke-linecap="round" stroke-linejoin="round" stroke-width="0.3"/>
        <path id="パス_1323" data-name="パス 1323" d="M375.907,127.773h-15.38a1,1,0,0,1,0-2h15.38a1,1,0,0,1,0,2Z" transform="translate(-341.376 -99.433)" fill="#e60011" stroke="#e60011" stroke-linecap="round" stroke-linejoin="round" stroke-width="0.3"/>
        <path id="パス_1324" data-name="パス 1324" d="M370.471,122.093h-9.944a1,1,0,1,1,0-2h9.944a1,1,0,1,1,0,2Z" transform="translate(-341.376 -100.25)" fill="#e60011" stroke="#e60011" stroke-linecap="round" stroke-linejoin="round" stroke-width="0.3"/>
        <path id="パス_1325" data-name="パス 1325" d="M375.907,142.726h-15.38a1,1,0,0,1,0-2h15.38a1,1,0,0,1,0,2Z" transform="translate(-341.376 -97.28)" fill="#e60011" stroke="#e60011" stroke-linecap="round" stroke-linejoin="round" stroke-width="0.3"/>
        <path id="パス_1326" data-name="パス 1326" d="M370.471,137.046h-9.944a1,1,0,0,1,0-2h9.944a1,1,0,1,1,0,2Z" transform="translate(-341.376 -98.098)" fill="#e60011" stroke="#e60011" stroke-linecap="round" stroke-linejoin="round" stroke-width="0.3"/>
        <path id="パス_1327" data-name="パス 1327" d="M375.907,157.678h-15.38a1,1,0,0,1,0-2h15.38a1,1,0,0,1,0,2Z" transform="translate(-341.376 -95.128)" fill="#e60011" stroke="#e60011" stroke-linecap="round" stroke-linejoin="round" stroke-width="0.3"/>
        <path id="パス_1328" data-name="パス 1328" d="M370.471,152h-9.944a1,1,0,0,1,0-2h9.944a1,1,0,1,1,0,2Z" transform="translate(-341.376 -95.945)" fill="#e60011" stroke="#e60011" stroke-linecap="round" stroke-linejoin="round" stroke-width="0.3"/>
      </g>
      <g id="グループ_1069" data-name="グループ 1069" transform="translate(2873.478 2747.216)">
        <path id="パス_1567" data-name="パス 1567" d="M374.793,467.75H354.5a1,1,0,0,1-1-1v-16.5a1,1,0,0,1,1-1h20.3a1,1,0,0,1,1,1v16.5A1,1,0,0,1,374.793,467.75Zm-19.3-2h18.3V451.245h-18.3Z" transform="translate(-333.786 -413.907)" fill="#e60011" stroke="#e60011" stroke-linecap="round" stroke-linejoin="round" stroke-width="0.3"/>
        <path id="パス_1568" data-name="パス 1568" d="M396.025,467.75h-20.3a1,1,0,0,1-1-1v-16.5a1,1,0,0,1,1-1h20.3a1,1,0,0,1,1,1v16.5A1,1,0,0,1,396.025,467.75Zm-19.3-2h18.3V451.245h-18.3Z" transform="translate(-330.73 -413.907)" fill="#e60011" stroke="#e60011" stroke-linecap="round" stroke-linejoin="round" stroke-width="0.3"/>
        <path id="パス_1569" data-name="パス 1569" d="M397.689,478.534H349.584a2.879,2.879,0,0,1-2.876-2.876V430.434l-8.942-5.927a3.347,3.347,0,0,1-1.5-2.8,3.352,3.352,0,0,1,5.131-2.842l11.768,7.367a1,1,0,0,1,.469.847V470.2H397.51a4.26,4.26,0,0,1,4.34,3.943,4.13,4.13,0,0,1-1.139,3.09A4.18,4.18,0,0,1,397.689,478.534ZM339.62,420.355a1.362,1.362,0,0,0-1.357,1.357,1.355,1.355,0,0,0,.606,1.131l9.388,6.223a1,1,0,0,1,.446.832v45.76a.88.88,0,0,0,.88.879h48.105a2.169,2.169,0,0,0,2.165-2.287,2.294,2.294,0,0,0-2.345-2.052H352.635a1,1,0,0,1-1-1V427.636l-11.3-7.073A1.348,1.348,0,0,0,339.62,420.355Z" transform="translate(-336.266 -418.354)" fill="#e60011" stroke="#e60011" stroke-linecap="round" stroke-linejoin="round" stroke-width="0.3"/>
        <path id="パス_1570" data-name="パス 1570" d="M380.962,477.67a5.1,5.1,0,0,1-4.177-8.029,1,1,0,0,1,.817-.426h6.718a1,1,0,0,1,.818.426,5.1,5.1,0,0,1-4.177,8.029Zm-2.795-6.458a3.069,3.069,0,0,0-.313,1.352,3.108,3.108,0,1,0,6.215,0,3.054,3.054,0,0,0-.313-1.352Z" transform="translate(-330.567 -411.032)" fill="#e60011" stroke="#e60011" stroke-linecap="round" stroke-linejoin="round" stroke-width="0.3"/>
        <path id="パス_1571" data-name="パス 1571" d="M356.784,477.67a5.1,5.1,0,0,1-4.178-8.029,1,1,0,0,1,.818-.426h6.72a1,1,0,0,1,.817.426,5.1,5.1,0,0,1-4.177,8.029Zm-2.792-6.458a3.059,3.059,0,0,0-.316,1.352,3.109,3.109,0,1,0,6.217,0,3.059,3.059,0,0,0-.316-1.352Z" transform="translate(-334.048 -411.032)" fill="#e60011" stroke="#e60011" stroke-linecap="round" stroke-linejoin="round" stroke-width="0.3"/>
        <path id="パス_1572" data-name="パス 1572" d="M387.351,456.157h-4.889a1,1,0,0,1-1-1v-4.912a1,1,0,0,1,1-1h4.889a1,1,0,0,1,1,1v4.912A1,1,0,0,1,387.351,456.157Zm-3.892-2h2.893v-2.915h-2.893Z" transform="translate(-329.76 -413.907)" fill="#e60011" stroke="#e60011" stroke-linecap="round" stroke-linejoin="round" stroke-width="0.3"/>
        <path id="パス_1573" data-name="パス 1573" d="M366.119,456.157h-4.888a1,1,0,0,1-1-1v-4.912a1,1,0,0,1,1-1h4.888a1,1,0,0,1,1,1v4.912A1,1,0,0,1,366.119,456.157Zm-3.889-2h2.891v-2.915h-2.891Z" transform="translate(-332.816 -413.907)" fill="#e60011" stroke="#e60011" stroke-linecap="round" stroke-linejoin="round" stroke-width="0.3"/>
        <path id="パス_1574" data-name="パス 1574" d="M374.793,453.322H354.5a1,1,0,0,1-1-1v-16.5a1,1,0,0,1,1-1h20.3a1,1,0,0,1,1,1v16.5A1,1,0,0,1,374.793,453.322Zm-19.3-2h18.3V436.818h-18.3Z" transform="translate(-333.786 -415.983)" fill="#e60011" stroke="#e60011" stroke-linecap="round" stroke-linejoin="round" stroke-width="0.3"/>
        <path id="パス_1575" data-name="パス 1575" d="M366.119,441.729h-4.888a1,1,0,0,1-1-1V435.82a1,1,0,0,1,1-1h4.888a1,1,0,0,1,1,1v4.911A1,1,0,0,1,366.119,441.729Zm-3.889-2h2.891v-2.915h-2.891Z" transform="translate(-332.816 -415.983)" fill="#e60011" stroke="#e60011" stroke-linecap="round" stroke-linejoin="round" stroke-width="0.3"/>
        <path id="パス_1576" data-name="パス 1576" d="M392.836,476.857H340.957a1,1,0,1,1,0-2h51.879a1,1,0,1,1,0,2Z" transform="translate(-335.735 -410.22)" fill="#e60011" stroke="#e60011" stroke-linecap="round" stroke-linejoin="round" stroke-width="0.3"/>
        <path id="パス_1577" data-name="パス 1577" d="M395.3,431.949h-6.952a1,1,0,1,1,0-2H395.3a1,1,0,0,1,0,2Z" transform="translate(-328.912 -416.684)" fill="#e60011" stroke="#e60011" stroke-linecap="round" stroke-linejoin="round" stroke-width="0.3"/>
        <path id="パス_1578" data-name="パス 1578" d="M395.3,434.82h-6.952a1,1,0,1,1,0-2H395.3a1,1,0,1,1,0,2Z" transform="translate(-328.912 -416.271)" fill="#e60011" stroke="#e60011" stroke-linecap="round" stroke-linejoin="round" stroke-width="0.3"/>
        <path id="パス_1579" data-name="パス 1579" d="M395.3,437.692h-6.952a1,1,0,1,1,0-2H395.3a1,1,0,0,1,0,2Z" transform="translate(-328.912 -415.858)" fill="#e60011" stroke="#e60011" stroke-linecap="round" stroke-linejoin="round" stroke-width="0.3"/>
        <path id="パス_1580" data-name="パス 1580" d="M399.579,445.47H385.031a1,1,0,0,1-1-1V426.387a1,1,0,0,1,1-1h14.549a1,1,0,0,1,1,1v18.085A1,1,0,0,1,399.579,445.47Zm-13.55-2h12.551V427.385H386.029Z" transform="translate(-329.39 -417.341)" fill="#e60011" stroke="#e60011" stroke-linecap="round" stroke-linejoin="round" stroke-width="0.3"/>
        <path id="パス_1581" data-name="パス 1581" d="M396.025,453.322h-20.3a1,1,0,0,1-1-1v-16.5a1,1,0,0,1,1-1H386.37a1,1,0,0,1,1,1v6.3h8.656a1,1,0,0,1,1,1v9.21A1,1,0,0,1,396.025,453.322Zm-19.3-2h18.3v-7.213H386.37a1,1,0,0,1-1-1v-6.3h-8.647Z" transform="translate(-330.73 -415.983)" fill="#e60011" stroke="#e60011" stroke-linecap="round" stroke-linejoin="round" stroke-width="0.3"/>
        <path id="パス_1582" data-name="パス 1582" d="M385.548,441.729h-4.113a1,1,0,0,1-1-1V435.82a1,1,0,0,1,1-1h4.113a1,1,0,0,1,1,1v4.911A1,1,0,0,1,385.548,441.729Zm-3.114-2h2.115v-2.915h-2.115Z" transform="translate(-329.908 -415.983)" fill="#e60011" stroke="#e60011" stroke-linecap="round" stroke-linejoin="round" stroke-width="0.3"/>
      </g>
      <g id="グループ_1068" data-name="グループ 1068" transform="translate(2782.29 2747.216)">
        <path id="パス_1567-2" data-name="パス 1567" d="M374.793,467.75H354.5a1,1,0,0,1-1-1v-16.5a1,1,0,0,1,1-1h20.3a1,1,0,0,1,1,1v16.5A1,1,0,0,1,374.793,467.75Zm-19.3-2h18.3V451.245h-18.3Z" transform="translate(-333.786 -413.907)" fill="#e60011" stroke="#e60011" stroke-linecap="round" stroke-linejoin="round" stroke-width="0.3"/>
        <path id="パス_1568-2" data-name="パス 1568" d="M396.025,467.75h-20.3a1,1,0,0,1-1-1v-16.5a1,1,0,0,1,1-1h20.3a1,1,0,0,1,1,1v16.5A1,1,0,0,1,396.025,467.75Zm-19.3-2h18.3V451.245h-18.3Z" transform="translate(-330.73 -413.907)" fill="#e60011" stroke="#e60011" stroke-linecap="round" stroke-linejoin="round" stroke-width="0.3"/>
        <path id="パス_1569-2" data-name="パス 1569" d="M397.689,478.534H349.584a2.879,2.879,0,0,1-2.876-2.876V430.434l-8.942-5.927a3.347,3.347,0,0,1-1.5-2.8,3.352,3.352,0,0,1,5.131-2.842l11.768,7.367a1,1,0,0,1,.469.847V470.2H397.51a4.26,4.26,0,0,1,4.34,3.943,4.13,4.13,0,0,1-1.139,3.09A4.18,4.18,0,0,1,397.689,478.534ZM339.62,420.355a1.362,1.362,0,0,0-1.357,1.357,1.355,1.355,0,0,0,.606,1.131l9.388,6.223a1,1,0,0,1,.446.832v45.76a.88.88,0,0,0,.88.879h48.105a2.169,2.169,0,0,0,2.165-2.287,2.294,2.294,0,0,0-2.345-2.052H352.635a1,1,0,0,1-1-1V427.636l-11.3-7.073A1.348,1.348,0,0,0,339.62,420.355Z" transform="translate(-336.266 -418.354)" fill="#e60011" stroke="#e60011" stroke-linecap="round" stroke-linejoin="round" stroke-width="0.3"/>
        <path id="パス_1570-2" data-name="パス 1570" d="M380.962,477.67a5.1,5.1,0,0,1-4.177-8.029,1,1,0,0,1,.817-.426h6.718a1,1,0,0,1,.818.426,5.1,5.1,0,0,1-4.177,8.029Zm-2.795-6.458a3.069,3.069,0,0,0-.313,1.352,3.108,3.108,0,1,0,6.215,0,3.054,3.054,0,0,0-.313-1.352Z" transform="translate(-330.567 -411.032)" fill="#e60011" stroke="#e60011" stroke-linecap="round" stroke-linejoin="round" stroke-width="0.3"/>
        <path id="パス_1571-2" data-name="パス 1571" d="M356.784,477.67a5.1,5.1,0,0,1-4.178-8.029,1,1,0,0,1,.818-.426h6.72a1,1,0,0,1,.817.426,5.1,5.1,0,0,1-4.177,8.029Zm-2.792-6.458a3.059,3.059,0,0,0-.316,1.352,3.109,3.109,0,1,0,6.217,0,3.059,3.059,0,0,0-.316-1.352Z" transform="translate(-334.048 -411.032)" fill="#e60011" stroke="#e60011" stroke-linecap="round" stroke-linejoin="round" stroke-width="0.3"/>
        <path id="パス_1572-2" data-name="パス 1572" d="M387.351,456.157h-4.889a1,1,0,0,1-1-1v-4.912a1,1,0,0,1,1-1h4.889a1,1,0,0,1,1,1v4.912A1,1,0,0,1,387.351,456.157Zm-3.892-2h2.893v-2.915h-2.893Z" transform="translate(-329.76 -413.907)" fill="#e60011" stroke="#e60011" stroke-linecap="round" stroke-linejoin="round" stroke-width="0.3"/>
        <path id="パス_1573-2" data-name="パス 1573" d="M366.119,456.157h-4.888a1,1,0,0,1-1-1v-4.912a1,1,0,0,1,1-1h4.888a1,1,0,0,1,1,1v4.912A1,1,0,0,1,366.119,456.157Zm-3.889-2h2.891v-2.915h-2.891Z" transform="translate(-332.816 -413.907)" fill="#e60011" stroke="#e60011" stroke-linecap="round" stroke-linejoin="round" stroke-width="0.3"/>
        <path id="パス_1574-2" data-name="パス 1574" d="M374.793,453.322H354.5a1,1,0,0,1-1-1v-16.5a1,1,0,0,1,1-1h20.3a1,1,0,0,1,1,1v16.5A1,1,0,0,1,374.793,453.322Zm-19.3-2h18.3V436.818h-18.3Z" transform="translate(-333.786 -415.983)" fill="#e60011" stroke="#e60011" stroke-linecap="round" stroke-linejoin="round" stroke-width="0.3"/>
        <path id="パス_1575-2" data-name="パス 1575" d="M366.119,441.729h-4.888a1,1,0,0,1-1-1V435.82a1,1,0,0,1,1-1h4.888a1,1,0,0,1,1,1v4.911A1,1,0,0,1,366.119,441.729Zm-3.889-2h2.891v-2.915h-2.891Z" transform="translate(-332.816 -415.983)" fill="#e60011" stroke="#e60011" stroke-linecap="round" stroke-linejoin="round" stroke-width="0.3"/>
        <path id="パス_1576-2" data-name="パス 1576" d="M392.836,476.857H340.957a1,1,0,1,1,0-2h51.879a1,1,0,1,1,0,2Z" transform="translate(-335.735 -410.22)" fill="#e60011" stroke="#e60011" stroke-linecap="round" stroke-linejoin="round" stroke-width="0.3"/>
        <path id="パス_1577-2" data-name="パス 1577" d="M395.3,431.949h-6.952a1,1,0,1,1,0-2H395.3a1,1,0,0,1,0,2Z" transform="translate(-328.912 -416.684)" fill="#e60011" stroke="#e60011" stroke-linecap="round" stroke-linejoin="round" stroke-width="0.3"/>
        <path id="パス_1578-2" data-name="パス 1578" d="M395.3,434.82h-6.952a1,1,0,1,1,0-2H395.3a1,1,0,1,1,0,2Z" transform="translate(-328.912 -416.271)" fill="#e60011" stroke="#e60011" stroke-linecap="round" stroke-linejoin="round" stroke-width="0.3"/>
        <path id="パス_1579-2" data-name="パス 1579" d="M395.3,437.692h-6.952a1,1,0,1,1,0-2H395.3a1,1,0,0,1,0,2Z" transform="translate(-328.912 -415.858)" fill="#e60011" stroke="#e60011" stroke-linecap="round" stroke-linejoin="round" stroke-width="0.3"/>
        <path id="パス_1580-2" data-name="パス 1580" d="M399.579,445.47H385.031a1,1,0,0,1-1-1V426.387a1,1,0,0,1,1-1h14.549a1,1,0,0,1,1,1v18.085A1,1,0,0,1,399.579,445.47Zm-13.55-2h12.551V427.385H386.029Z" transform="translate(-329.39 -417.341)" fill="#e60011" stroke="#e60011" stroke-linecap="round" stroke-linejoin="round" stroke-width="0.3"/>
        <path id="パス_1581-2" data-name="パス 1581" d="M396.025,453.322h-20.3a1,1,0,0,1-1-1v-16.5a1,1,0,0,1,1-1H386.37a1,1,0,0,1,1,1v6.3h8.656a1,1,0,0,1,1,1v9.21A1,1,0,0,1,396.025,453.322Zm-19.3-2h18.3v-7.213H386.37a1,1,0,0,1-1-1v-6.3h-8.647Z" transform="translate(-330.73 -415.983)" fill="#e60011" stroke="#e60011" stroke-linecap="round" stroke-linejoin="round" stroke-width="0.3"/>
        <path id="パス_1582-2" data-name="パス 1582" d="M385.548,441.729h-4.113a1,1,0,0,1-1-1V435.82a1,1,0,0,1,1-1h4.113a1,1,0,0,1,1,1v4.911A1,1,0,0,1,385.548,441.729Zm-3.114-2h2.115v-2.915h-2.115Z" transform="translate(-329.908 -415.983)" fill="#e60011" stroke="#e60011" stroke-linecap="round" stroke-linejoin="round" stroke-width="0.3"/>
      </g>
      <g id="グループ_1067" data-name="グループ 1067" transform="translate(2691.101 2747.216)">
        <path id="パス_1567-3" data-name="パス 1567" d="M374.793,467.75H354.5a1,1,0,0,1-1-1v-16.5a1,1,0,0,1,1-1h20.3a1,1,0,0,1,1,1v16.5A1,1,0,0,1,374.793,467.75Zm-19.3-2h18.3V451.245h-18.3Z" transform="translate(-333.785 -413.907)" fill="#e60011" stroke="#e60011" stroke-linecap="round" stroke-linejoin="round" stroke-width="0.3"/>
        <path id="パス_1568-3" data-name="パス 1568" d="M396.025,467.75h-20.3a1,1,0,0,1-1-1v-16.5a1,1,0,0,1,1-1h20.3a1,1,0,0,1,1,1v16.5A1,1,0,0,1,396.025,467.75Zm-19.3-2h18.3V451.245h-18.3Z" transform="translate(-330.729 -413.907)" fill="#e60011" stroke="#e60011" stroke-linecap="round" stroke-linejoin="round" stroke-width="0.3"/>
        <path id="パス_1569-3" data-name="パス 1569" d="M397.689,478.534H349.584a2.879,2.879,0,0,1-2.876-2.876V430.434l-8.942-5.927a3.347,3.347,0,0,1-1.5-2.8,3.352,3.352,0,0,1,5.131-2.842l11.768,7.367a1,1,0,0,1,.469.847V470.2H397.51a4.26,4.26,0,0,1,4.34,3.943,4.13,4.13,0,0,1-1.139,3.09A4.18,4.18,0,0,1,397.689,478.534ZM339.62,420.355a1.362,1.362,0,0,0-1.357,1.357,1.355,1.355,0,0,0,.606,1.131l9.388,6.223a1,1,0,0,1,.446.832v45.76a.88.88,0,0,0,.88.879h48.105a2.169,2.169,0,0,0,2.165-2.287,2.294,2.294,0,0,0-2.345-2.052H352.635a1,1,0,0,1-1-1V427.636l-11.3-7.073A1.348,1.348,0,0,0,339.62,420.355Z" transform="translate(-336.266 -418.354)" fill="#e60011" stroke="#e60011" stroke-linecap="round" stroke-linejoin="round" stroke-width="0.3"/>
        <path id="パス_1570-3" data-name="パス 1570" d="M380.962,477.67a5.1,5.1,0,0,1-4.177-8.029,1,1,0,0,1,.817-.426h6.718a1,1,0,0,1,.818.426,5.1,5.1,0,0,1-4.177,8.029Zm-2.795-6.458a3.069,3.069,0,0,0-.313,1.352,3.108,3.108,0,1,0,6.215,0,3.054,3.054,0,0,0-.313-1.352Z" transform="translate(-330.567 -411.032)" fill="#e60011" stroke="#e60011" stroke-linecap="round" stroke-linejoin="round" stroke-width="0.3"/>
        <path id="パス_1571-3" data-name="パス 1571" d="M356.784,477.67a5.1,5.1,0,0,1-4.178-8.029,1,1,0,0,1,.818-.426h6.72a1,1,0,0,1,.817.426,5.1,5.1,0,0,1-4.177,8.029Zm-2.792-6.458a3.059,3.059,0,0,0-.316,1.352,3.109,3.109,0,1,0,6.217,0,3.059,3.059,0,0,0-.316-1.352Z" transform="translate(-334.047 -411.032)" fill="#e60011" stroke="#e60011" stroke-linecap="round" stroke-linejoin="round" stroke-width="0.3"/>
        <path id="パス_1572-3" data-name="パス 1572" d="M387.351,456.157h-4.889a1,1,0,0,1-1-1v-4.912a1,1,0,0,1,1-1h4.889a1,1,0,0,1,1,1v4.912A1,1,0,0,1,387.351,456.157Zm-3.892-2h2.893v-2.915h-2.893Z" transform="translate(-329.76 -413.907)" fill="#e60011" stroke="#e60011" stroke-linecap="round" stroke-linejoin="round" stroke-width="0.3"/>
        <path id="パス_1573-3" data-name="パス 1573" d="M366.119,456.157h-4.888a1,1,0,0,1-1-1v-4.912a1,1,0,0,1,1-1h4.888a1,1,0,0,1,1,1v4.912A1,1,0,0,1,366.119,456.157Zm-3.889-2h2.891v-2.915h-2.891Z" transform="translate(-332.816 -413.907)" fill="#e60011" stroke="#e60011" stroke-linecap="round" stroke-linejoin="round" stroke-width="0.3"/>
        <path id="パス_1574-3" data-name="パス 1574" d="M374.793,453.322H354.5a1,1,0,0,1-1-1v-16.5a1,1,0,0,1,1-1h20.3a1,1,0,0,1,1,1v16.5A1,1,0,0,1,374.793,453.322Zm-19.3-2h18.3V436.818h-18.3Z" transform="translate(-333.785 -415.983)" fill="#e60011" stroke="#e60011" stroke-linecap="round" stroke-linejoin="round" stroke-width="0.3"/>
        <path id="パス_1575-3" data-name="パス 1575" d="M366.119,441.729h-4.888a1,1,0,0,1-1-1V435.82a1,1,0,0,1,1-1h4.888a1,1,0,0,1,1,1v4.911A1,1,0,0,1,366.119,441.729Zm-3.889-2h2.891v-2.915h-2.891Z" transform="translate(-332.816 -415.983)" fill="#e60011" stroke="#e60011" stroke-linecap="round" stroke-linejoin="round" stroke-width="0.3"/>
        <path id="パス_1576-3" data-name="パス 1576" d="M392.836,476.857H340.957a1,1,0,1,1,0-2h51.879a1,1,0,1,1,0,2Z" transform="translate(-335.734 -410.22)" fill="#e60011" stroke="#e60011" stroke-linecap="round" stroke-linejoin="round" stroke-width="0.3"/>
        <path id="パス_1577-3" data-name="パス 1577" d="M395.3,431.949h-6.952a1,1,0,1,1,0-2H395.3a1,1,0,0,1,0,2Z" transform="translate(-328.912 -416.684)" fill="#e60011" stroke="#e60011" stroke-linecap="round" stroke-linejoin="round" stroke-width="0.3"/>
        <path id="パス_1578-3" data-name="パス 1578" d="M395.3,434.82h-6.952a1,1,0,1,1,0-2H395.3a1,1,0,1,1,0,2Z" transform="translate(-328.912 -416.271)" fill="#e60011" stroke="#e60011" stroke-linecap="round" stroke-linejoin="round" stroke-width="0.3"/>
        <path id="パス_1579-3" data-name="パス 1579" d="M395.3,437.692h-6.952a1,1,0,1,1,0-2H395.3a1,1,0,0,1,0,2Z" transform="translate(-328.912 -415.858)" fill="#e60011" stroke="#e60011" stroke-linecap="round" stroke-linejoin="round" stroke-width="0.3"/>
        <path id="パス_1580-3" data-name="パス 1580" d="M399.579,445.47H385.031a1,1,0,0,1-1-1V426.387a1,1,0,0,1,1-1h14.549a1,1,0,0,1,1,1v18.085A1,1,0,0,1,399.579,445.47Zm-13.55-2h12.551V427.385H386.029Z" transform="translate(-329.39 -417.341)" fill="#e60011" stroke="#e60011" stroke-linecap="round" stroke-linejoin="round" stroke-width="0.3"/>
        <path id="パス_1581-3" data-name="パス 1581" d="M396.025,453.322h-20.3a1,1,0,0,1-1-1v-16.5a1,1,0,0,1,1-1H386.37a1,1,0,0,1,1,1v6.3h8.656a1,1,0,0,1,1,1v9.21A1,1,0,0,1,396.025,453.322Zm-19.3-2h18.3v-7.213H386.37a1,1,0,0,1-1-1v-6.3h-8.647Z" transform="translate(-330.729 -415.983)" fill="#e60011" stroke="#e60011" stroke-linecap="round" stroke-linejoin="round" stroke-width="0.3"/>
        <path id="パス_1582-3" data-name="パス 1582" d="M385.548,441.729h-4.113a1,1,0,0,1-1-1V435.82a1,1,0,0,1,1-1h4.113a1,1,0,0,1,1,1v4.911A1,1,0,0,1,385.548,441.729Zm-3.114-2h2.115v-2.915h-2.115Z" transform="translate(-329.907 -415.983)" fill="#e60011" stroke="#e60011" stroke-linecap="round" stroke-linejoin="round" stroke-width="0.3"/>
      </g>
    </g>
  </g>
</svg>
