<svg xmlns="http://www.w3.org/2000/svg" width="390" height="122"><g fill="#e60011"><path d="M125.492 97.001a4.234 4.234 0 114.233-4.235 4.239 4.239 0 01-4.233 4.235zm0-6.2a1.966 1.966 0 101.967 1.965 1.968 1.968 0 00-1.967-1.965zM164.738 101.838h-59.956a1.134 1.134 0 010-2.268h59.956a1.134 1.134 0 010 2.268z"/><path d="M125.493 101.838a9.071 9.071 0 119.071-9.071 9.082 9.082 0 01-9.071 9.071zm0-15.874a6.8 6.8 0 106.8 6.8 6.81 6.81 0 00-6.8-6.797z"/><path d="M131.002 88.199a1.135 1.135 0 01-.787-.317 6.764 6.764 0 00-4.722-1.913 1.134 1.134 0 01-1.134-1.134V40.799a13.861 13.861 0 00-1.38-6.007c-2.25-3.6-9.731-3.5-11.978-3.377a2.682 2.682 0 11-.136-5.36h11.989a10.077 10.077 0 019.283 10.365v50.639a1.133 1.133 0 01-1.134 1.134zm-4.375-4.428a9 9 0 013.242 1.056v-48.4c0-4.343-3.107-7.9-7.073-8.1h-11.931a.416.416 0 00-.414.414.407.407 0 00.13.3.341.341 0 00.3.11c4.1-.21 11.372.081 14.063 4.506.017.03.034.06.049.091a16.144 16.144 0 011.634 7.051z"/><path d="M168.527 93.901h-35.1a1.133 1.133 0 01-1.133-1.134 6.756 6.756 0 00-1.286-3.967 1.134 1.134 0 01.92-1.8h36.727a3.451 3.451 0 013.432 3.8 3.553 3.553 0 01-3.56 3.101zm-34.033-2.273h34.033a1.284 1.284 0 001.306-1.055 1.179 1.179 0 00-1.174-1.307h-34.8a8.983 8.983 0 01.635 2.362z"/><path d="M169.999 89.271h-29.762a1.133 1.133 0 01-1.134-1.134v-23.38a1.133 1.133 0 011.134-1.134h29.762a1.133 1.133 0 011.134 1.134v23.38a1.133 1.133 0 01-1.134 1.134zm-28.632-2.268h27.5V65.891h-27.5z"/><path d="M140.237 89.271a1.134 1.134 0 01-.968-1.724l6.774-11.1-6.774-11.1a1.134 1.134 0 011.936-1.181l7.134 11.69a1.129 1.129 0 010 1.181l-7.134 11.69a1.127 1.127 0 01-.968.544zM170.008 89.271a1.13 1.13 0 01-.969-.544l-7.134-11.69a1.129 1.129 0 010-1.181l7.134-11.69a1.134 1.134 0 011.936 1.181l-6.779 11.099 6.774 11.1a1.134 1.134 0 01-.966 1.724z"/><path d="M162.868 77.581h-15.5a1.134 1.134 0 110-2.268h15.5a1.134 1.134 0 010 2.268zM166.436 65.892H136.67a1.134 1.134 0 01-1.134-1.134V41.377a1.133 1.133 0 011.134-1.133h8.363a1.133 1.133 0 110 2.267h-7.229v21.113h27.5V48.738a1.134 1.134 0 012.268 0v16.019a1.134 1.134 0 01-1.136 1.135z"/><path d="M136.669 65.891a1.134 1.134 0 01-.966-1.725l6.775-11.102-6.774-11.1a1.134 1.134 0 111.936-1.181l7.134 11.69a1.129 1.129 0 010 1.181l-7.134 11.69a1.133 1.133 0 01-.971.547zM166.437 65.892a1.131 1.131 0 01-.969-.544l-7.134-11.69a1.129 1.129 0 010-1.181l2.641-4.328a1.134 1.134 0 111.936 1.181l-2.281 3.739 6.774 11.1a1.134 1.134 0 01-.378 1.559 1.118 1.118 0 01-.589.164z"/><path d="M159.301 54.201h-15.5a1.134 1.134 0 110-2.268h15.5a1.134 1.134 0 010 2.268zM169.604 45.616h-20.126a1.133 1.133 0 01-1.134-1.134V37a1.133 1.133 0 112.267 0v6.348h17.859V32.743a1.134 1.134 0 012.268 0v11.739a1.134 1.134 0 01-1.134 1.134z"/><path d="M159.54 40.229a1.136 1.136 0 01-.743-.278l-11.954-10.393a1.134 1.134 0 111.489-1.711l11.081 9.635 14.157-16.913a1.134 1.134 0 011.739 1.455l-14.9 17.8a1.136 1.136 0 01-.779.4z"/></g><g fill="none" stroke="#e60011" stroke-width="3"><path stroke-linecap="round" d="M266.438 74.656l15.332 15.942"/><g transform="translate(224.183 31.421)"><circle cx="24.96" cy="24.96" r="24.96" stroke="none"/><circle cx="24.96" cy="24.96" r="23.46"/></g></g></svg>