<svg xmlns="http://www.w3.org/2000/svg" width="390" height="122"><g fill="#e60011"><path d="M231.405 50.355a15.539 15.539 0 1115.538-15.54 15.558 15.558 0 01-15.538 15.54zm0-27.468a11.928 11.928 0 1011.926 11.928 11.941 11.941 0 00-11.926-11.928zM216.325 90.135a1.806 1.806 0 01-1.806-1.806V74.28a1.806 1.806 0 013.612 0v14.049a1.805 1.805 0 01-1.806 1.806zM246.477 83.86a1.806 1.806 0 01-1.806-1.806V74.28a1.806 1.806 0 113.612 0v7.771a1.806 1.806 0 01-1.806 1.809z"/><path d="M314.118 98.816h-121.71a1.806 1.806 0 01-1.806-1.806v-8.682a1.806 1.806 0 011.806-1.806h121.71a1.806 1.806 0 011.806 1.806v8.68a1.806 1.806 0 01-1.806 1.808zm-119.9-3.608h118.1v-5.07h-118.1z"/><path d="M309.143 108.842H197.379a1.8 1.8 0 01-1.8-1.806V97.011a1.8 1.8 0 011.8-1.806h111.764a1.805 1.805 0 011.806 1.806v10.025a1.805 1.805 0 01-1.806 1.806zm-109.956-3.612h108.15v-6.413h-108.15z"/><path d="M301.489 115.944a1.805 1.805 0 01-1.806-1.806v-5.3h-92.84v5.3a1.806 1.806 0 11-3.612 0v-7.1a1.805 1.805 0 011.806-1.806h96.451a1.806 1.806 0 011.806 1.806v7.1a1.806 1.806 0 01-1.805 1.806zM269.668 76.947l5.643-35.626a3.7 3.7 0 014.233-3.076l21.672 3.433a3.7 3.7 0 013.076 4.233l-5.643 35.626a3.7 3.7 0 01-4.233 3.075l-21.673-3.432a3.7 3.7 0 01-3.075-4.233zm31.057-31.601l-21.747-3.534-5.744 35.7 21.747 3.534.102-.074zM262.184 90.134h-36.582a1.806 1.806 0 01-1.806-1.806v-2.487a5.6 5.6 0 015.594-5.594h29.007a5.6 5.6 0 015.6 5.594v2.487a1.806 1.806 0 01-1.813 1.806zm-34.782-3.612h32.973v-.681a1.986 1.986 0 00-1.984-1.982h-29.004a1.985 1.985 0 00-1.982 1.982z"/><path d="M225.599 90.134H203.46a1.805 1.805 0 01-1.806-1.806v-23.56a10.934 10.934 0 0110.923-10.921h37.648a10.933 10.933 0 0110.921 10.921v17.42a1.8 1.8 0 01-2.261 1.746 2.032 2.032 0 00-.49-.074h-29.008a1.985 1.985 0 00-1.982 1.982v2.486a1.806 1.806 0 01-1.806 1.806zm-20.334-3.612h18.527v-.681a5.6 5.6 0 015.594-5.594h28.149V64.768a7.318 7.318 0 00-7.311-7.309h-37.647a7.318 7.318 0 00-7.311 7.309z"/></g><path d="M202.654 36.52s-17.719 5.952-17.854 0 16.952-17.41 17.854-12.654-25.044 18.12-27.018 12.654 26.4-29.329 27.018-24.108-32.644 20.786-34.532 15.561c-.57-1.578 1.788-4.5 5.838-8.1 7.856-7.005 22.782-15.936 23.456-13.362" fill="none" stroke="#e60011" stroke-linecap="round" stroke-linejoin="round" stroke-width="3"/><g fill="#e60011" stroke="#e60011" stroke-width=".3"><path d="M114.263 110.365H80.817a1.193 1.193 0 01-1.194-1.193V81.465a1.194 1.194 0 011.194-1.194h33.45a1.194 1.194 0 011.194 1.194v27.71a1.193 1.193 0 01-1.198 1.19zm-32.255-2.387h31.061v-25.32H82.007z"/><path d="M130.739 110.365h-16.476a1.193 1.193 0 01-1.194-1.193V81.465a1.194 1.194 0 011.194-1.194h16.476a1.194 1.194 0 011.194 1.194v27.71a1.193 1.193 0 01-1.194 1.19zm-15.282-2.387h14.088v-25.32h-14.088z"/><path d="M125.341 91.457h-5.674a1.194 1.194 0 01-1.2-1.192v-8.8a1.194 1.194 0 011.194-1.194h5.678a1.194 1.194 0 011.194 1.194v8.8a1.194 1.194 0 01-1.192 1.192zm-4.484-2.387h3.29v-6.412h-3.29zM91.548 106.06h-6.8a1.194 1.194 0 110-2.387h6.8a1.194 1.194 0 110 2.387zM91.548 102.316h-6.8a1.194 1.194 0 010-2.388h6.8a1.194 1.194 0 010 2.388zM91.548 98.572h-6.8a1.194 1.194 0 010-2.388h6.8a1.194 1.194 0 010 2.388z"/><path d="M122.752 82.663H89.301a1.194 1.194 0 01-1.194-1.194V53.76a1.194 1.194 0 011.194-1.194h33.45a1.194 1.194 0 011.194 1.194v27.708a1.194 1.194 0 01-1.193 1.195zm-32.251-2.389h31.061v-25.32H90.501z"/><path d="M139.226 82.663h-16.475a1.194 1.194 0 01-1.194-1.194V53.76a1.194 1.194 0 011.194-1.194h16.474a1.194 1.194 0 011.194 1.194v27.708a1.194 1.194 0 01-1.193 1.195zm-15.28-2.388h14.087v-25.32h-14.088z"/><path d="M133.828 63.753h-5.678a1.194 1.194 0 01-1.194-1.194v-8.8a1.194 1.194 0 011.194-1.194h5.678a1.194 1.194 0 011.194 1.194v8.8a1.194 1.194 0 01-1.194 1.194zm-4.484-2.388h3.29v-6.41h-3.29zM100.035 78.357h-6.8a1.194 1.194 0 110-2.388h6.8a1.194 1.194 0 110 2.388zM100.035 74.612h-6.8a1.194 1.194 0 110-2.388h6.8a1.194 1.194 0 110 2.388zM100.035 70.868h-6.8a1.194 1.194 0 110-2.388h6.8a1.194 1.194 0 110 2.388zM109.889 54.955H76.441a1.193 1.193 0 01-1.2-1.195V26.052a1.193 1.193 0 011.2-1.192h33.451a1.193 1.193 0 011.193 1.194V53.76a1.193 1.193 0 01-1.196 1.195zm-32.257-2.388h31.062v-25.32H77.632z"/><path d="M126.363 54.955h-16.475a1.194 1.194 0 01-1.194-1.195V26.052a1.194 1.194 0 011.194-1.194h16.474a1.2 1.2 0 011.194 1.194V53.76a1.194 1.194 0 01-1.193 1.195zm-15.282-2.388h14.087v-25.32h-14.087z"/><path d="M120.965 36.045h-5.675a1.193 1.193 0 01-1.194-1.193v-8.8a1.2 1.2 0 011.194-1.192h5.678a1.194 1.194 0 011.194 1.194v8.8a1.193 1.193 0 01-1.197 1.191zm-4.485-2.385h3.29v-6.412h-3.29zM87.172 50.648h-6.8a1.194 1.194 0 110-2.387h6.8a1.194 1.194 0 110 2.387zM87.172 46.904h-6.8a1.194 1.194 0 110-2.387h6.8a1.194 1.194 0 110 2.387zM87.172 43.16h-6.8a1.194 1.194 0 010-2.388h6.8a1.194 1.194 0 110 2.388zM141.673 110.367h-66.4a1.194 1.194 0 110-2.387h66.4a1.194 1.194 0 110 2.387z"/></g></svg>