<svg xmlns="http://www.w3.org/2000/svg" width="390" height="122" viewBox="0 0 390 122">
  <g id="process__module03_03_01" transform="translate(-2691.101 -2612.584)">
    <rect id="長方形_973" data-name="長方形 973" width="390" height="122" transform="translate(2691.101 2612.584)" fill="#fff" opacity="0"/>
    <g id="グループ_1062" data-name="グループ 1062" transform="translate(2672.051 2367.155)">
      <g id="グループ_1071" data-name="グループ 1071">
        <path id="パス_1329" data-name="パス 1329" d="M272.035,281.549a4.784,4.784,0,0,1-4.779-4.778v-8.9a4.779,4.779,0,0,1,9.557,0v8.9A4.783,4.783,0,0,1,272.035,281.549Zm0-15.816a2.144,2.144,0,0,0-2.143,2.141v8.9a2.142,2.142,0,0,0,4.284,0v-8.9A2.143,2.143,0,0,0,272.035,265.733Z" transform="translate(4.34)" fill="#e60011" stroke="#e60011" stroke-linecap="round" stroke-linejoin="round" stroke-width="0.4"/>
        <path id="パス_1330" data-name="パス 1330" d="M282.145,281.549a4.783,4.783,0,0,1-4.778-4.778v-8.9a4.779,4.779,0,0,1,9.557,0v8.9A4.784,4.784,0,0,1,282.145,281.549Zm0-15.816A2.143,2.143,0,0,0,280,267.874v8.9a2.142,2.142,0,0,0,4.284,0v-8.9A2.144,2.144,0,0,0,282.145,265.733Z" transform="translate(9.498)" fill="#e60011" stroke="#e60011" stroke-linecap="round" stroke-linejoin="round" stroke-width="0.4"/>
        <path id="パス_1331" data-name="パス 1331" d="M292.257,281.549a4.783,4.783,0,0,1-4.778-4.778v-8.9a4.778,4.778,0,0,1,9.556,0v8.9A4.783,4.783,0,0,1,292.257,281.549Zm0-15.816a2.144,2.144,0,0,0-2.143,2.141v8.9a2.142,2.142,0,0,0,4.284,0v-8.9A2.143,2.143,0,0,0,292.257,265.733Z" transform="translate(14.656)" fill="#e60011" stroke="#e60011" stroke-linecap="round" stroke-linejoin="round" stroke-width="0.4"/>
        <path id="パス_1332" data-name="パス 1332" d="M315.734,346.981h-51.3a2.639,2.639,0,0,1-2.635-2.637V270.97a2.64,2.64,0,0,1,2.635-2.637h6.921a1.318,1.318,0,0,1,1.318,1.318V274.1a2.142,2.142,0,0,0,4.284,0v-4.449a1.318,1.318,0,0,1,1.318-1.318h8.348a1.319,1.319,0,0,1,1.318,1.318V274.1a2.142,2.142,0,0,0,4.284,0v-4.449a1.318,1.318,0,0,1,1.318-1.318h8.349a1.317,1.317,0,0,1,1.317,1.318V274.1a2.142,2.142,0,0,0,4.284,0v-4.449a1.319,1.319,0,0,1,1.318-1.318h6.921a2.641,2.641,0,0,1,2.637,2.637v73.375A2.64,2.64,0,0,1,315.734,346.981Zm-51.3-76.012v73.375h51.3V270.97h-5.6v3.13a4.778,4.778,0,0,1-9.556,0v-3.13h-5.713v3.13a4.779,4.779,0,0,1-9.557,0v-3.13H279.6v3.13a4.779,4.779,0,0,1-9.557,0v-3.13Z" transform="translate(1.558 2.671)" fill="#e60011" stroke="#e60011" stroke-linecap="round" stroke-linejoin="round" stroke-width="0.4"/>
        <path id="パス_1339" data-name="パス 1339" d="M301.452,287.191H279.7a1.318,1.318,0,1,1,0-2.637h21.748a1.318,1.318,0,0,1,0,2.637Z" transform="translate(10.018 10.945)" fill="#e60011" stroke="#e60011" stroke-linecap="round" stroke-linejoin="round" stroke-width="0.4"/>
        <path id="パス_1340" data-name="パス 1340" d="M301.452,282.9H279.7a1.318,1.318,0,1,1,0-2.637h21.748a1.318,1.318,0,0,1,0,2.637Z" transform="translate(10.018 8.756)" fill="#e60011" stroke="#e60011" stroke-linecap="round" stroke-linejoin="round" stroke-width="0.4"/>
        <path id="パス_1341" data-name="パス 1341" d="M301.452,300.693H279.7a1.318,1.318,0,1,1,0-2.637h21.748a1.318,1.318,0,0,1,0,2.637Z" transform="translate(10.018 17.832)" fill="#e60011" stroke="#e60011" stroke-linecap="round" stroke-linejoin="round" stroke-width="0.4"/>
        <path id="パス_1342" data-name="パス 1342" d="M301.452,296.4H279.7a1.318,1.318,0,1,1,0-2.637h21.748a1.318,1.318,0,0,1,0,2.637Z" transform="translate(10.018 15.643)" fill="#e60011" stroke="#e60011" stroke-linecap="round" stroke-linejoin="round" stroke-width="0.4"/>
        <path id="パス_1343" data-name="パス 1343" d="M301.452,314.192H279.7a1.318,1.318,0,1,1,0-2.635h21.748a1.318,1.318,0,1,1,0,2.635Z" transform="translate(10.018 24.718)" fill="#e60011" stroke="#e60011" stroke-linecap="round" stroke-linejoin="round" stroke-width="0.4"/>
        <path id="パス_1344" data-name="パス 1344" d="M301.452,309.9H279.7a1.318,1.318,0,1,1,0-2.637h21.748a1.318,1.318,0,0,1,0,2.637Z" transform="translate(10.018 22.529)" fill="#e60011" stroke="#e60011" stroke-linecap="round" stroke-linejoin="round" stroke-width="0.4"/>
        <path id="パス_1345" data-name="パス 1345" d="M315.3,332.726H304.532a1.316,1.316,0,0,1-1.317-1.318V278.771a5.277,5.277,0,0,1,5.272-5.273h2.855a5.278,5.278,0,0,1,5.272,5.273v52.636A1.316,1.316,0,0,1,315.3,332.726Zm-9.447-2.635h8.129V278.771a2.64,2.64,0,0,0-2.637-2.637h-2.855a2.64,2.64,0,0,0-2.637,2.637Z" transform="translate(22.682 5.306)" fill="#e60011" stroke="#e60011" stroke-linecap="round" stroke-linejoin="round" stroke-width="0.4"/>
        <path id="パス_1346" data-name="パス 1346" d="M309.914,325.232a1.316,1.316,0,0,1-1.194-.764l-5.382-11.621a1.317,1.317,0,0,1,1.194-1.871H315.3a1.317,1.317,0,0,1,1.195,1.871l-5.382,11.621A1.316,1.316,0,0,1,309.914,325.232ZM306.6,313.61l3.318,7.167,3.319-7.167Z" transform="translate(22.682 24.421)" fill="#e60011" stroke="#e60011" stroke-linecap="round" stroke-linejoin="round" stroke-width="0.4"/>
        <path id="パス_1347" data-name="パス 1347" d="M308.1,319.966a1.316,1.316,0,0,1-1.317-1.318v-36.3a1.318,1.318,0,1,1,2.635,0v36.3A1.317,1.317,0,0,1,308.1,319.966Z" transform="translate(24.5 9.146)" fill="#e60011" stroke="#e60011" stroke-linecap="round" stroke-linejoin="round" stroke-width="0.4"/>
        <path id="パス_1348" data-name="パス 1348" d="M349.366,321.38h-89.3a1.318,1.318,0,0,1,0-2.637h89.3a1.318,1.318,0,1,1,0,2.637Z" transform="translate(0 28.383)" fill="#e60011" stroke="#e60011" stroke-linecap="round" stroke-linejoin="round" stroke-width="0.4"/>
      </g>
      <line id="線_50" data-name="線 50" x2="11" y2="11" transform="translate(271.699 287.469)" fill="none" stroke="#e60011" stroke-linecap="round" stroke-width="3"/>
      <line id="線_54" data-name="線 54" x2="11" y2="11" transform="translate(271.699 307.811)" fill="none" stroke="#e60011" stroke-linecap="round" stroke-width="3"/>
      <line id="線_52" data-name="線 52" x2="11" y2="11" transform="translate(271.699 328.469)" fill="none" stroke="#e60011" stroke-linecap="round" stroke-width="3"/>
      <line id="線_51" data-name="線 51" x1="11" y2="11" transform="translate(271.699 287.469)" fill="none" stroke="#e60011" stroke-linecap="round" stroke-width="3"/>
      <line id="線_55" data-name="線 55" x1="11" y2="11" transform="translate(271.699 307.811)" fill="none" stroke="#e60011" stroke-linecap="round" stroke-width="3"/>
      <line id="線_53" data-name="線 53" x1="11" y2="11" transform="translate(271.699 328.469)" fill="none" stroke="#e60011" stroke-linecap="round" stroke-width="3"/>
    </g>
    <g id="グループ_1063" data-name="グループ 1063" transform="translate(2716.467 2506.794)">
      <path id="パス_1360" data-name="パス 1360" d="M99.967,179.637H26.958a1.926,1.926,0,0,1-1.925-1.928V128.666a3.858,3.858,0,0,1,3.853-3.855H98.039a3.859,3.859,0,0,1,3.855,3.855v49.043A1.928,1.928,0,0,1,99.967,179.637Zm-71.081-3.855H98.039V128.666H28.886Z" transform="translate(2.456 0)" fill="#e60011"/>
      <path id="パス_1361" data-name="パス 1361" d="M90.45,142.566H67.984a1.928,1.928,0,0,1,0-3.855H90.45a1.928,1.928,0,0,1,0,3.855Z" transform="translate(52.014 16.791)" fill="#e60011"/>
      <path id="パス_1362" data-name="パス 1362" d="M41.053,177.429a13.337,13.337,0,1,1,13.338-13.336A13.35,13.35,0,0,1,41.053,177.429Zm0-22.819a9.483,9.483,0,1,0,9.485,9.483A9.493,9.493,0,0,0,41.053,154.61Z" transform="translate(5.698 31.34)" fill="#e60011"/>
      <path id="パス_1363" data-name="パス 1363" d="M113.43,174.408h-50A1.928,1.928,0,0,1,61.5,172.48V131.065a1.926,1.926,0,0,1,1.928-1.925H79.085a15.513,15.513,0,0,1,14.776,11.011l2.566,8.6a8.567,8.567,0,0,0,4.3,5.16l3.924,2a19.809,19.809,0,0,1,10.706,16.456,1.93,1.93,0,0,1-1.925,2.04Zm-48.076-3.855h45.9a15.9,15.9,0,0,0-8.355-11.205l-3.924-2a12.458,12.458,0,0,1-6.244-7.5l-2.566-8.6a11.634,11.634,0,0,0-11.08-8.26H65.354Z" transform="translate(46.505 5.229)" fill="#e60011"/>
      <path id="パス_1364" data-name="パス 1364" d="M77.517,177.429a13.337,13.337,0,1,1,13.338-13.336A13.352,13.352,0,0,1,77.517,177.429Zm0-22.819A9.483,9.483,0,1,0,87,164.093,9.493,9.493,0,0,0,77.517,154.61Z" transform="translate(49.743 31.34)" fill="#e60011"/>
      <path id="パス_1365" data-name="パス 1365" d="M156.147,164.374h-18.69a1.929,1.929,0,0,1-1.722-1.064,9.467,9.467,0,0,0-16.948,0,1.929,1.929,0,0,1-1.722,1.064H56.95a1.932,1.932,0,0,1-1.724-1.064,9.466,9.466,0,0,0-16.946,0,1.929,1.929,0,0,1-1.724,1.064H24.928A1.928,1.928,0,0,1,23,162.447V149.824a1.928,1.928,0,0,1,1.928-1.928H160.007a1.928,1.928,0,0,1,1.928,1.928v8.763A5.793,5.793,0,0,1,156.147,164.374Zm-17.56-3.855h17.56a1.933,1.933,0,0,0,1.932-1.932v-6.836H26.855v8.768h8.571a13.319,13.319,0,0,1,22.652,0h57.855a13.321,13.321,0,0,1,22.654,0Z" transform="translate(0 27.886)" fill="#e60011"/>
      <path id="パス_1366" data-name="パス 1366" d="M148.909,164.944H24.928a1.926,1.926,0,1,1,0-3.853H148.909a1.926,1.926,0,1,1,0,3.853Z" transform="translate(0 43.825)" fill="#e60011"/>
    </g>
  </g>
</svg>
