<svg xmlns="http://www.w3.org/2000/svg" width="390" height="122"><g fill="#e60011"><g stroke="#e60011" stroke-width=".2"><path d="M80.879 36.12a4.784 4.784 0 01-4.779-4.778v-8.9a4.779 4.779 0 019.557 0v8.9a4.783 4.783 0 01-4.778 4.778zm0-15.816a2.144 2.144 0 00-2.143 2.141v8.9a2.142 2.142 0 004.284 0v-8.9a2.143 2.143 0 00-2.141-2.141zM96.146 36.12a4.783 4.783 0 01-4.778-4.778v-8.9a4.779 4.779 0 019.557 0v8.9a4.784 4.784 0 01-4.779 4.778zm0-15.816a2.143 2.143 0 00-2.145 2.141v8.9a2.142 2.142 0 004.284 0v-8.9a2.144 2.144 0 00-2.139-2.141zM111.416 36.12a4.783 4.783 0 01-4.778-4.778v-8.9a4.778 4.778 0 019.556 0v8.9a4.783 4.783 0 01-4.778 4.778zm0-15.816a2.144 2.144 0 00-2.143 2.141v8.9a2.142 2.142 0 004.284 0v-8.9a2.143 2.143 0 00-2.141-2.141z"/><path d="M121.795 104.223h-51.3a2.639 2.639 0 01-2.635-2.637V28.212a2.64 2.64 0 012.635-2.637h6.921a1.318 1.318 0 011.318 1.318v4.449a2.142 2.142 0 004.284 0v-4.449a1.318 1.318 0 011.318-1.318h8.348a1.319 1.319 0 011.318 1.318v4.449a2.142 2.142 0 004.284 0v-4.449a1.318 1.318 0 011.318-1.318h8.349a1.317 1.317 0 011.317 1.318v4.449a2.142 2.142 0 004.284 0v-4.449a1.319 1.319 0 011.318-1.318h6.921a2.641 2.641 0 012.637 2.637v73.375a2.64 2.64 0 01-2.635 2.636zm-51.3-76.012v73.375h51.3V28.212h-5.6v3.13a4.778 4.778 0 01-9.556 0v-3.13h-5.713v3.13a4.779 4.779 0 01-9.557 0v-3.13h-5.708v3.13a4.779 4.779 0 01-9.557 0v-3.13z"/><path d="M87.633 56.33H75.77a1.318 1.318 0 110-2.635h11.863a1.318 1.318 0 110 2.635zM81.702 51.938a1.317 1.317 0 01-.914-.368l-5.931-5.711a1.318 1.318 0 011.827-1.9l4.914 4.731 7.594-9.077a1.318 1.318 0 012.022 1.691l-8.5 10.161a1.314 1.314 0 01-.939.471zM87.633 76.402H75.77a1.318 1.318 0 110-2.635h11.863a1.318 1.318 0 110 2.635zM81.702 72.01a1.317 1.317 0 01-.914-.368l-5.931-5.711a1.318 1.318 0 111.827-1.9l4.914 4.731 7.594-9.077a1.318 1.318 0 012.022 1.691l-8.5 10.161a1.314 1.314 0 01-.939.471c-.025.002-.051.002-.073.002zM87.633 96.474H75.77a1.318 1.318 0 110-2.635h11.863a1.318 1.318 0 110 2.635zM81.702 92.084a1.317 1.317 0 01-.914-.368l-5.931-5.711a1.318 1.318 0 111.827-1.9l4.914 4.731 7.594-9.077a1.318 1.318 0 012.022 1.691l-8.5 10.161a1.314 1.314 0 01-.939.471c-.025.002-.051.002-.073.002zM115.973 52.707H94.221a1.319 1.319 0 110-2.637h21.748a1.319 1.319 0 010 2.637zM115.973 46.227H94.221a1.319 1.319 0 110-2.637h21.748a1.319 1.319 0 010 2.637zM115.973 73.096H94.221a1.319 1.319 0 110-2.637h21.748a1.319 1.319 0 010 2.637zM115.973 66.614H94.221a1.319 1.319 0 110-2.637h21.748a1.319 1.319 0 010 2.637zM115.973 93.481H94.221a1.318 1.318 0 110-2.635h21.748a1.318 1.318 0 110 2.635zM115.973 87H94.221a1.319 1.319 0 110-2.637h21.748a1.319 1.319 0 010 2.637zM142.485 92.603h-10.768a1.316 1.316 0 01-1.317-1.318V38.648a5.277 5.277 0 015.272-5.273h2.855a5.278 5.278 0 015.272 5.273v52.636a1.316 1.316 0 01-1.314 1.319zm-9.447-2.635h8.129v-51.32a2.64 2.64 0 00-2.637-2.637h-2.855a2.64 2.64 0 00-2.637 2.637z"/><path d="M137.099 104.224a1.316 1.316 0 01-1.194-.764l-5.382-11.621a1.317 1.317 0 011.194-1.871h10.768a1.317 1.317 0 011.195 1.871l-5.382 11.621a1.316 1.316 0 01-1.199.764zm-3.314-11.622l3.318 7.167 3.319-7.167zM137.103 83.682a1.316 1.316 0 01-1.317-1.318v-36.3a1.318 1.318 0 112.635 0v36.3a1.317 1.317 0 01-1.318 1.318z"/><path d="M153.869 104.334h-89.3a1.319 1.319 0 010-2.637h89.3a1.319 1.319 0 110 2.637z"/></g><path d="M290.378 43.744a15.539 15.539 0 10-15.538-15.54 15.558 15.558 0 0015.538 15.54zm0-27.468a11.928 11.928 0 11-11.926 11.928 11.941 11.941 0 0111.926-11.928zM305.45 83.522a1.806 1.806 0 001.806-1.806V67.668a1.806 1.806 0 00-3.612 0v14.049a1.805 1.805 0 001.806 1.805zM275.299 77.248a1.806 1.806 0 001.806-1.806v-7.774a1.806 1.806 0 00-3.612 0v7.771a1.806 1.806 0 001.806 1.809z"/><path d="M203.237 92.205h121.71a1.806 1.806 0 001.8-1.808v-8.68a1.806 1.806 0 00-1.806-1.806H203.237a1.806 1.806 0 00-1.806 1.806v8.68a1.806 1.806 0 001.806 1.808zm119.9-3.612h-118.09v-5.07h118.1z"/><path d="M208.21 102.23h111.764a1.8 1.8 0 001.8-1.806V90.399a1.8 1.8 0 00-1.8-1.806H208.21a1.805 1.805 0 00-1.806 1.806v10.025a1.805 1.805 0 001.806 1.806zm109.958-3.612H210.016v-6.413h108.152z"/><path d="M215.869 109.332a1.805 1.805 0 001.8-1.806v-5.3h92.84v5.3a1.806 1.806 0 103.612 0v-7.1a1.805 1.805 0 00-1.806-1.806h-96.446a1.806 1.806 0 00-1.806 1.806v7.1a1.806 1.806 0 001.806 1.806zM221.903 83.523h27.942a1.806 1.806 0 001.806-1.806v-3.748a5.086 5.086 0 00-5.083-5.081H225.18a5.086 5.086 0 00-5.083 5.081v3.748a1.806 1.806 0 001.806 1.806zm26.136-3.612H223.71v-1.942a1.471 1.471 0 011.471-1.469h21.388a1.471 1.471 0 011.471 1.469z"/><path d="M221.903 76.015h27.942a1.806 1.806 0 001.806-1.806v-3.748a5.086 5.086 0 00-5.083-5.081H225.18a5.086 5.086 0 00-5.083 5.081v3.748a1.806 1.806 0 001.806 1.806zm26.136-3.612H223.71v-1.942a1.471 1.471 0 011.471-1.469h21.388a1.471 1.471 0 011.471 1.469z"/><path d="M221.903 67.015h27.942a1.806 1.806 0 001.806-1.806v-3.748a5.086 5.086 0 00-5.083-5.081H225.18a5.086 5.086 0 00-5.083 5.081v3.748a1.806 1.806 0 001.806 1.806zm26.136-3.612H223.71v-1.942a1.471 1.471 0 011.471-1.469h21.388a1.471 1.471 0 011.471 1.469z"/><path d="M221.903 57.871h27.942a1.806 1.806 0 001.806-1.806v-3.748a5.086 5.086 0 00-5.083-5.081H225.18a5.086 5.086 0 00-5.083 5.081v3.748a1.806 1.806 0 001.806 1.806zm26.136-3.612H223.71v-1.942a1.471 1.471 0 011.471-1.469h21.388a1.471 1.471 0 011.471 1.469zM259.594 83.523h36.585a1.806 1.806 0 001.806-1.806V79.23a5.6 5.6 0 00-5.594-5.594h-29.01a5.6 5.6 0 00-5.6 5.594v2.487a1.806 1.806 0 001.813 1.806zm34.779-3.612h-32.979v-.681a1.986 1.986 0 011.984-1.982h29.007a1.985 1.985 0 011.982 1.982z"/><path d="M296.176 83.523h22.139a1.805 1.805 0 001.806-1.806v-23.56a10.934 10.934 0 00-10.923-10.921H271.55a10.933 10.933 0 00-10.921 10.921v17.42a1.8 1.8 0 002.261 1.746 2.032 2.032 0 01.49-.074h29.007a1.985 1.985 0 011.982 1.982v2.486a1.806 1.806 0 001.807 1.806zm20.333-3.612h-18.527v-.681a5.6 5.6 0 00-5.594-5.594H264.24V58.157a7.318 7.318 0 017.311-7.309h37.648a7.318 7.318 0 017.311 7.309z"/></g></svg>