<svg xmlns="http://www.w3.org/2000/svg" width="79.275" height="88.313"><g data-name="グループ 4005"><g data-name="グループ 4004" transform="translate(-1304.725 -3940.687)"><g fill="#e91313"><path data-name="パス 1441" d="M1327.665 3941.187l-22.438 22.443v56.594h62.551v-79.037zm-.329 7.667v14.445h-14.445zm35.252 66.182h-52.175v-47.159h21.5v-21.501h30.673z"/><path data-name="パス 1441 - アウトライン" d="M1327.458 3940.687h40.818v80.037h-63.549v-57.3zm39.818 1h-39.4l-22.149 22.15v55.887h61.551zm-35.861 4.189h31.673v69.66h-53.175v-48.159h21.5zm30.673 1h-29.673v21.5h-21.5v46.16h51.175zm-34.252.771v16.152h-16.152zm-1 15.152v-12.738l-12.738 12.738z"/><path data-name="長方形 3914" d="M1321.279 3977.922h30.442v3.998h-30.442z"/><path data-name="長方形 3914 - アウトライン" d="M1320.779 3977.422h31.442v5h-31.442zm30.442 1h-29.442v3h29.442z"/><path data-name="長方形 3915" d="M1321.279 3988.838h30.442v3.998h-30.442z"/><path data-name="長方形 3915 - アウトライン" d="M1320.779 3988.338h31.442v5h-31.442zm30.442 1h-29.442v3h29.442z"/><path data-name="長方形 3916" d="M1321.279 3999.755h30.442v3.998h-30.442z"/><path data-name="長方形 3916 - アウトライン" d="M1320.779 3999.255h31.442v5h-31.442zm30.442 1h-29.442v3h29.442z"/></g><circle data-name="楕円形 63" cx="18.5" cy="18.5" r="18.5" transform="translate(1347 3992)" fill="#fff"/></g><path data-name="パス 1444" d="M61.105 56.313a13.83 13.83 0 1013.83 13.83 13.83 13.83 0 00-13.83-13.83zm8.935 9.318l-7.384 8.954a2.726 2.726 0 01-3.959.333l-4.486-4.032a1.7 1.7 0 01-.124-2.412l.6-.666a1.7 1.7 0 012.417-.109l3.747 3.447 7.6-7.023a1.1 1.1 0 011.583 1.508z" fill="#e91313"/></g></svg>