<svg xmlns="http://www.w3.org/2000/svg" width="35.971" height="44.604"><g fill="#f2b1b1"><path data-name="パス 2336" d="M0 0v44.6h35.971V0zm33.093 41.726H20.144v-8.633h-4.317v8.633H2.878V2.878h30.215z"/><path data-name="長方形 4718" d="M7.194 7.194h4.316v4.316H7.194z"/><path data-name="長方形 4719" d="M15.827 7.194h4.316v4.316h-4.316z"/><path data-name="長方形 4720" d="M24.46 7.194h4.316v4.316H24.46z"/><path data-name="長方形 4721" d="M7.194 15.827h4.316v4.316H7.194z"/><path data-name="長方形 4722" d="M15.827 15.827h4.316v4.316h-4.316z"/><path data-name="長方形 4723" d="M24.46 15.827h4.316v4.316H24.46z"/><path data-name="長方形 4724" d="M7.194 24.46h4.316v4.316H7.194z"/><path data-name="長方形 4725" d="M15.827 24.46h4.316v4.316h-4.316z"/><path data-name="長方形 4726" d="M24.46 24.46h4.316v4.316H24.46z"/><path data-name="長方形 4727" d="M7.194 33.093h4.316v4.316H7.194z"/><path data-name="長方形 4728" d="M24.46 33.093h4.316v4.316H24.46z"/></g></svg>