<svg xmlns="http://www.w3.org/2000/svg" width="44.154" height="45.999"><g fill="#f2b1b1"><path data-name="長方形 4729" d="M14.452 29.892h15.249v1.801H14.452z"/><path data-name="長方形 4730" d="M14.452 34.416h15.249v1.801H14.452z"/><path data-name="長方形 4731" d="M14.452 38.438h7.207v1.801h-7.207z"/><path data-name="パス 2337" d="M30.444 19.324a1.446 1.446 0 101.446 1.445 1.446 1.446 0 00-1.446-1.445z"/><path data-name="パス 2338" d="M36.602 19.324a1.446 1.446 0 101.446 1.445 1.446 1.446 0 00-1.446-1.445z"/><path data-name="パス 2339" d="M42.79 14.434a4.648 4.648 0 00-3.262-1.363h-3.334V7.255L28.939 0H7.959v13.071h-3.31a4.641 4.641 0 00-3.288 1.364 4.644 4.644 0 00-1.362 3.289v14.74a4.642 4.642 0 004.534 4.646l.015.006h3.41V46h28.236v-8.884h3.364a4.646 4.646 0 004.6-4.648V17.723a4.644 4.644 0 00-1.368-3.289zM27.921 3.313l4.794 4.794h-4.794zm-16.9-.25h15.1v6.845h7.007v3.7H11.022zm22.107 39.874H11.022V27.362h22.106v9.214zm7.959-10.473a1.589 1.589 0 01-1.59 1.589h-3.844V24.84H8.498v9.214H4.652a1.588 1.588 0 01-1.589-1.589V17.723a1.588 1.588 0 011.589-1.589h34.85a1.592 1.592 0 011.59 1.589v14.741z"/></g></svg>